<?xml version="1.0" encoding="UTF-8" standalone="no"?>
<svg width="86px" height="86px" viewBox="0 0 86 86" version="1.1" xmlns="http://www.w3.org/2000/svg" xmlns:xlink="http://www.w3.org/1999/xlink" xmlns:sketch="http://www.bohemiancoding.com/sketch/ns">
    <!-- Generator: Sketch 3.1.1 (8761) - http://www.bohemiancoding.com/sketch -->
    <title>noun_113116_cc</title>
    <desc>Created with Sketch.</desc>
    <defs></defs>
    <g id="Page-1" stroke="none" stroke-width="1" fill="none" fill-rule="evenodd" sketch:type="MSPage">
        <g id="noun_113116_cc" sketch:type="MSLayerGroup" transform="translate(1.000000, 1.000000)" fill="#FFFFFF">
            <path d="M41.8,-0.3 C18.4,-0.2 -0.4,18.8 -0.3,42.2 C-0.2,65.6 18.8,84.5 42.2,84.4 C65.6,84.3 84.5,65.3 84.4,41.9 C84.2,18.4 65.2,-0.4 41.8,-0.3 L41.8,-0.3 Z M41.8,4.4 C62.6,4.3 79.5,21.1 79.6,41.9 C79.6,50.4 76.8,58.3 72,64.7 C69.2,63.2 61.8,58.9 58.9,58.5 C55.9,58.1 51.1,57.7 50.4,56.4 C49.7,55 48.9,49.8 48.9,49.8 C48.9,49.8 50.7,48.3 50.9,45.9 C51.1,43.5 51.5,41.4 51.5,41.4 C51.5,41.4 53,41.1 53.2,39.7 C53.4,38.3 54.1,35.8 54.4,35.2 C54.7,34.5 55.3,31.9 53.4,32.5 C54.1,29.6 54.6,24.4 54.2,23 C53.9,21.8 53.4,19.8 52.4,19 C51.7,18 51,17.2 50.4,16.8 C48.6,15.6 44.5,14.7 42.4,14.3 C40.3,13.9 38.1,14.7 35.4,15.5 C32.7,16.3 32.1,18 32.1,18 C32.1,18 31,18 30,18.7 C29,19.5 28.7,21.7 28.3,23.1 C27.9,24.5 28.5,29.6 29.2,32.6 C27.3,32 27.9,34.7 28.2,35.3 C28.5,36 29.2,38.5 29.4,39.8 C29.6,41.2 31.1,41.4 31.1,41.4 C31.1,41.4 31.5,43.5 31.7,45.9 C31.9,48.3 33.8,49.8 33.8,49.8 C33.8,49.8 33.1,55.1 32.3,56.4 C31.5,57.7 26.8,58.2 23.8,58.6 C21.2,59 14.9,62.5 11.7,64.4 C7.1,58.2 4.3,50.5 4.3,42.2 C4.3,21.4 21.1,4.5 41.8,4.4 L41.8,4.4 Z" id="Shape" sketch:type="MSShapeGroup"></path>
        </g>
    </g>
</svg>