<?xml version="1.0" encoding="utf-8"?>
<!-- Generator: Adobe Illustrator 16.0.0, SVG Export Plug-In . SVG Version: 6.00 Build 0)  -->
<!DOCTYPE svg PUBLIC "-//W3C//DTD SVG 1.1//EN" "http://www.w3.org/Graphics/SVG/1.1/DTD/svg11.dtd">
<svg version="1.1" id="Calque_1" xmlns="http://www.w3.org/2000/svg" xmlns:xlink="http://www.w3.org/1999/xlink" x="0px" y="0px"
	 width="100px" height="100px" viewBox="0 0 100 100" enable-background="new 0 0 100 100" xml:space="preserve">
<g>
	<g>
		<g>
			<path fill="#FFFFFF" d="M49.999,50.799c14.762,0,26.773,15.188,26.773,33.856c0,4.311-2.562,7.952-5.593,7.952H28.816
				c-3.03,0-5.59-3.642-5.59-7.952C23.227,65.986,35.236,50.799,49.999,50.799 M49.999,45.799
				c-17.539,0-31.772,17.408-31.772,38.856c0,7.163,4.738,12.952,10.59,12.952h42.362c5.856,0,10.593-5.791,10.593-12.952
				C81.771,63.206,67.538,45.799,49.999,45.799L49.999,45.799z"/>
		</g>
		<g>
			<path fill="#FFFFFF" d="M49.999,8.179c7.956,0,14.427,6.471,14.427,14.425c0,7.957-6.472,14.431-14.427,14.431
				c-7.953,0-14.424-6.473-14.424-14.429C35.575,14.65,42.045,8.179,49.999,8.179 M49.999,3.179
				c-10.721,0-19.424,8.701-19.424,19.427c0,10.728,8.703,19.429,19.424,19.429c10.724,0,19.427-8.701,19.427-19.431
				C69.426,11.88,60.723,3.179,49.999,3.179L49.999,3.179z"/>
		</g>
	</g>
</g>
</svg>
