<?xml version="1.0" encoding="UTF-8" standalone="no"?>
<svg width="29px" height="100px" viewBox="0 0 29 100" version="1.1" xmlns="http://www.w3.org/2000/svg" xmlns:xlink="http://www.w3.org/1999/xlink" xmlns:sketch="http://www.bohemiancoding.com/sketch/ns">
    <!-- Generator: Sketch 3.1.1 (8761) - http://www.bohemiancoding.com/sketch -->
    <title>noun_2463_cc</title>
    <desc>Created with Sketch.</desc>
    <defs></defs>
    <g id="Page-1" stroke="none" stroke-width="1" fill="none" fill-rule="evenodd" sketch:type="MSPage">
        <g id="noun_2463_cc" sketch:type="MSLayerGroup" fill="#010101">
            <path d="M18.893,0.719 C18.78,1.005 16.787,1.235 14.327,1.235 C11.864,1.235 9.872,1.004 9.764,0.718 C9.752,0.739 9.741,0.759 9.741,0.796 L9.741,7.237 C9.741,7.453 9.917,7.628 10.132,7.628 L10.291,7.628 L18.363,7.628 L18.523,7.628 C18.738,7.628 18.914,7.453 18.914,7.237 L18.914,0.796 C18.914,0.759 18.903,0.739 18.893,0.719 L18.893,0.719 Z" id="Shape" sketch:type="MSShapeGroup"></path>
            <ellipse id="Oval" sketch:type="MSShapeGroup" cx="14.495" cy="0.53" rx="4.495" ry="0.53"></ellipse>
            <path d="M28.646,93.919 L28.646,43.501 C28.646,37.551 26.08,32.315 22.194,29.271 C21.788,28.664 19.021,24.274 18.363,16.197 L18.363,7.987 L10.293,7.987 L10.293,16.197 C9.634,24.275 6.869,28.664 6.462,29.271 C2.576,32.316 0.012,37.551 0.012,43.501 L0.012,93.919 C-0.014,94.061 0.012,94.209 0.012,94.355 C0.012,97.476 6.396,100 14.329,100 C22.262,100 28.642,97.477 28.642,94.355 C28.641,94.209 28.672,94.06 28.646,93.919 L28.646,93.919 Z M27.309,72.744 L27.309,72.746 C27.304,74.252 21.494,75.469 14.328,75.469 C7.16,75.469 1.349,74.251 1.345,72.746 L1.345,72.746 L1.345,72.744 L1.345,49.691 C1.345,51.196 7.158,52.133 14.329,52.133 C21.498,52.133 27.31,51.196 27.31,49.691 L27.309,72.744 L27.309,72.744 Z" id="Shape" sketch:type="MSShapeGroup"></path>
        </g>
    </g>
</svg>