<?xml version="1.0" encoding="UTF-8" standalone="no"?>
<svg width="80px" height="85px" viewBox="0 0 80 85" version="1.1" xmlns="http://www.w3.org/2000/svg" xmlns:xlink="http://www.w3.org/1999/xlink" xmlns:sketch="http://www.bohemiancoding.com/sketch/ns">
    <!-- Generator: Sketch 3.1.1 (8761) - http://www.bohemiancoding.com/sketch -->
    <title>noun_54922_cc</title>
    <desc>Created with Sketch.</desc>
    <defs></defs>
    <g id="Page-1" stroke="none" stroke-width="1" fill="none" fill-rule="evenodd" sketch:type="MSPage">
        <g id="noun_54922_cc" sketch:type="MSLayerGroup" transform="translate(1.000000, 1.000000)" fill="#000000">
            <g id="Group" sketch:type="MSShapeGroup">
                <path d="M67.297,54.843 L70.83,54.124 C70.83,54.124 70.775,53.574 70.654,52.911 L74.906,52.042 L74.167,49.143 L65.362,50.993 C65.221,50.992 65.08,50.992 64.94,50.989 L33.692,-0.092 L32.218,-0.01 L31.563,1.265 L32.22,2.357 L3.356,5.579 L4.011,7.002 L2.228,4 L0.665,4 L-0.102,5.044 L19.001,40.22 C16.361,47.751 12.335,59.324 11.177,62.672 L5.099,63.92 L5.909,66.548 L30.578,61.32 L42.951,84 L44.571,84 L45.765,82.386 L33.794,60.744 L44.773,58.543 C44.938,58.996 45.038,59.351 45.038,59.351 L64.182,55.465 L76.434,75.831 L77.962,75.749 L78.991,73.959 L67.297,54.843 L67.297,54.843 Z M32.211,57.959 L32.134,57.819 L37.62,56.652 L37.618,56.586 C37.93,56.609 38.251,56.618 38.576,56.621 L32.211,57.959 L32.211,57.959 Z M32.565,55.142 L30.867,55.518 L29.279,52.635 C30.244,53.623 31.329,54.478 32.565,55.142 L32.565,55.142 Z M33.52,4.518 L61.221,50.554 C42.447,46.501 36.701,15.887 32.567,7.433 L35.057,7.164 L33.757,5.003 L4.893,8.225 L6.034,10.296 L8.283,10.053 C9.472,12.82 11.054,17.942 13.064,23.201 L4.497,7.649 L33.52,4.518 L33.52,4.518 Z M27.722,56.216 L15.723,58.875 C17.227,54.496 19.286,48.518 20.959,43.721 L27.722,56.216 L27.722,56.216 Z M14.693,61.875 C14.734,61.754 14.778,61.629 14.821,61.502 L28.956,58.495 L29.142,58.838 L14.693,61.875 L14.693,61.875 Z" id="Shape"></path>
                <path d="M44.942,81.068 L74.906,73.296 L73.046,70.206 L43.12,77.762 L44.942,81.068 Z" id="Shape"></path>
            </g>
        </g>
    </g>
</svg>