<?xml version="1.0" encoding="UTF-8" standalone="no"?>
<svg width="77px" height="170px" viewBox="0 0 77 170" version="1.1" xmlns="http://www.w3.org/2000/svg" xmlns:xlink="http://www.w3.org/1999/xlink" xmlns:sketch="http://www.bohemiancoding.com/sketch/ns">
    <!-- Generator: Sketch 3.1.1 (8761) - http://www.bohemiancoding.com/sketch -->
    <title>noun_116827_cc</title>
    <desc>Created with Sketch.</desc>
    <defs></defs>
    <g id="Page-1" stroke="none" stroke-width="1" fill="none" fill-rule="evenodd" sketch:type="MSPage">
        <g id="noun_116827_cc" sketch:type="MSLayerGroup" fill="#000000">
            <path d="M42.6982188,99.5068349 C42.7557656,95.0314587 44.3234219,92.0611468 47.6770156,89.3078349 C55.1462031,83.1721101 62.4705313,76.8492477 69.634125,70.3551743 C74.8530313,65.630945 77.36525,59.7281468 75.9960313,52.461633 C73.0055781,36.5628991 70.0726719,20.654211 67.2449375,4.7276055 C67.1675469,4.28763303 67.0385625,3.96113761 66.9155313,3.6266789 C67.1913594,3.03938532 67.3719375,2.22314679 66.6158906,1.67766055 C66.6158906,1.67766055 51.5267031,-0.00657798165 38.3008438,-0.00657798165 C25.073,-0.00657798165 9.97984375,1.67766055 9.97984375,1.67766055 C9.21189063,2.22911927 9.4123125,3.06924771 9.69210938,3.65654128 C9.56709375,3.9830367 9.43810938,4.29758716 9.36270313,4.72163303 C6.4754375,20.9130183 3.52070313,37.0924587 0.544140625,53.2639358 C-0.519484375,59.0333486 1.16128125,63.9845321 4.98914063,68.1951284 C7.49739063,70.9444587 10.1961406,73.5484587 13.0020469,75.9912018 C18.9412813,81.1673486 25.1007813,86.0807064 30.9507188,91.3544037 C32.3159688,92.5827431 33.5065938,94.7686697 33.5839844,96.5683761 C34.2745469,113.028523 34.6495938,129.502606 35.26475,145.962752 C35.3619844,148.63444 34.359875,149.894633 32.0123594,150.878101 C28.3392813,152.420991 24.6880313,154.003697 21.04075,155.614275 C14.8098125,156.936183 6.1103125,159.576018 6.1103125,163.446183 C6.1103125,169.197679 27.0911094,169.211615 37.4594688,169.211615 L39.13825,169.211615 C49.5105781,169.211615 70.491375,169.195688 70.491375,163.446183 C70.491375,159.619817 61.9724531,156.991927 55.759375,155.658073 C52.3264063,154.123147 48.8716094,152.632018 45.3731563,151.268303 C42.043375,149.974266 41.2000156,148.098908 41.3369375,144.75233 C41.9441562,129.677798 42.5057344,114.593312 42.6982188,99.5068349 L42.6982188,99.5068349 Z" id="Shape" sketch:type="MSShapeGroup"></path>
        </g>
    </g>
</svg>