<?xml version="1.0" encoding="utf-8"?>
<!-- Generator: Adobe Illustrator 16.0.0, SVG Export Plug-In . SVG Version: 6.00 Build 0)  -->
<!DOCTYPE svg PUBLIC "-//W3C//DTD SVG 1.1//EN" "http://www.w3.org/Graphics/SVG/1.1/DTD/svg11.dtd">
<svg version="1.1" id="Calque_1" xmlns="http://www.w3.org/2000/svg" xmlns:xlink="http://www.w3.org/1999/xlink" x="0px" y="0px"
	 width="100px" height="100px" viewBox="0 0 100 100" enable-background="new 0 0 100 100" xml:space="preserve">
<g sketch:type="MSPage">
	
		<path sketch:type="MSShapeGroup" fill="#FFFFFF" stroke="#FFFFFF" stroke-linecap="round" stroke-linejoin="round" stroke-miterlimit="10" d="
		M33.498,51.629C32.525,57.516,27.486,62,21.417,62S10.308,57.516,9.336,51.629H3.07c-1.132,0-2.07-0.928-2.07-2.073
		c0-1.153,0.927-2.073,2.07-2.073h6.266c0.972-5.887,6.011-10.371,12.081-10.371s11.109,4.484,12.081,10.371H96.93
		c1.132,0,2.07,0.928,2.07,2.073c0,1.153-0.928,2.073-2.07,2.073H33.498L33.498,51.629z M64.461,82.74H3.07
		C1.938,82.74,1,81.812,1,80.667c0-1.153,0.927-2.074,2.07-2.074h61.391c0.972-5.886,6.011-10.37,12.08-10.37
		s11.109,4.484,12.082,10.37h8.307c1.132,0,2.07,0.929,2.07,2.074c0,1.153-0.928,2.073-2.07,2.073h-8.307
		c-0.973,5.887-6.013,10.371-12.082,10.371S65.433,88.627,64.461,82.74L64.461,82.74z M44.044,20.518H3.07
		C1.938,20.518,1,19.59,1,18.444c0-1.153,0.927-2.073,2.07-2.073h40.974C45.016,10.484,50.055,6,56.125,6
		c6.07,0,11.109,4.484,12.081,10.371H96.93c1.132,0,2.07,0.928,2.07,2.073c0,1.153-0.928,2.073-2.07,2.073H68.206
		c-0.972,5.887-6.011,10.371-12.081,10.371C50.055,30.889,45.016,26.404,44.044,20.518L44.044,20.518z M56.125,26.74
		c4.511,0,8.166-3.714,8.166-8.296c0-4.581-3.655-8.296-8.166-8.296s-8.167,3.715-8.167,8.296
		C47.958,23.026,51.614,26.74,56.125,26.74z M76.541,88.963c4.511,0,8.168-3.714,8.168-8.296s-3.657-8.297-8.168-8.297
		c-4.51,0-8.166,3.715-8.166,8.297S72.031,88.963,76.541,88.963z M21.417,57.852c4.51,0,8.167-3.714,8.167-8.296
		s-3.657-8.296-8.167-8.296c-4.51,0-8.167,3.714-8.167,8.296S16.907,57.852,21.417,57.852z"/>
</g>
</svg>
