<?xml version="1.0" encoding="utf-8"?>
<!-- Generator: Adobe Illustrator 16.0.0, SVG Export Plug-In . SVG Version: 6.00 Build 0)  -->
<!DOCTYPE svg PUBLIC "-//W3C//DTD SVG 1.1//EN" "http://www.w3.org/Graphics/SVG/1.1/DTD/svg11.dtd">
<svg version="1.1" id="Calque_1" xmlns="http://www.w3.org/2000/svg" xmlns:xlink="http://www.w3.org/1999/xlink" x="0px" y="0px"
	 width="100px" height="100px" viewBox="0 0 100 100" enable-background="new 0 0 100 100" xml:space="preserve">
<g>
	<g>
		<path fill="none" stroke="#FFFFFF" stroke-width="3" stroke-linecap="round" stroke-linejoin="round" d="M61.424,25.674
			c0,0,15.203,11.722,34.189,0.259"/>
		<path fill="none" stroke="#FFFFFF" stroke-width="3" stroke-linecap="round" stroke-linejoin="round" d="M4.389,16.001
			c0,0,14.824-23.516,41.955,0.745l2.715,2.356"/>
	</g>
	<path fill="none" stroke="#FFFFFF" stroke-width="3" stroke-miterlimit="10" d="M49.45,2.5c0,0-10.854,0-10.854,16.286
		c0,16.287,8.144,76.001,8.144,76.001S47.281,97.5,49.45,97.5c2.177,0,2.715-2.713,2.715-2.713s8.143-59.714,8.143-76.001
		C60.308,2.5,49.45,2.5,49.45,2.5z M49.45,32.357c-2.996,0-5.426-4.86-5.426-10.857c0-5.997,2.43-10.857,5.426-10.857
		c2.997,0,5.434,4.86,5.434,10.857C54.884,27.498,52.447,32.357,49.45,32.357z"/>
</g>
</svg>
