<?xml version="1.0" encoding="UTF-8" standalone="no"?>
<svg width="269px" height="237px" viewBox="0 0 269 237" version="1.1" xmlns="http://www.w3.org/2000/svg" xmlns:xlink="http://www.w3.org/1999/xlink" xmlns:sketch="http://www.bohemiancoding.com/sketch/ns">
    <!-- Generator: Sketch 3.1.1 (8761) - http://www.bohemiancoding.com/sketch -->
    <title>path4520-9</title>
    <desc>Created with Sketch.</desc>
    <defs></defs>
    <g id="Page-1" stroke="none" stroke-width="1" fill="none" fill-rule="evenodd" sketch:type="MSPage">
        <g id="noun_11757" sketch:type="MSLayerGroup" transform="translate(1.000000, 1.000000)" fill="#FFFFFF">
            <path d="M133.09452,-0.28016092 C131.96356,-0.148931034 130.913,0.362597701 130.11168,1.1714023 L1.11256,130.084678 C-0.83848,132.050448 -0.81972,135.226747 1.15008,137.17377 C2.0854,138.097736 3.345,138.617299 4.66088,138.622655 L31.91112,138.622655 L31.91112,230.312172 C31.91916,233.065322 34.1516,235.29623 36.90932,235.306943 L70.8542,235.306943 L117.53444,235.306943 L149.78824,235.306943 L197.67716,235.306943 L230.41336,235.306943 C233.1684,235.29623 235.40084,233.065322 235.41156,230.312172 L235.41156,138.625333 L262.6618,138.625333 C265.43292,138.614621 267.67072,136.362287 267.66,133.593069 C267.65464,132.278092 267.13472,131.019356 266.21012,130.084678 L234.76568,98.6618161 L234.76568,55.6371609 C234.75764,52.8840115 232.52252,50.6531034 229.76748,50.6423908 L208.48292,50.6423908 C205.72788,50.6531034 203.49544,52.8840115 203.48472,55.6371609 L203.48472,67.3996437 L137.20832,1.1714023 C136.13096,0.0867471264 134.61408,-0.448885057 133.09452,-0.28016092 L133.09452,-0.28016092 Z" id="path4520-9" sketch:type="MSShapeGroup"></path>
        </g>
    </g>
</svg>