<?xml version="1.0" encoding="utf-8"?>
<!-- Generator: Adobe Illustrator 16.0.0, SVG Export Plug-In . SVG Version: 6.00 Build 0)  -->
<!DOCTYPE svg PUBLIC "-//W3C//DTD SVG 1.1//EN" "http://www.w3.org/Graphics/SVG/1.1/DTD/svg11.dtd">
<svg version="1.1" id="Calque_1" xmlns="http://www.w3.org/2000/svg" xmlns:xlink="http://www.w3.org/1999/xlink" x="0px" y="0px"
	 width="100px" height="100px" viewBox="0 0 100 100" enable-background="new 0 0 100 100" xml:space="preserve">
<g>
	<path fill="#FFFFFF" d="M55.582,97.205 M81.041,29.63c3.251-3.928,4.471-8.262,2.981-12.188c-1.49-3.79-5.146-6.227-9.345-6.227
		c-3.387,0-6.637,1.622-9.346,4.468C56.124,8.91,40.415,0.516,25.519,4.034C14.549,6.609,7.101,14.733,6.559,24.621
		c-0.406,8.531,4.47,15.843,12.458,18.553c0.272,0.134,0.543,0.134,0.949,0.134c1.083,0,2.167-0.679,2.572-1.76
		c0.542-1.356-0.27-2.979-1.624-3.387c-5.688-1.896-9.073-7.175-8.803-13.137c0.271-5.956,4.333-13.136,14.762-15.573
		c12.729-2.979,26.813,4.471,35.073,10.565C49.082,35.453,1.278,91.925,0.735,92.468c-0.947,1.081-0.812,2.708,0.137,3.656
		c0.541,0.541,1.218,0.811,1.895,0.811c0.678,0,1.219-0.27,1.761-0.677c0.542-0.541,55.523-47.938,72.315-62.7 M66.146,23.129
		c0.541,0.407,0.948,0.814,1.354,1.219l-0.136,0.137c-1.083,1.082-1.083,2.708,0,3.793c0.541,0.542,1.219,0.812,1.896,0.812
		c0.678,0,1.354-0.271,1.896-0.812l4.197-4.2c1.083-1.082,1.083-2.709,0-3.79c-1.083-1.085-2.708-1.085-3.792,0l-0.136,0.134
		c-0.54-0.404-1.082-0.948-1.623-1.49c1.623-1.489,3.385-2.437,5.146-2.437c1.896,0,3.654,1.085,4.198,2.708
		c0.948,2.303-0.406,5.419-3.522,8.127c-7.583,6.769-29.928,25.999-48.075,41.844C41.769,52.109,59.104,31.526,66.146,23.129z"/>
	<path fill="none" stroke="#FFFFFF" stroke-width="5" stroke-linecap="round" stroke-linejoin="round" stroke-miterlimit="10" d="
		M77.24,30.27c0,0,7.114,15.35,18.849,11.252"/>
</g>
</svg>
