<?xml version="1.0" encoding="utf-8"?>
<!-- Generator: Adobe Illustrator 16.0.0, SVG Export Plug-In . SVG Version: 6.00 Build 0)  -->
<!DOCTYPE svg PUBLIC "-//W3C//DTD SVG 1.1//EN" "http://www.w3.org/Graphics/SVG/1.1/DTD/svg11.dtd">
<svg version="1.1" id="Calque_1" xmlns="http://www.w3.org/2000/svg" xmlns:xlink="http://www.w3.org/1999/xlink" x="0px" y="0px"
	 width="16px" height="16px" viewBox="0 0 100 100" enable-background="new 0 0 100 100" xml:space="preserve">
<g>
	<path fill="#FFFFFF" d="M59.788,51.951l-11.93-6.87c-1.072-0.6-2.43-0.212-3.031,0.861c-0.597,1.073-0.208,2.429,0.865,3.03
		l11.929,6.87c0.342,0.191,0.715,0.282,1.082,0.282c0.779,0,1.539-0.416,1.943-1.145C61.248,53.903,60.862,52.549,59.788,51.951z"/>
	<path fill="#FFFFFF" d="M92.897,71.043l-3.522-11.158c-0.371-1.175-1.624-1.819-2.794-1.452c-1.174,0.368-1.823,1.625-1.452,2.797
		l2.003,6.35l-12.804-7.313l2.235-2.236c7.253-7.314,7.258-16.112,4.846-21.909c-2.528-6.062-7.752-9.831-13.637-9.831
		c-3.248,0-8.037,1.171-13.142,6.418c-5.124-5.288-9.927-6.466-13.188-6.466c-5.487,0-10.398,3.274-13.082,8.627l-6.199-3.453
		l-3.416-10.816c-0.369-1.173-1.623-1.823-2.797-1.453c-1.172,0.371-1.821,1.621-1.453,2.793l1.995,6.319l-1.16-0.648l-3.27-10.351
		c-0.37-1.173-1.62-1.823-2.792-1.453S7.446,17.428,7.816,18.6l2.856,9.045l-9.132,2.961c-1.169,0.38-1.812,1.636-1.432,2.805
		c0.306,0.944,1.18,1.54,2.116,1.54c0.229,0,0.459-0.037,0.688-0.111l10.274-3.326l0.933,0.519L8.22,33.944
		c-1.171,0.381-1.812,1.635-1.433,2.805c0.309,0.944,1.18,1.54,2.12,1.54c0.227,0,0.46-0.031,0.684-0.108l9.841-3.186l7.404,4.124
		c-1.259,5.575-0.268,12.738,5.812,18.862L54.592,80l16.467-16.467l13.658,7.799l-5.87,1.905c-1.17,0.376-1.812,1.633-1.43,2.805
		c0.301,0.939,1.18,1.541,2.114,1.541c0.229,0,0.459-0.038,0.689-0.109l11.232-3.642C92.623,73.452,93.262,72.207,92.897,71.043z
		 M35.813,54.841c-5.713-5.76-5.759-12.585-3.896-17.058c1.82-4.373,5.469-7.09,9.528-7.09c3.645,0,7.415,2.123,10.943,6.147
		L54.218,39l2.113-2.159c3.666-4.398,7.628-6.1,11.444-6.1c4.05,0,7.702,2.717,9.524,7.088c1.861,4.475,1.817,11.305-3.888,17.056
		L54.602,73.692L35.813,54.841z"/>
</g>
</svg>
