<?xml version="1.0" encoding="UTF-8" standalone="no"?>
<svg width="16px" height="23px" viewBox="0 0 42 38" version="1.1" xmlns="http://www.w3.org/2000/svg" xmlns:xlink="http://www.w3.org/1999/xlink" xmlns:sketch="http://www.bohemiancoding.com/sketch/ns">
    <!-- Generator: Sketch 3.1.1 (8761) - http://www.bohemiancoding.com/sketch -->
    <title>noun_5448_cc</title>
    <desc>Created with Sketch.</desc>
    <defs></defs>
    <g id="Page-1" stroke="none" stroke-width="1" fill="none" fill-rule="evenodd" sketch:type="MSPage">
        <g id="noun_5448_cc" sketch:type="MSLayerGroup" transform="translate(1.000000, 0.000000)" fill="#000000">
            <g id="Group" sketch:type="MSShapeGroup">
                <path d="M39.407,21.399 C39.476,21.33 39.539,21.261 39.596,21.193 C39.627,21.156 39.656,21.117 39.686,21.078 C39.701,21.058 39.714,21.041 39.729,21.021 C40.149,20.457 40.399,19.759 40.4,19 C40.399,18.242 40.149,17.545 39.73,16.98 C39.712,16.955 39.693,16.928 39.673,16.904 C39.648,16.874 39.625,16.842 39.598,16.811 C39.539,16.739 39.476,16.667 39.404,16.595 L24.3,1.493 C22.973,0.166 20.821,0.166 19.492,1.493 C18.163,2.82 18.163,4.972 19.492,6.301 L28.791,15.601 L3,15.602 C1.121,15.601 -0.4,17.124 -0.4,19.001 C-0.4,20.878 1.121,22.399 3,22.4 L28.791,22.399 L19.492,31.698 C18.164,33.027 18.164,35.18 19.492,36.509 C20.82,37.836 22.972,37.836 24.3,36.509 L39.403,21.407 C39.403,21.404 39.406,21.403 39.407,21.399 L39.407,21.399 Z" id="Shape"></path>
            </g>
        </g>
    </g>
</svg>