<?xml version="1.0" encoding="utf-8"?>
<!-- Generator: Adobe Illustrator 16.0.0, SVG Export Plug-In . SVG Version: 6.00 Build 0)  -->
<!DOCTYPE svg PUBLIC "-//W3C//DTD SVG 1.1//EN" "http://www.w3.org/Graphics/SVG/1.1/DTD/svg11.dtd">
<svg version="1.1" id="Calque_1" xmlns="http://www.w3.org/2000/svg" xmlns:xlink="http://www.w3.org/1999/xlink" x="0px" y="0px"
	 width="100px" height="100px" viewBox="0 0 100 100" enable-background="new 0 0 100 100" xml:space="preserve">
<g>
	<path fill="#FFFFFF" d="M41.405,6.975c4.749,4.484,5.542,11.869,5.408,15.83l-1.186,16.75h31.788c4.747,0,8.572,3.825,8.572,8.572
		c0,2.374-0.923,4.486-2.504,6.067c2.242,1.584,3.825,4.092,3.825,7.126c0,3.032-1.452,5.537-3.825,7.12
		c1.581,1.583,2.504,3.693,2.504,6.068c0,3.296-1.845,6.199-4.617,7.65c1.322,1.45,1.981,3.43,1.981,5.54
		c0,4.748-3.823,8.574-8.576,8.574H54.069c-17.282,0-24.667-2.902-30.077-5.014c-3.163-1.186-5.405-2.111-8.571-2.111
		c-1.057,0-1.979-0.922-1.979-1.978c0-1.057,0.922-1.979,1.979-1.979c3.955,0,6.728,1.058,10.024,2.374
		c4.883,1.979,11.475,4.484,26.249,4.753c-0.791-1.321-1.319-2.903-1.319-4.486c0-2.771,1.319-5.145,3.297-6.729
		c-1.714-1.581-2.899-3.824-2.899-6.464c0-2.506,1.186-4.88,2.899-6.461c-1.978-1.583-3.297-3.96-3.297-6.728
		c0-2.642,1.189-5.145,3.297-6.729c-1.847-1.582-2.899-3.823-2.899-6.464c0-1.714,0.524-3.297,1.316-4.616h-6.727
		c-0.793,6.465-2.77,8.574-3.165,8.971c-0.792,0.657-2.111,0.657-2.769-0.133c-0.661-0.79-0.661-1.979,0.133-2.771
		c0,0,1.713-1.845,2.109-8.18l1.317-18.726c0-2.641-0.396-9.368-4.221-12.796c-1.718-1.585-3.959-2.378-6.726-2.378v16.488
		c0,0.132,0,0.399-0.133,0.528l-2.64,9.894c0,0.132,0,0.132-0.13,0.262c-0.131,0.529-4.882,12.005-13.192,14.379
		c-1.055,0.267-2.108-0.264-2.505-1.316c0-0.131-0.133-0.398-0.133-0.529c0-0.791,0.529-1.583,1.45-1.846
		c6.069-1.717,10.155-10.949,10.555-12.003l2.636-9.893V5.522l0,0c0-1.057,0.791-1.847,1.848-1.979
		C34.547,3.148,38.503,4.204,41.405,6.975z M58.948,82.817c-2.507,0-4.616,2.112-4.616,4.616c0,2.374,1.849,4.354,4.221,4.485
		h16.224c2.507,0,4.62-2.111,4.62-4.615c0-2.505-2.113-4.616-4.62-4.616H59.345h-0.396V82.817z M54.729,74.378
		c0,2.504,2.11,4.616,4.616,4.616h18.071c2.505,0,4.616-2.112,4.616-4.616c0-2.506-2.111-4.618-4.616-4.618h-18.73
		C56.441,70.023,54.729,72.004,54.729,74.378z M54.465,61.184c0,2.508,2.109,4.619,4.616,4.619h19.654
		c2.506,0,4.617-2.111,4.617-4.619c0-2.504-2.111-4.615-4.617-4.615H58.42C56.05,56.966,54.465,58.943,54.465,61.184z
		 M54.729,47.997c0,2.504,2.11,4.616,4.616,4.616h18.071c2.505,0,4.616-2.112,4.616-4.616c0-2.507-2.111-4.617-4.616-4.617H58.553
		C56.311,43.773,54.729,45.753,54.729,47.997z"/>
</g>
</svg>
