<?xml version="1.0" encoding="UTF-8" standalone="no"?>
<svg width="172px" height="166px" viewBox="0 0 172 166" version="1.1" xmlns="http://www.w3.org/2000/svg" xmlns:xlink="http://www.w3.org/1999/xlink" xmlns:sketch="http://www.bohemiancoding.com/sketch/ns">
    <!-- Generator: Sketch 3.1.1 (8761) - http://www.bohemiancoding.com/sketch -->
    <title>noun_44213_cc</title>
    <desc>Created with Sketch.</desc>
    <defs></defs>
    <g id="Page-1" stroke="none" stroke-width="1" fill="none" fill-rule="evenodd" sketch:type="MSPage">
        <g id="noun_44213_cc" sketch:type="MSLayerGroup" transform="translate(1.000000, 1.000000)" fill="#FFFFFF">
            <path d="M168.603693,144.46167 C166.619034,142.610202 164.499148,140.60345 162.273864,138.501138 C143.505114,120.746954 126.66733,105.479312 114.073295,100.394743 C121.848864,89.8752202 126.458523,76.8751284 126.458523,62.8119358 C126.458523,27.9028073 98.0886364,-0.498311927 63.2198864,-0.498311927 C28.3471591,-0.496321101 -0.0227272727,27.9047982 -0.0227272727,62.8139266 C-0.0227272727,97.723055 28.3471591,126.124174 63.2178977,126.124174 C78.3017045,126.124174 92.1625,120.802697 103.046307,111.947505 C112.746875,130.800624 131.179545,145.725844 145.000568,156.87845 C147.575852,158.958862 150.021875,160.933761 152.26108,162.809119 C153.404545,163.768697 154.719034,164.238532 156.148864,164.238532 C159.11392,164.238532 162.568182,162.211872 165.992614,158.329761 C170.934375,152.73355 171.910795,147.54745 168.603693,144.46167 L168.603693,144.46167 Z M8.89630682,62.8139266 C8.89630682,32.8281101 33.2650568,8.43253211 63.2178977,8.43253211 C93.1707386,8.43253211 117.539489,32.8281101 117.539489,62.8139266 C117.539489,92.7997431 93.1707386,117.195321 63.2178977,117.195321 C33.2650568,117.195321 8.89630682,92.7997431 8.89630682,62.8139266 L8.89630682,62.8139266 Z M156.669886,154.867716 C154.760795,153.288991 152.722443,151.644569 150.596591,149.928477 C136.972443,138.929165 120.36733,125.518963 111.478125,108.909505 C123.53125,114.139404 143.487216,133.016413 156.148864,144.99322 C157.914773,146.663523 159.617045,148.27211 161.237784,149.793101 C160.35483,151.43155 158.19517,153.832486 156.669886,154.867716 L156.669886,154.867716 Z" id="Shape" sketch:type="MSShapeGroup"></path>
        </g>
    </g>
</svg>