<?xml version="1.0" encoding="utf-8"?>
<!-- Generator: Adobe Illustrator 16.0.0, SVG Export Plug-In . SVG Version: 6.00 Build 0)  -->
<!DOCTYPE svg PUBLIC "-//W3C//DTD SVG 1.1//EN" "http://www.w3.org/Graphics/SVG/1.1/DTD/svg11.dtd">
<svg version="1.1" id="Calque_1" xmlns="http://www.w3.org/2000/svg" xmlns:xlink="http://www.w3.org/1999/xlink" x="0px" y="0px"
	 width="11px" height="41px" viewBox="0 0 11 41" enable-background="new 0 0 11 41" xml:space="preserve">
<path fill="#E75931" stroke="#A32D16" stroke-width="0.5" stroke-miterlimit="10" d="M5.5,0.5c0,0-4.571,0-4.571,6.857
	c0,6.856,3.428,32,3.428,32S4.586,40.5,5.5,40.5s1.143-1.143,1.143-1.143s3.428-25.144,3.428-32C10.071,0.5,5.5,0.5,5.5,0.5z
	 M5.5,12.5c-1.105,0-2-1.791-2-4c0-2.21,0.895-4,2-4c1.104,0,2,1.79,2,4C7.5,10.709,6.604,12.5,5.5,12.5z"/>
<ellipse fill="#333333" cx="5.5" cy="8.5" rx="2" ry="4"/>
</svg>
