<?xml version="1.0" encoding="utf-8"?>
<!-- Generator: Adobe Illustrator 16.0.0, SVG Export Plug-In . SVG Version: 6.00 Build 0)  -->
<!DOCTYPE svg PUBLIC "-//W3C//DTD SVG 1.1//EN" "http://www.w3.org/Graphics/SVG/1.1/DTD/svg11.dtd">
<svg version="1.1" id="Calque_1" xmlns="http://www.w3.org/2000/svg" xmlns:xlink="http://www.w3.org/1999/xlink" x="0px" y="0px"
	 width="10px" height="62px" viewBox="0 0 15 62" enable-background="new 0 0 15 62" xml:space="preserve">
<path fill="#333333" d="M7.5,0.359c0,0-7,0-7,10.502c0,10.501,5.249,49.012,5.249,49.012S6.1,61.624,7.5,61.624
	c1.4,0,1.751-1.751,1.751-1.751S14.5,21.363,14.5,10.861C14.5,0.359,7.5,0.359,7.5,0.359z M7.5,19.612c-1.934,0-3.502-3.131-3.502-7
	s1.568-7,3.502-7c1.935,0,3.502,3.131,3.502,7S9.435,19.612,7.5,19.612z"/>
</svg>
