<?xml version="1.0" encoding="utf-8"?>
<!-- Generator: Adobe Illustrator 16.0.0, SVG Export Plug-In . SVG Version: 6.00 Build 0)  -->
<!DOCTYPE svg PUBLIC "-//W3C//DTD SVG 1.1//EN" "http://www.w3.org/Graphics/SVG/1.1/DTD/svg11.dtd">
<svg version="1.1" id="Calque_1" xmlns="http://www.w3.org/2000/svg" xmlns:xlink="http://www.w3.org/1999/xlink" x="0px" y="0px"
	 width="28.346px" height="40.989px" viewBox="0 0 28.346 40.989" enable-background="new 0 0 28.346 40.989" xml:space="preserve">
<ellipse opacity="0.6" fill="#FFFFFF" cx="14.173" cy="8.5" rx="2" ry="4"/>
<path fill="#5A5A5A" stroke="#260300" stroke-width="0.5" stroke-miterlimit="10" d="M14.174,0.5c0,0-4.571,0-4.571,6.857
	c0,6.856,3.428,32,3.428,32S13.26,40.5,14.174,40.5s1.143-1.144,1.143-1.144s3.428-25.145,3.428-32
	C18.743,0.5,14.174,0.5,14.174,0.5z M14.174,12.5c-1.105,0-2-1.791-2-4c0-2.21,0.895-4,2-4c1.104,0,2,1.79,2,4
	C16.174,10.709,15.278,12.5,14.174,12.5z"/>
<ellipse fill="none" cx="5.5" cy="8.5" rx="2" ry="4"/>
</svg>
