<?xml version="1.0" encoding="UTF-8" standalone="no"?>
<svg width="263px" height="301px" viewBox="0 0 263 301" version="1.1" xmlns="http://www.w3.org/2000/svg" xmlns:xlink="http://www.w3.org/1999/xlink" xmlns:sketch="http://www.bohemiancoding.com/sketch/ns">
    <!-- Generator: Sketch 3.1.1 (8761) - http://www.bohemiancoding.com/sketch -->
    <title>new restaurant orange</title>
    <desc>Created with Sketch.</desc>
    <defs></defs>
    <g id="Page-1" stroke="none" stroke-width="1" fill="none" fill-rule="evenodd" sketch:type="MSPage">
        <g id="new-restaurant-orange" sketch:type="MSLayerGroup" fill="#FFFFFF">
            <g id="Page-1" sketch:type="MSShapeGroup">
                <g id="noun_5149_cc">
                    <path d="M210.040833,44.7914032 C161.97125,-3.1895726 84.2975,-2.7994597 36.225,45.1815161 C-11.8475,93.162492 -12.18875,170.864831 35.88375,213.931548 L122.739167,300.129032 L209.78125,213.247395 C257.850833,170.183589 258.11625,92.77529 210.040833,44.7914032 L210.040833,44.7914032 L210.040833,44.7914032 Z M151.20875,198.568669 L151.20875,166.497895 L156.840833,166.497895 C159.142083,140.296282 160.244583,122.98575 160.154167,117.381516 C160.06375,100.123387 156.52,87.683444 149.7125,80.7079919 C146.950417,77.7675887 142.461667,75.6598145 139.545,75.0164194 L139.545,165.141234 L139.545,202.69979 C133.711667,204.231129 127.682917,205.052113 121.2575,205.052113 C117.45125,205.052113 116.211667,204.763895 110.378333,204.21075 L110.378333,144.287661 C110.378333,141.533581 113.5225,138.296226 118.302917,134.578508 C123.083333,130.86079 126.084583,126.109565 126.084583,120.324831 C126.084583,104.624242 124.95875,89.130355 116.20875,75.0164194 L116.20875,114.094669 L110.375417,114.094669 L110.375417,76.2478952 L101.625417,76.2478952 L101.625417,114.094669 L95.7920833,114.094669 L95.7920833,75.0164194 C89.95875,88.222032 85.5545833,104.624242 85.5545833,120.324831 C85.5545833,126.109565 87.35125,130.86079 92.1316667,134.578508 C96.9120833,138.296226 98.70875,141.533581 98.70875,144.287661 L98.70875,201.427556 C69.5420833,191.791185 48.29125,163.973806 48.29125,131.134452 C48.29125,90.312339 81.8066667,57.2167903 122.707083,57.2167903 C163.601667,57.2167903 195.848333,90.312339 195.848333,131.134452 C195.85125,161.170234 177.45875,186.999202 151.20875,198.568669 L151.20875,198.568669 L151.20875,198.568669 Z" id="Shape"></path>
                    <g id="noun_6155_cc" transform="translate(215.000000, 0.000000)">
                        <path d="M43.8851775,20.3846775 L27.6153225,20.3846775 L27.6153225,4.11482249 C27.6153225,2.11826064 25.9965618,0.4995 24,0.4995 C22.0034382,0.4995 20.3846775,2.11826064 20.3846775,4.11482249 L20.3846775,20.3846775 L4.11482249,20.3846775 C2.11826064,20.3846775 0.4995,22.0034382 0.4995,24 C0.4995,25.9965618 2.11826064,27.6153225 4.11482249,27.6153225 L20.3846775,27.6153225 L20.3846775,43.8851775 C20.3846775,45.8817394 22.0034382,47.5005 24,47.5005 C25.9965618,47.5005 27.6153225,45.8817394 27.6153225,43.8851775 L27.6153225,27.6153225 L43.8851775,27.6153225 C45.8817394,27.6153225 47.5005,25.9965618 47.5005,24 C47.5005,22.0034382 45.8817394,20.3846775 43.8851775,20.3846775 L43.8851775,20.3846775 Z" id="Shape"></path>
                    </g>
                </g>
            </g>
        </g>
    </g>
</svg>