<?xml version="1.0" encoding="utf-8"?>
<!-- Generator: Adobe Illustrator 16.0.0, SVG Export Plug-In . SVG Version: 6.00 Build 0)  -->
<!DOCTYPE svg PUBLIC "-//W3C//DTD SVG 1.1//EN" "http://www.w3.org/Graphics/SVG/1.1/DTD/svg11.dtd">
<svg version="1.1" id="Calque_1" xmlns="http://www.w3.org/2000/svg" xmlns:xlink="http://www.w3.org/1999/xlink" x="0px" y="0px"
	 width="100px" height="100px" viewBox="0 0 100 100" enable-background="new 0 0 100 100" xml:space="preserve">
<path fill="#EF582D" d="M90.693,41.771H60.254V9.054c0-4.585-4.525-8.304-9.116-8.304c-4.586,0-9.117,3.719-9.117,8.304v32.717
	H9.304C4.722,41.771,1,46.302,1,50.888c0,4.591,3.722,9.116,8.304,9.116h32.717v30.439c0,4.588,4.531,8.307,9.117,8.307
	c4.591,0,9.116-3.719,9.116-8.307V60.004h30.439c4.588,0,8.307-4.525,8.307-9.116C99,46.302,95.281,41.771,90.693,41.771z"/>
</svg>
