<?xml version="1.0" encoding="UTF-8" standalone="no"?>
<svg width="241px" height="204px" viewBox="0 0 241 204" version="1.1" xmlns="http://www.w3.org/2000/svg" xmlns:xlink="http://www.w3.org/1999/xlink" xmlns:sketch="http://www.bohemiancoding.com/sketch/ns">
    <!-- Generator: Sketch 3.1.1 (8761) - http://www.bohemiancoding.com/sketch -->
    <title>new friend orange</title>
    <desc>Created with Sketch.</desc>
    <defs></defs>
    <g id="Page-1" stroke="none" stroke-width="1" fill="none" fill-rule="evenodd" sketch:type="MSPage">
        <g id="new-friend-orange" sketch:type="MSLayerGroup" transform="translate(1.000000, 0.000000)" fill="#FFFFFF">
            <g id="Page-1" sketch:type="MSShapeGroup">
                <g id="noun_16570_cc">
                    <g id="Group" transform="translate(0.072165, 17.000000)">
                        <g id="Shape" transform="translate(105.515464, 36.482759)">
                            <path d="M103.472948,36.2557759 C103.472948,56.2046897 87.2927423,83.7342414 67.3337732,83.7342414 C47.3748041,83.7342414 31.1920619,56.2046897 31.1920619,36.2557759 C31.1920619,16.3068621 47.372268,0.136862069 67.3337732,0.136862069 C87.2952784,0.136862069 103.472948,16.3093966 103.472948,36.2557759 L103.472948,36.2557759 L103.472948,36.2557759 Z"></path>
                            <path d="M94.6549897,73.872569 C87.3612165,83.2349483 77.8027216,89.8524828 67.3337732,89.8524828 C56.8622887,89.8524828 47.3063299,83.2349483 40.0100206,73.872569 C16.6932784,83.3895517 0.442061856,103.214276 0.442061856,116.718 C0.442061856,135.057517 30.3906598,149.924793 67.3312371,149.924793 C104.271814,149.924793 134.220412,135.057517 134.220412,116.718 C134.222948,103.214276 117.974268,83.3895517 94.6549897,73.872569 L94.6549897,73.872569 L94.6549897,73.872569 Z"></path>
                        </g>
                        <g id="Shape">
                            <path d="M128.082309,44.7629138 C128.082309,69.6211207 107.920454,103.927879 83.0465567,103.927879 C58.1726598,103.927879 38.0108041,69.6211207 38.0108041,44.7629138 C38.0108041,19.9047069 58.1726598,-0.244431034 83.0465567,-0.244431034 C107.920454,-0.244431034 128.082309,19.9047069 128.082309,44.7629138 L128.082309,44.7629138 L128.082309,44.7629138 Z"></path>
                            <path d="M98.0779175,153.768483 C98.0779175,138.78969 115.972515,116.871483 141.70868,106.140483 C134.627938,100.455638 126.309588,95.3993448 117.093464,91.6381724 C108.00668,103.304397 96.094701,111.551603 83.0465567,111.551603 C69.9958763,111.551603 58.0889691,103.304397 48.9996495,91.6381724 C19.9437526,103.497017 -0.306865979,128.200621 -0.306865979,145.029586 C-0.306865979,167.883017 37.0115876,186.407552 83.0465567,186.407552 C97.4794021,186.407552 111.052515,184.585259 122.890948,181.381672 C107.661773,174.586724 98.0779175,164.73519 98.0779175,153.768483 L98.0779175,153.768483 L98.0779175,153.768483 Z"></path>
                        </g>
                    </g>
                    <g id="noun_6155_cc" transform="translate(189.000000, 0.000000)">
                        <path d="M43.8851775,20.3846775 L27.6153225,20.3846775 L27.6153225,4.11482249 C27.6153225,2.11826064 25.9965618,0.4995 24,0.4995 C22.0034382,0.4995 20.3846775,2.11826064 20.3846775,4.11482249 L20.3846775,20.3846775 L4.11482249,20.3846775 C2.11826064,20.3846775 0.4995,22.0034382 0.4995,24 C0.4995,25.9965618 2.11826064,27.6153225 4.11482249,27.6153225 L20.3846775,27.6153225 L20.3846775,43.8851775 C20.3846775,45.8817394 22.0034382,47.5005 24,47.5005 C25.9965618,47.5005 27.6153225,45.8817394 27.6153225,43.8851775 L27.6153225,27.6153225 L43.8851775,27.6153225 C45.8817394,27.6153225 47.5005,25.9965618 47.5005,24 C47.5005,22.0034382 45.8817394,20.3846775 43.8851775,20.3846775 L43.8851775,20.3846775 Z" id="Shape"></path>
                    </g>
                </g>
            </g>
        </g>
    </g>
</svg>