<?xml version="1.0" encoding="UTF-8" standalone="no"?>
<svg width="121px" height="118px" viewBox="0 0 121 118" version="1.1" xmlns="http://www.w3.org/2000/svg" xmlns:xlink="http://www.w3.org/1999/xlink" xmlns:sketch="http://www.bohemiancoding.com/sketch/ns">
    <!-- Generator: Sketch 3.1.1 (8761) - http://www.bohemiancoding.com/sketch -->
    <title>new-restaurant-white</title>
    <desc>Created with Sketch.</desc>
    <defs></defs>
    <g id="Page-1" stroke="none" stroke-width="1" fill="none" fill-rule="evenodd" sketch:type="MSPage">
        <g id="new-restaurant-white" sketch:type="MSLayerGroup" transform="translate(0.000000, 1.000000)" fill="#FFFFFF">
            <g id="Page-1" sketch:type="MSShapeGroup">
                <g id="new-restaurant-orange">
                    <g id="Page-1">
                        <g id="noun_5149_cc">
                            <path d="M79.8634346,20.0207332 C61.5860266,1.78796241 32.0522814,1.93620531 13.7737643,20.1689761 C-4.50475285,38.401747 -4.6345057,67.9286358 13.6440114,84.2939882 L46.6688848,117.049032 L79.7647338,84.0340101 C98.0421418,67.6697638 98.1430608,38.2546102 79.8634346,20.0207332 L79.8634346,20.0207332 L79.8634346,20.0207332 Z M57.4938213,78.4560942 L57.4938213,66.2692001 L59.6352977,66.2692001 C60.5102977,56.3125872 60.9294992,49.734585 60.8951205,47.6049761 C60.8607414,41.0468871 59.513308,36.3197087 56.9249049,33.6690369 C55.8746833,32.5516837 54.1679342,31.7507295 53.0589354,31.5062394 L53.0589354,65.7536689 L53.0589354,80.0259202 C50.840938,80.607829 48.5486376,80.9198029 46.1055133,80.9198029 C44.65827,80.9198029 44.1869456,80.8102801 41.9689479,80.600085 L41.9689479,57.8293112 C41.9689479,56.7827608 43.1644487,55.5525659 44.9820977,54.139833 C46.7997464,52.7271002 47.9409061,50.9216347 47.9409061,48.7234358 C47.9409061,42.757212 47.5128327,36.8695349 44.1858365,31.5062394 L44.1858365,46.3559742 L41.9678392,46.3559742 L41.9678392,31.9742002 L38.640843,31.9742002 L38.640843,46.3559742 L36.4228454,46.3559742 L36.4228454,31.5062394 C34.2048479,36.5243722 32.5302598,42.757212 32.5302598,48.7234358 C32.5302598,50.9216347 33.213403,52.7271002 35.031052,54.139833 C36.8487009,55.5525659 37.5318441,56.7827608 37.5318441,57.8293112 L37.5318441,79.5424713 C26.4418568,75.8806503 18.361692,65.3100463 18.361692,52.8310918 C18.361692,37.3186888 31.1051965,24.7423803 46.6566856,24.7423803 C62.205957,24.7423803 74.4670468,37.3186888 74.4670468,52.8310918 C74.4681559,64.2446889 67.4748099,74.0596968 57.4938213,78.4560942 L57.4938213,78.4560942 L57.4938213,78.4560942 Z" id="Shape"></path>
                            <g id="noun_6155_cc" transform="translate(93.749049, 0.000000)">
                                <path d="M24.7654285,10.1814171 L15.6508293,10.1814171 L15.6508293,1.45730919 C15.6508293,0.386726759 14.743977,-0.48127375 13.6254753,-0.48127375 C12.5069736,-0.48127375 11.6001213,0.386726759 11.6001213,1.45730919 L11.6001213,10.1814171 L2.48552208,10.1814171 C1.36702034,10.1814171 0.460168098,11.0494176 0.460168098,12.12 C0.460168098,13.1905824 1.36702034,14.0585829 2.48552208,14.0585829 L11.6001213,14.0585829 L11.6001213,22.7826908 C11.6001213,23.8532733 12.5069736,24.7212738 13.6254753,24.7212738 C14.743977,24.7212738 15.6508293,23.8532733 15.6508293,22.7826908 L15.6508293,14.0585829 L24.7654285,14.0585829 C25.8839303,14.0585829 26.7907825,13.1905824 26.7907825,12.12 C26.7907825,11.0494176 25.8839303,10.1814171 24.7654285,10.1814171 L24.7654285,10.1814171 L24.7654285,10.1814171 Z" id="Shape"></path>
                            </g>
                        </g>
                    </g>
                </g>
            </g>
        </g>
    </g>
</svg>