<?xml version="1.0" encoding="utf-8"?>
<!-- Generator: Adobe Illustrator 16.0.0, SVG Export Plug-In . SVG Version: 6.00 Build 0)  -->
<!DOCTYPE svg PUBLIC "-//W3C//DTD SVG 1.1//EN" "http://www.w3.org/Graphics/SVG/1.1/DTD/svg11.dtd">
<svg version="1.1" id="Calque_1" xmlns="http://www.w3.org/2000/svg" xmlns:xlink="http://www.w3.org/1999/xlink" x="0px" y="0px"
	 width="100px" height="100px" viewBox="0 0 100 100" enable-background="new 0 0 100 100" xml:space="preserve">
<g>
	<g>
		<path fill="#FFFFFF" d="M31.833,8.039c7.975,0,14.463,6.489,14.463,14.465c0,7.977-6.488,14.467-14.463,14.467
			c-7.976,0-14.464-6.489-14.464-14.465C17.369,14.529,23.858,8.039,31.833,8.039 M31.833,3.039
			c-10.742,0-19.464,8.719-19.464,19.467s8.722,19.465,19.464,19.465c10.743,0,19.463-8.719,19.463-19.467
			S42.578,3.039,31.833,3.039L31.833,3.039z"/>
	</g>
	<g>
		<path fill="#FFFFFF" d="M31.834,50.742c8.153,0,15.784,4.657,20.938,12.777c0.799,1.259,2.118,2.095,3.597,2.281
			c0.209,0.026,0.418,0.039,0.625,0.039c1.266,0,2.492-0.48,3.426-1.357c3.765-3.541,8.208-5.412,12.85-5.412
			C85.252,59.07,95,71.491,95,86.758c0,3.475-2.062,5.896-3.911,5.896H55.451c-0.043,0-0.146-0.005-0.359-0.039
			c-0.258-0.04-0.519-0.061-0.778-0.061c-0.234,0-0.47,0.017-0.702,0.05c-0.229,0.032-0.409,0.048-0.553,0.048H10.613
			C7.57,92.652,5,89,5,84.676C5,65.965,17.038,50.742,31.834,50.742 M31.834,45.742C14.26,45.742,0,63.182,0,84.676
			c0,7.174,4.748,12.977,10.613,12.977h42.446c0.426,0,0.842-0.039,1.255-0.098c0.372,0.059,0.751,0.1,1.138,0.1h35.638
			c4.925,0,8.911-4.873,8.911-10.896c0-18.047-11.973-32.688-26.73-32.688c-6.125,0-11.767,2.529-16.275,6.77
			C51.169,51.662,42.067,45.742,31.834,45.742L31.834,45.742z"/>
	</g>
	<g>
		<path fill="#FFFFFF" d="M73.27,23.215c6.254,0,11.342,5.09,11.342,11.346c0,6.255-5.088,11.344-11.342,11.344
			c-6.253,0-11.34-5.089-11.34-11.344C61.93,28.305,67.017,23.215,73.27,23.215 M73.27,18.215c-9.02,0-16.34,7.322-16.34,16.346
			c0,9.021,7.318,16.344,16.34,16.344s16.342-7.322,16.342-16.344C89.611,25.537,82.289,18.215,73.27,18.215L73.27,18.215z"/>
	</g>
</g>
</svg>
