<?xml version="1.0" encoding="utf-8"?>
<!-- Generator: Adobe Illustrator 16.0.0, SVG Export Plug-In . SVG Version: 6.00 Build 0)  -->
<!DOCTYPE svg PUBLIC "-//W3C//DTD SVG 1.1//EN" "http://www.w3.org/Graphics/SVG/1.1/DTD/svg11.dtd">
<svg version="1.1" id="Calque_1" xmlns="http://www.w3.org/2000/svg" xmlns:xlink="http://www.w3.org/1999/xlink" x="0px" y="0px"
	 width="100px" height="100px" viewBox="0 0 100 100" enable-background="new 0 0 100 100" xml:space="preserve">
<g>
	<g>
		<path fill="#FFFFFF" d="M85.621,71.787c-3.393-4.162-8.017-9.865-8.017-15.879V37.1c0-16.342-12.181-29.6-27.751-29.6
			c-15.571,0-27.596,13.258-27.596,29.6v18.964c0,5.858-5.087,11.407-8.17,15.568C11.158,75.488,9,78.571,10.542,81.5
			c1.387,2.622,4.779,3.083,7.554,3.083h16.649c0,8.479,6.938,15.417,15.417,15.417c8.478,0,15.416-6.938,15.416-15.417h16.959
			c1.695,0,5.858,0,7.245-2.929C91.17,78.571,88.857,75.641,85.621,71.787z M50.014,94.757c-5.67,0-10.174-4.502-10.174-10.174
			h20.182C60.021,90.086,55.519,94.757,50.014,94.757z M83.311,79.342H17.027c-0.475,0-0.793,0-1.11,0
			c0.635-0.952,1.586-2.22,2.219-3.172c3.647-4.915,9.674-11.734,9.674-19.822V36.845c0-13.319,9.514-24.102,22.042-24.102
			c12.527,0,22.2,10.782,22.2,24.102v19.503c0,8.405,5.55,15.383,9.673,20.298c0.633,0.794,1.586,1.904,2.22,2.696
			C83.785,79.342,83.469,79.342,83.311,79.342z"/>
	</g>
	<g>
		<path fill="#FFFFFF" d="M52.5,3c0-1.65-1.125-3-2.5-3s-2.5,1.35-2.5,3v4c0,1.65,1.125,3,2.5,3s2.5-1.35,2.5-3V3z"/>
	</g>
</g>
</svg>
