<?xml version="1.0" encoding="UTF-8" standalone="no"?>
<svg width="125px" height="156px" viewBox="0 0 125 156" version="1.1" xmlns="http://www.w3.org/2000/svg" xmlns:xlink="http://www.w3.org/1999/xlink" xmlns:sketch="http://www.bohemiancoding.com/sketch/ns">
    <!-- Generator: Sketch 3.1.1 (8761) - http://www.bohemiancoding.com/sketch -->
    <title>noun_44644_cc</title>
    <desc>Created with Sketch.</desc>
    <defs></defs>
    <g id="Page-1" stroke="none" stroke-width="1" fill="none" fill-rule="evenodd" sketch:type="MSPage">
        <g id="noun_44644_cc" sketch:type="MSLayerGroup" transform="translate(0.000000, 1.000000)">
            <path d="M19.02,61 C19.02,37.252 38.272,18 62.02,18 C85.768,18 105.02,37.252 105.02,61 C105.02,130 124.016,127 124.016,127 L124.016,140 L81.105,140 L50.772,140 L0.024,140 L0.024,127 C0.023,127 19.02,130 19.02,61" id="Shape" fill="#FFFFFF" sketch:type="MSShapeGroup"></path>
            <circle id="Oval" stroke="#FFFFFF" stroke-width="9" sketch:type="MSShapeGroup" cx="61.542" cy="139.542" r="10.542"></circle>
            <path d="M61.27,14 C60.084,12.819 59.189,11.639 58.27,10.458 L57.033,8.687 C56.667,8.097 56.336,7.506 56.02,6.916 C55.708,6.326 55.098,5.735 54.595,5.145 C54.114,4.555 54.063,3.964 54.52,3.374 C54.946,2.784 55.706,2.193 56.745,1.603 C57.03,1.455 57.251,1.308 57.589,1.16 L58.598,0.717 L59.853,0.275 L60.486,0.053 L61.271,-0.168 L62.771,-0.168 L63.556,0.053 L64.189,0.275 L65.444,0.717 L66.453,1.16 C66.791,1.307 67.012,1.455 67.297,1.603 C68.336,2.193 69.096,2.783 69.522,3.374 C69.979,3.964 69.928,4.555 69.447,5.145 C68.944,5.735 68.335,6.326 68.022,6.916 C67.707,7.506 67.376,8.096 67.009,8.687 L65.772,10.458 C64.853,11.638 63.958,12.819 62.772,14 L61.27,14 L61.27,14 Z" id="Shape" fill="#FFFFFF" sketch:type="MSShapeGroup"></path>
        </g>
    </g>
</svg>