<?xml version="1.0" encoding="UTF-8" standalone="no"?>
<svg width="100px" height="97px" viewBox="0 0 100 97" version="1.1" xmlns="http://www.w3.org/2000/svg" xmlns:xlink="http://www.w3.org/1999/xlink" xmlns:sketch="http://www.bohemiancoding.com/sketch/ns">
    <!-- Generator: Sketch 3.1.1 (8761) - http://www.bohemiancoding.com/sketch -->
    <title>Nourriture</title>
    <desc>Created with Sketch.</desc>
    <defs></defs>
    <g id="Page-1" stroke="none" stroke-width="1" fill="none" fill-rule="evenodd" sketch:type="MSPage">
        <g id="Nourriture" sketch:type="MSLayerGroup" fill="#010101">
            <path d="M80.989,6.423 C62.306,-4.253 44.597,1.167 39.613,3.083 C34.616,5.007 30.341,9.138 28.699,10.864 C28.015,10.506 27.197,10.143 26.2,9.786 C21.176,7.988 14.274,9.485 9.028,13.51 C5.254,16.405 -0.923,23.161 0.116,35.884 C1.163,48.719 8.662,54.924 14.383,57.82 C14.196,58.075 14.083,58.386 14.083,58.726 L14.083,76.17 L14.083,76.171 L11.329,76.171 C10.479,76.171 9.789,76.86 9.789,77.71 L9.789,77.711 L9.789,77.713 L9.786,95.061 C9.786,95.911 10.475,96.6 11.325,96.6 L11.325,96.6 L11.326,96.6 L11.327,96.6 L86.425,96.603 C87.275,96.603 87.964,95.914 87.964,95.064 C87.964,94.992 87.951,94.923 87.943,94.853 C87.952,94.783 87.964,94.713 87.964,94.641 L87.964,78.223 C87.964,78.135 87.951,78.051 87.938,77.968 C87.952,77.885 87.964,77.801 87.964,77.713 C87.964,76.863 87.275,76.174 86.425,76.174 L17.159,76.171 L17.159,76.17 L17.159,59.053 C19.405,59.907 20.965,60.175 21.019,60.183 C21.087,60.194 21.155,60.199 21.222,60.199 C21.842,60.199 22.387,59.75 22.487,59.118 C22.598,58.419 22.122,57.762 21.423,57.65 C21.251,57.623 4.223,54.694 2.671,35.675 C1.732,24.164 7.228,18.122 10.587,15.545 C15.099,12.085 21.165,10.711 25.336,12.203 C28.737,13.418 29.425,14.536 29.498,14.671 C29.686,15.299 30.325,15.691 30.98,15.557 C31.674,15.417 32.124,14.74 31.983,14.046 C31.926,13.765 31.702,13.123 30.853,12.331 C32.538,10.61 36.316,7.102 40.533,5.478 C45.25,3.664 62.014,-1.465 79.715,8.651 C98.722,19.515 97.552,35.229 97.357,36.985 L97.329,37.234 C96.953,40.644 95.954,49.7 89.465,53.609 C84.975,56.313 78.571,56.167 70.427,53.185 C71.156,52.517 71.887,51.807 72.621,51.005 C73.1,50.483 73.064,49.671 72.541,49.193 C72.02,48.715 71.207,48.751 70.729,49.273 C66.911,53.442 63.317,55.561 60.043,55.571 L60.022,55.571 C56.121,55.571 53.305,52.531 51.622,50.715 C51.324,50.393 51.059,50.106 50.825,49.874 C50.324,49.375 49.512,49.377 49.011,49.88 C48.512,50.382 48.514,51.194 49.017,51.693 C49.228,51.904 49.469,52.165 49.741,52.457 C51.58,54.443 55,58.137 60.023,58.137 L60.051,58.137 C62.673,58.128 65.383,57.087 68.152,55.068 C72.84,56.919 77.056,57.913 80.783,58.067 L80.783,76.17 L83.862,76.17 L83.862,57.993 C86.457,57.744 88.774,57.021 90.789,55.807 C98.365,51.244 99.467,41.269 99.881,37.515 L99.907,37.269 C100.122,35.342 101.419,18.1 80.989,6.423 L80.989,6.423 Z M84.887,93.525 L41.789,93.523 L41.789,79.251 L84.887,79.253 L84.887,93.525 L84.887,93.525 Z M38.71,93.523 L33.58,93.523 L33.58,79.251 L38.711,79.251 L38.711,93.523 L38.71,93.523 Z M30.501,93.523 L25.371,93.523 L25.371,79.251 L30.501,79.251 L30.501,93.523 L30.501,93.523 Z M22.292,93.522 L12.865,93.522 L12.867,79.251 L22.292,79.251 L22.292,93.522 L22.292,93.522 Z" id="Shape" sketch:type="MSShapeGroup"></path>
        </g>
    </g>
</svg>