<?xml version="1.0" encoding="UTF-8" standalone="no"?>
<svg width="84px" height="84px" viewBox="0 0 84 84" version="1.1" xmlns="http://www.w3.org/2000/svg" xmlns:xlink="http://www.w3.org/1999/xlink" xmlns:sketch="http://www.bohemiancoding.com/sketch/ns">
    <!-- Generator: Sketch 3.1.1 (8761) - http://www.bohemiancoding.com/sketch -->
    <title>noun_70960_cc</title>
    <desc>Created with Sketch.</desc>
    <defs></defs>
    <g id="Page-1" stroke="none" stroke-width="1" fill="none" fill-rule="evenodd" sketch:type="MSPage">
        <g id="noun_70960_cc" sketch:type="MSLayerGroup" fill="#000000">
            <path d="M53.418,53.255 C50.576,55.888 46.875,57.338 42.997,57.338 C36.668,57.338 31.223,53.484 28.883,48 L46,48 C47.104,48 48,47.104 48,46 C48,44.896 47.104,44 46,44 L27.805,44 C27.719,43.344 27.659,42.679 27.659,42 C27.659,41.663 27.688,41.332 27.71,41 L46,41 C47.104,41 48,40.104 48,39 C48,37.896 47.104,37 46,37 L28.513,37 C30.593,30.993 36.293,26.662 42.998,26.662 C46.872,26.662 50.57,28.11 53.411,30.738 C54.222,31.488 55.487,31.438 56.238,30.628 C56.988,29.817 56.939,28.552 56.128,27.801 C52.545,24.487 47.882,22.661 42.999,22.661 C34.067,22.661 26.552,28.756 24.34,36.999 L21,36.999 C19.896,36.999 19,37.895 19,38.999 C19,40.103 19.896,40.999 21,40.999 L23.71,40.999 C23.693,41.332 23.659,41.662 23.659,41.999 C23.659,42.674 23.695,43.341 23.763,43.999 L21,43.999 C19.896,43.999 19,44.895 19,45.999 C19,47.103 19.896,47.999 21,47.999 L24.624,47.999 C27.156,55.732 34.43,61.337 42.998,61.337 C47.887,61.337 52.553,59.508 56.138,56.188 C56.948,55.437 56.996,54.172 56.246,53.361 C55.494,52.552 54.229,52.504 53.418,53.255 L53.418,53.255 Z" id="Shape" sketch:type="MSShapeGroup"></path>
            <path d="M42,0 C19.234,0 0,19.234 0,42 C0,64.766 19.234,84 42,84 C64.766,84 84,64.766 84,42 C84,19.234 64.766,0 42,0 L42,0 Z M42,80 C21.402,80 4,62.598 4,42 C4,21.402 21.402,4 42,4 C62.598,4 80,21.402 80,42 C80,62.598 62.598,80 42,80 L42,80 Z" id="Shape" sketch:type="MSShapeGroup"></path>
        </g>
    </g>
</svg>