<?xml version="1.0" encoding="UTF-8" standalone="no"?>
<svg width="91px" height="78px" viewBox="0 0 91 78" version="1.1" xmlns="http://www.w3.org/2000/svg" xmlns:xlink="http://www.w3.org/1999/xlink" xmlns:sketch="http://www.bohemiancoding.com/sketch/ns">
    <!-- Generator: Sketch 3.1.1 (8761) - http://www.bohemiancoding.com/sketch -->
    <title>Service</title>
    <desc>Created with Sketch.</desc>
    <defs></defs>
    <g id="Page-1" stroke="none" stroke-width="1" fill="none" fill-rule="evenodd" sketch:type="MSPage">
        <g id="Service" sketch:type="MSLayerGroup" transform="translate(0.000000, 1.000000)" fill="#000000">
            <path d="M90.039,41.868 L82.916,41.868 C82.186,24.451 69.221,10.042 52.514,6.99 C52.522,6.861 52.535,6.733 52.535,6.602 C52.535,2.904 49.524,-0.105 45.828,-0.105 C42.13,-0.105 39.12,2.904 39.12,6.602 C39.12,6.745 39.133,6.884 39.142,7.024 C22.53,10.152 9.663,24.519 8.932,41.869 L0.402,41.869 L0.402,45.914 L20.23,45.914 L12.556,51.507 L11.568,50.365 L6.181,55.025 L6.297,55.161 L0.039,60.58 L13.698,76.353 L23.484,67.879 L23.369,67.745 L25.227,66.138 L23.633,64.3 L29.305,59.387 L50.869,54.699 L76.807,50.428 L76.326,45.913 L90.04,45.913 L90.039,41.868 L90.039,41.868 Z M89.02,44.896 L76.215,44.896 L75.701,44.896 L75.611,44.896 L75.189,44.896 L55.051,44.896 L54.002,44.896 L23.848,44.896 L23.357,44.896 L22.493,44.896 L21.628,44.896 L1.419,44.896 L1.419,42.887 L8.89,42.887 L24.384,42.887 L25.249,42.887 L26.113,42.887 L53.367,42.887 L53.912,42.887 L54.453,42.887 L82.957,42.887 L89.019,42.887 L89.019,44.896 L89.02,44.896 L89.02,44.896 Z M28.834,58.445 L22.967,63.527 L14.457,53.701 L23.1,47.505 L54.529,47.031 L54.812,48.174 L40.579,50.647 L40.753,51.649 L56.063,48.993 L55.576,47.016 L75.387,46.716 L75.695,49.578 L50.68,53.697 L28.962,58.419 L28.834,58.445 L28.834,58.445 Z M13.801,74.917 L1.475,60.684 L6.963,55.93 L7.349,55.598 L7.734,55.264 L8.629,54.49 L9.513,53.725 L9.721,53.543 L9.736,53.561 L10.07,53.949 L10.404,54.335 L16.268,61.106 L20.338,65.807 L20.671,66.192 L21.005,66.577 L21.931,67.647 L22.046,67.778 L19.674,69.833 L19.289,70.167 L13.801,74.917 L13.801,74.917 Z M21.775,65.907 L21.441,65.521 L21.108,65.136 L17.037,60.437 L11.23,53.73 L10.895,53.343 L10.561,52.956 L10.374,52.741 L11.463,51.799 L11.729,52.107 L12.063,52.494 L12.398,52.881 L18.126,59.494 L22.196,64.195 L22.529,64.581 L22.862,64.966 L23.788,66.035 L22.7,66.977 L21.775,65.907 L21.775,65.907 Z M40.138,6.602 C40.138,3.465 42.69,0.914 45.826,0.914 C48.962,0.914 51.515,3.465 51.515,6.602 C51.515,6.672 51.506,6.74 51.502,6.81 C51.054,6.74 50.599,6.688 50.146,6.635 C50.146,6.624 50.148,6.614 50.148,6.602 C50.148,4.218 48.21,2.278 45.826,2.278 C43.442,2.278 41.502,4.218 41.502,6.602 C41.502,6.622 41.507,6.64 41.508,6.66 C41.053,6.715 40.599,6.773 40.15,6.845 C40.147,6.763 40.138,6.683 40.138,6.602 L40.138,6.602 Z M49.123,6.531 C48.066,6.439 47.001,6.383 45.923,6.383 C44.778,6.383 43.647,6.443 42.527,6.547 C42.557,4.75 44.023,3.297 45.827,3.297 C47.623,3.296 49.084,4.741 49.123,6.531 L49.123,6.531 Z M39.778,7.944 C39.945,7.915 40.112,7.882 40.281,7.855 C40.734,7.782 41.192,7.722 41.651,7.667 C41.821,7.646 41.99,7.621 42.161,7.603 C42.332,7.585 42.505,7.571 42.678,7.556 C43.748,7.458 44.829,7.402 45.923,7.402 C46.952,7.402 47.969,7.455 48.979,7.542 C49.149,7.557 49.326,7.564 49.498,7.582 C49.67,7.599 49.838,7.625 50.01,7.645 C50.469,7.698 50.928,7.753 51.383,7.823 C51.551,7.849 51.717,7.884 51.885,7.912 C52.053,7.941 52.219,7.97 52.387,8.001 C68.597,10.987 81.173,24.967 81.902,41.868 L61.67,41.868 C58.93,41.738 56.334,41.557 53.881,41.331 C53.695,41.313 53.504,41.298 53.32,41.281 C52.211,41.174 51.131,41.058 50.078,40.934 C48.867,40.791 47.687,40.639 46.55,40.475 C22.534,37.017 14.821,29.135 13.579,27.673 C18.522,17.626 28.01,10.171 39.277,8.032 C39.443,8.002 39.611,7.973 39.778,7.944 L39.778,7.944 Z" id="Shape" sketch:type="MSShapeGroup"></path>
        </g>
    </g>
</svg>