<?xml version="1.0" encoding="utf-8"?>
<!-- Generator: Adobe Illustrator 16.0.0, SVG Export Plug-In . SVG Version: 6.00 Build 0)  -->
<!DOCTYPE svg PUBLIC "-//W3C//DTD SVG 1.1//EN" "http://www.w3.org/Graphics/SVG/1.1/DTD/svg11.dtd">
<svg version="1.1" id="Calque_1" xmlns="http://www.w3.org/2000/svg" xmlns:xlink="http://www.w3.org/1999/xlink" x="0px" y="0px"
	 width="100px" height="100px" viewBox="0 0 100 100" enable-background="new 0 0 100 100" xml:space="preserve">
<g>
	<g>
		<g>
			<path fill="#FFFFFF" stroke="#FFFFFF" stroke-width="3" stroke-miterlimit="10" d="M21.759,64.5c-8.271,0-14.998-6.729-14.998-15
				s6.728-15,14.998-15c2.064,0,4.081,0.426,6.002,1.269c0.331,0.146,0.48,0.528,0.337,0.86c-0.146,0.328-0.529,0.479-0.86,0.334
				c-1.755-0.768-3.598-1.158-5.479-1.158c-7.551,0-13.694,6.145-13.694,13.695s6.144,13.695,13.694,13.695
				c1.884,0,3.726-0.391,5.478-1.159c0.331-0.146,0.713,0.007,0.859,0.335c0.144,0.33-0.006,0.715-0.337,0.859
				C25.843,64.074,23.824,64.5,21.759,64.5z"/>
			<path fill="#FFFFFF" stroke="#FFFFFF" stroke-width="3" stroke-miterlimit="10" d="M19.15,48.195H2.194
				c-0.36,0-0.651-0.292-0.651-0.652c0-0.359,0.291-0.652,0.651-0.652H19.15c0.36,0,0.653,0.293,0.653,0.652
				C19.804,47.903,19.511,48.195,19.15,48.195z"/>
			<path fill="#FFFFFF" stroke="#FFFFFF" stroke-width="3" stroke-miterlimit="10" d="M19.15,54.718H2.194
				c-0.36,0-0.651-0.293-0.651-0.653c0-0.357,0.291-0.652,0.651-0.652H19.15c0.36,0,0.653,0.295,0.653,0.652
				C19.804,54.425,19.511,54.718,19.15,54.718z"/>
		</g>
		<g>
			<path fill="#FFFFFF" stroke="#FFFFFF" stroke-width="3" stroke-miterlimit="10" d="M51.759,64.5c-8.271,0-14.998-6.729-14.998-15
				s6.728-15,14.998-15c2.064,0,4.081,0.426,6.002,1.269c0.331,0.146,0.48,0.528,0.337,0.86c-0.146,0.328-0.529,0.479-0.86,0.334
				c-1.755-0.768-3.598-1.158-5.479-1.158c-7.551,0-13.694,6.145-13.694,13.695s6.144,13.695,13.694,13.695
				c1.884,0,3.726-0.391,5.478-1.159c0.331-0.146,0.713,0.007,0.859,0.335c0.144,0.33-0.006,0.715-0.337,0.859
				C55.843,64.074,53.824,64.5,51.759,64.5z"/>
			<path fill="#FFFFFF" stroke="#FFFFFF" stroke-width="3" stroke-miterlimit="10" d="M49.15,48.195H32.194
				c-0.36,0-0.651-0.292-0.651-0.652c0-0.359,0.291-0.652,0.651-0.652H49.15c0.36,0,0.653,0.293,0.653,0.652
				C49.804,47.903,49.511,48.195,49.15,48.195z"/>
			<path fill="#FFFFFF" stroke="#FFFFFF" stroke-width="3" stroke-miterlimit="10" d="M49.15,54.718H32.194
				c-0.36,0-0.651-0.293-0.651-0.653c0-0.357,0.291-0.652,0.651-0.652H49.15c0.36,0,0.653,0.295,0.653,0.652
				C49.804,54.425,49.511,54.718,49.15,54.718z"/>
		</g>
		<g>
			<path fill="#FFFFFF" stroke="#FFFFFF" stroke-width="3" stroke-miterlimit="10" d="M81.759,64.5c-8.271,0-14.998-6.729-14.998-15
				s6.728-15,14.998-15c2.064,0,4.081,0.426,6.002,1.269c0.331,0.146,0.48,0.528,0.337,0.86c-0.146,0.328-0.529,0.479-0.86,0.334
				c-1.755-0.768-3.598-1.158-5.479-1.158c-7.551,0-13.694,6.145-13.694,13.695s6.144,13.695,13.694,13.695
				c1.884,0,3.726-0.391,5.478-1.159c0.331-0.146,0.713,0.007,0.859,0.335c0.144,0.33-0.006,0.715-0.337,0.859
				C85.843,64.074,83.824,64.5,81.759,64.5z"/>
			<path fill="#FFFFFF" stroke="#FFFFFF" stroke-width="3" stroke-miterlimit="10" d="M79.15,48.195H62.194
				c-0.36,0-0.651-0.292-0.651-0.652c0-0.359,0.291-0.652,0.651-0.652H79.15c0.36,0,0.653,0.293,0.653,0.652
				C79.804,47.903,79.511,48.195,79.15,48.195z"/>
			<path fill="#FFFFFF" stroke="#FFFFFF" stroke-width="3" stroke-miterlimit="10" d="M79.15,54.718H62.194
				c-0.36,0-0.651-0.293-0.651-0.653c0-0.357,0.291-0.652,0.651-0.652H79.15c0.36,0,0.653,0.295,0.653,0.652
				C79.804,54.425,79.511,54.718,79.15,54.718z"/>
		</g>
	</g>
	<path fill="#FFFFFF" stroke="#FFFFFF" stroke-linecap="round" stroke-linejoin="round" stroke-miterlimit="10" d="M97.305,24.186
		h-3.105v-3.338c0-0.469-0.463-0.848-0.931-0.848s-0.931,0.379-0.931,0.848v3.338H89c-0.468,0-0.848,0.463-0.848,0.931
		s0.38,0.931,0.848,0.931h3.338v3.105c0,0.469,0.463,0.848,0.931,0.848s0.931-0.379,0.931-0.848v-3.105h3.105
		c0.469,0,0.848-0.463,0.848-0.931S97.773,24.186,97.305,24.186z"/>
</g>
</svg>
