<?xml version="1.0" encoding="utf-8"?>
<!-- Generator: Adobe Illustrator 16.0.0, SVG Export Plug-In . SVG Version: 6.00 Build 0)  -->
<!DOCTYPE svg PUBLIC "-//W3C//DTD SVG 1.1//EN" "http://www.w3.org/Graphics/SVG/1.1/DTD/svg11.dtd">
<svg version="1.1" id="Calque_1" xmlns="http://www.w3.org/2000/svg" xmlns:xlink="http://www.w3.org/1999/xlink" x="0px" y="0px"
	 width="100px" height="100px" viewBox="0 0 100 100" enable-background="new 0 0 100 100" xml:space="preserve">
<g>
	<g>
		<path fill="#FFFFFF" stroke="#FFFFFF" stroke-width="3" stroke-miterlimit="10" d="M41.585,64.5c-8.271,0-14.998-6.729-14.998-15
			s6.728-15,14.998-15c2.064,0,4.081,0.426,6.002,1.269c0.331,0.146,0.48,0.528,0.337,0.86c-0.146,0.328-0.529,0.479-0.86,0.334
			c-1.755-0.768-3.598-1.158-5.479-1.158c-7.551,0-13.694,6.145-13.694,13.695s6.144,13.695,13.694,13.695
			c1.884,0,3.726-0.391,5.478-1.159c0.331-0.146,0.713,0.007,0.859,0.335c0.144,0.33-0.006,0.715-0.337,0.859
			C45.669,64.074,43.65,64.5,41.585,64.5z"/>
		<path fill="#FFFFFF" stroke="#FFFFFF" stroke-width="3" stroke-miterlimit="10" d="M38.977,48.195H22.021
			c-0.36,0-0.651-0.292-0.651-0.652c0-0.359,0.291-0.652,0.651-0.652h16.956c0.36,0,0.653,0.293,0.653,0.652
			C39.63,47.903,39.337,48.195,38.977,48.195z"/>
		<path fill="#FFFFFF" stroke="#FFFFFF" stroke-width="3" stroke-miterlimit="10" d="M38.977,54.718H22.021
			c-0.36,0-0.651-0.293-0.651-0.653c0-0.357,0.291-0.652,0.651-0.652h16.956c0.36,0,0.653,0.295,0.653,0.652
			C39.63,54.425,39.337,54.718,38.977,54.718z"/>
	</g>
	<g>
		<path fill="#FFFFFF" stroke="#FFFFFF" stroke-width="3" stroke-miterlimit="10" d="M71.585,64.5c-8.271,0-14.998-6.729-14.998-15
			s6.728-15,14.998-15c2.064,0,4.081,0.426,6.002,1.269c0.331,0.146,0.48,0.528,0.337,0.86c-0.146,0.328-0.529,0.479-0.86,0.334
			c-1.755-0.768-3.598-1.158-5.479-1.158c-7.551,0-13.694,6.145-13.694,13.695s6.144,13.695,13.694,13.695
			c1.884,0,3.726-0.391,5.478-1.159c0.331-0.146,0.713,0.007,0.859,0.335c0.144,0.33-0.006,0.715-0.337,0.859
			C75.669,64.074,73.65,64.5,71.585,64.5z"/>
		<path fill="#FFFFFF" stroke="#FFFFFF" stroke-width="3" stroke-miterlimit="10" d="M68.977,48.195H52.021
			c-0.36,0-0.651-0.292-0.651-0.652c0-0.359,0.291-0.652,0.651-0.652h16.956c0.36,0,0.653,0.293,0.653,0.652
			C69.63,47.903,69.337,48.195,68.977,48.195z"/>
		<path fill="#FFFFFF" stroke="#FFFFFF" stroke-width="3" stroke-miterlimit="10" d="M68.977,54.718H52.021
			c-0.36,0-0.651-0.293-0.651-0.653c0-0.357,0.291-0.652,0.651-0.652h16.956c0.36,0,0.653,0.295,0.653,0.652
			C69.63,54.425,69.337,54.718,68.977,54.718z"/>
	</g>
</g>
</svg>
