<?xml version="1.0" encoding="UTF-8" standalone="no"?>
<svg width="100px" height="70px" viewBox="0 0 100 70" version="1.1" xmlns="http://www.w3.org/2000/svg" xmlns:xlink="http://www.w3.org/1999/xlink" xmlns:sketch="http://www.bohemiancoding.com/sketch/ns">
    <!-- Generator: Sketch 3.1.1 (8761) - http://www.bohemiancoding.com/sketch -->
    <title>noun_14921_cc</title>
    <desc>Created with Sketch.</desc>
    <defs></defs>
    <g id="Page-1" stroke="none" stroke-width="1" fill="none" fill-rule="evenodd" sketch:type="MSPage">
        <g id="noun_14921_cc" sketch:type="MSLayerGroup" transform="translate(1.000000, 0.000000)" fill="#000000">
            <path d="M-0.299,0.491 L-0.299,69.509 L98.299,69.509 L98.299,0.491 L-0.299,0.491 L-0.299,0.491 Z M95.422,66.634 L14.382,66.634 L2.577,54.828 L2.577,3.366 L83.616,3.366 L95.422,15.172 L95.422,66.634 L95.422,66.634 Z" id="Shape" sketch:type="MSShapeGroup"></path>
            <path d="M81.661,24.432 C81.661,24.432 71.48,21.742 59.702,25.77 C59.911,27.856 60.815,29.79 62.225,31.276 C66.709,28.649 72.769,26.867 81.661,26.867 C81.661,27.804 83.066,27.897 83.066,26.773 L83.066,24.524 C83.066,23.401 81.661,23.495 81.661,24.432 L81.661,24.432 Z" id="Shape" sketch:type="MSShapeGroup"></path>
            <path d="M57.769,26.488 C52.399,28.642 46.803,32.26 41.758,38.2 C41.196,38.856 40.634,38.763 40.728,37.826 C41.008,34.736 41.477,28.366 40.634,22.839 C40.165,19.749 20.401,19.935 20.026,22.839 C20.026,22.839 17.685,50.942 30.611,52.439 C48.549,54.574 48.781,40.711 60.266,32.545 C58.758,30.919 57.843,28.777 57.769,26.488 L57.769,26.488 Z M30.516,23.604 C26.315,23.604 22.91,23.29 22.91,22.903 C22.91,22.516 26.315,22.202 30.516,22.202 C34.717,22.202 38.121,22.516 38.121,22.903 C38.121,23.29 34.717,23.604 30.516,23.604 L30.516,23.604 Z" id="Shape" sketch:type="MSShapeGroup"></path>
        </g>
    </g>
</svg>