<?xml version="1.0" encoding="utf-8"?>
<!-- Generator: Adobe Illustrator 16.0.0, SVG Export Plug-In . SVG Version: 6.00 Build 0)  -->
<!DOCTYPE svg PUBLIC "-//W3C//DTD SVG 1.1//EN" "http://www.w3.org/Graphics/SVG/1.1/DTD/svg11.dtd">
<svg version="1.1" id="Calque_1" xmlns="http://www.w3.org/2000/svg" xmlns:xlink="http://www.w3.org/1999/xlink" x="0px" y="0px"
	 width="100px" height="100px" viewBox="0 0 100 100" enable-background="new 0 0 100 100" xml:space="preserve">
<g>
	<path fill="#FFFFFF" d="M40.881,37.363c0,5.111-4.144,9.258-9.26,9.258c-5.105,0-9.26-4.146-9.26-9.258
		c0-5.12,4.154-9.262,9.26-9.262C36.735,28.102,40.881,32.243,40.881,37.363z"/>
	<path fill="#FFFFFF" d="M94.925,10.816c-4.083,0-89.842,0-89.842,0S1,10.816,1,14.899c0,4.089,0,65.342,0,65.342
		s0,4.079,4.083,4.079c4.085,0,89.842,0,89.842,0S99,84.32,99,80.241c0-4.088,0-65.342,0-65.342S99,10.816,94.925,10.816z
		 M94.595,79.419H5.415V15.72h89.18V79.419z"/>
	<path fill="#FFFFFF" d="M84.378,69.218c0,0-3.817-22.126-15.28-22.126c-11.453,0-15.279,14.756-22.906,14.756
		c-7.652,0-7.652-3.696-15.28-3.696c-7.645,0-15.289,11.065-15.289,11.065L84.378,69.218L84.378,69.218z"/>
</g>
</svg>
