<?xml version="1.0" encoding="UTF-8" standalone="no"?>
<svg width="76px" height="26px" viewBox="0 0 76 26" version="1.1" xmlns="http://www.w3.org/2000/svg" xmlns:xlink="http://www.w3.org/1999/xlink" xmlns:sketch="http://www.bohemiancoding.com/sketch/ns">
    <!-- Generator: Sketch 3.1.1 (8761) - http://www.bohemiancoding.com/sketch -->
    <title>noun_137093_cc</title>
    <desc>Created with Sketch.</desc>
    <defs></defs>
    <g id="Page-1" stroke="none" stroke-width="1" fill="none" fill-rule="evenodd" sketch:type="MSPage">
        <g id="noun_137093_cc" sketch:type="MSLayerGroup" transform="translate(0.000000, 1.000000)" fill="#000000">
            <path d="M75.685,16.811 L75.683,16.765 C75.634,16.218 75.282,15.653 74.68,15.459 C73.546,12.161 68.03,12.063 67.385,12.063 L65.014,12.063 C64.794,11.823 64.554,11.636 64.547,11.632 C64.17,11.358 63.608,11.213 62.676,10.972 C61.619,10.699 59.871,10.247 57.486,9.299 C57.409,9.137 57.307,8.99 57.181,8.862 C56.815,8.485 56.257,8.26 55.684,8.26 L55.635,8.26 C55.521,8.262 55.427,8.271 55.337,8.288 L55.19,8.315 C55.083,8.267 54.975,8.217 54.868,8.167 C54.781,7.99 54.67,7.831 54.533,7.69 C54.118,7.264 53.484,7.009 52.834,7.009 L52.773,7.009 C52.709,7.01 52.635,7.014 52.555,7.023 C52.514,7.002 52.472,6.98 52.429,6.957 C52.341,6.724 52.207,6.515 52.031,6.333 C51.617,5.906 50.983,5.652 50.333,5.652 L50.272,5.652 C50.212,5.653 50.146,5.656 50.075,5.664 L50.051,5.649 C49.964,5.384 49.816,5.14 49.615,4.933 C49.2,4.506 48.566,4.251 47.916,4.251 L47.855,4.252 L47.848,4.252 C47.768,3.949 47.613,3.674 47.39,3.445 C46.975,3.018 46.342,2.764 45.692,2.764 L45.63,2.765 C45.591,2.765 45.549,2.767 45.504,2.77 C45.437,2.421 45.271,2.104 45.014,1.841 C44.599,1.414 43.966,1.159 43.315,1.159 L43.255,1.16 C43.195,1.161 43.129,1.164 43.057,1.172 L42.752,0.986 C41.287,0.124 40.553,-0.308 39.112,-0.349 C37.738,-0.393 36.591,0.005 35.614,0.862 C34.964,0.221 34.319,-0.103 33.69,-0.103 C33.421,-0.103 33.163,-0.042 32.922,0.076 C32.17,0.446 31.696,1.235 31.349,1.811 L31.257,1.963 C30.626,3 29.908,4.061 28.709,4.663 C28.375,4.83 28.011,4.971 27.626,5.081 C26.893,5.291 26.057,5.397 25.143,5.397 C23.84,5.397 22.647,5.074 21.689,4.462 C21.043,4.049 20.473,3.481 19.945,2.722 C19.825,2.55 19.714,2.347 19.606,2.15 C19.203,1.414 18.651,0.405 17.211,0.405 C15.58,0.405 15.019,1.705 14.608,2.654 L14.566,2.749 C14.398,3.142 12.887,6.88 12.887,6.88 C12.878,6.903 12.87,6.924 12.865,6.943 L12.864,6.943 C12.654,7.519 12.52,7.935 12.455,8.215 C12.368,8.502 11.521,11.323 11.521,13.652 L11.521,16.949 C11.521,17.149 11.521,17.326 11.537,17.473 L11.522,17.473 L11.522,21.194 L5.23,21.194 C4.819,21.194 4.484,21.352 4.267,21.638 L1.446,21.638 C0.822,21.638 0.314,22.146 0.314,22.77 C0.314,23.394 0.822,23.901 1.446,23.901 L4.269,23.901 C4.486,24.187 4.821,24.345 5.232,24.345 L60.877,24.345 C64.231,24.19 71.321,22.927 73.294,21.917 C74.077,21.517 75.125,20.638 75.463,19.747 C75.486,19.687 75.687,19.14 75.687,18.472 L75.685,16.811 L75.685,16.811 Z M67.385,13.115 L67.421,13.115 C68.054,13.118 71.861,13.218 73.287,15.076 C73.291,15.082 73.296,15.087 73.3,15.093 C73.34,15.147 73.379,15.201 73.415,15.257 C73.436,15.289 73.456,15.322 73.475,15.356 C73.495,15.388 73.513,15.421 73.532,15.456 C73.56,15.51 73.587,15.564 73.611,15.62 C73.619,15.639 73.627,15.656 73.634,15.676 C73.661,15.744 73.688,15.814 73.709,15.886 C73.712,15.898 73.716,15.909 73.719,15.921 C73.743,16.002 73.764,16.086 73.78,16.173 C73.759,16.226 73.732,16.279 73.696,16.331 C73.155,17.117 71.041,17.719 69.249,18.033 C68.937,18.088 68.636,18.134 68.353,18.171 L68.351,18.171 C68.34,18.09 68.33,18.008 68.319,17.93 C68.311,17.88 68.302,17.832 68.294,17.784 C68.274,17.666 68.252,17.551 68.229,17.437 C68.219,17.391 68.209,17.343 68.2,17.297 C68.168,17.155 68.135,17.016 68.097,16.882 C68.094,16.873 68.093,16.864 68.09,16.856 C68.051,16.714 68.009,16.578 67.965,16.445 C67.951,16.405 67.937,16.366 67.923,16.327 C67.89,16.231 67.856,16.138 67.82,16.047 C67.805,16.009 67.791,15.97 67.775,15.933 C67.73,15.823 67.684,15.716 67.636,15.614 C67.631,15.602 67.625,15.59 67.62,15.579 C67.566,15.465 67.512,15.356 67.455,15.251 C67.438,15.22 67.422,15.189 67.404,15.159 C67.363,15.083 67.32,15.009 67.277,14.937 C67.258,14.907 67.241,14.876 67.222,14.846 C67.17,14.764 67.118,14.683 67.066,14.607 C67.057,14.594 67.049,14.582 67.042,14.57 C66.98,14.482 66.919,14.398 66.857,14.317 C66.838,14.295 66.821,14.272 66.803,14.25 C66.756,14.191 66.71,14.135 66.663,14.08 C66.643,14.057 66.624,14.034 66.605,14.012 C66.551,13.951 66.499,13.893 66.446,13.837 C66.436,13.826 66.426,13.816 66.417,13.805 C66.354,13.74 66.292,13.678 66.23,13.619 C66.212,13.602 66.196,13.588 66.179,13.572 C66.133,13.529 66.087,13.487 66.042,13.448 C66.022,13.431 66.004,13.415 65.985,13.399 C65.936,13.357 65.887,13.317 65.839,13.279 C65.829,13.27 65.818,13.261 65.809,13.254 C65.751,13.209 65.695,13.167 65.64,13.127 C65.636,13.124 65.632,13.121 65.627,13.118 L67.385,13.118 L67.385,13.115 Z M64.581,13.115 C64.915,13.256 67.318,14.394 67.835,18.238 C67.489,18.286 67.139,18.33 66.786,18.371 C66.729,18.378 66.673,18.385 66.616,18.392 C66.567,18.397 66.517,18.402 66.469,18.408 C66.382,18.418 66.295,18.428 66.207,18.436 C66.166,18.441 66.125,18.445 66.083,18.449 C65.987,18.46 65.891,18.47 65.795,18.479 C65.782,18.48 65.77,18.481 65.758,18.482 C65.496,18.508 65.236,18.533 64.975,18.555 C64.829,18.568 64.685,18.579 64.542,18.591 C61.456,18.843 58.744,18.875 58.494,18.878 L49.12,18.878 L54.735,13.913 L56.192,12.626 C56.308,12.647 56.425,12.665 56.543,12.685 C56.634,12.7 56.724,12.716 56.815,12.73 C58.444,12.981 60.094,13.116 61.743,13.116 L64.497,13.116 L64.581,13.116 L64.581,13.115 Z M36.329,6.71 C37.318,6.04 38.258,5.258 39.126,4.381 L41.652,5.877 L36.075,10.823 L35.88,7.004 C36.032,6.907 36.182,6.809 36.329,6.71 L36.329,6.71 Z M35.881,6.375 C35.901,4.791 36.598,3.949 37.335,3.503 C37.745,3.641 38.157,3.827 38.57,4.067 L38.65,4.112 C37.835,4.923 36.956,5.649 36.033,6.273 C35.984,6.309 35.932,6.342 35.881,6.375 L35.881,6.375 Z M44.605,7.478 L44.959,7.677 L45.257,7.845 L37.676,14.548 L35.88,16.137 L35.88,15.194 L44.605,7.478 L44.605,7.478 Z M48.137,9.474 L48.789,9.843 L39.588,17.979 C39.533,17.97 39.481,17.961 39.428,17.954 C39.352,17.941 39.276,17.93 39.202,17.918 C39.112,17.903 39.026,17.89 38.942,17.876 C38.882,17.866 38.823,17.856 38.766,17.847 C38.738,17.842 38.71,17.838 38.682,17.833 L48.137,9.474 L48.137,9.474 Z M51.704,11.442 C51.712,11.445 51.723,11.449 51.731,11.452 C51.743,11.456 51.756,11.461 51.769,11.466 C51.8,11.478 51.832,11.489 51.87,11.503 C51.889,11.51 51.911,11.517 51.931,11.524 C51.988,11.544 52.048,11.566 52.115,11.589 C52.153,11.602 52.189,11.614 52.23,11.628 C52.274,11.643 52.323,11.659 52.371,11.675 C52.398,11.684 52.424,11.693 52.453,11.702 C52.468,11.707 52.481,11.712 52.497,11.717 L50.122,13.817 L44.657,18.649 C44.59,18.642 44.518,18.634 44.451,18.628 C44.236,18.606 44.018,18.582 43.797,18.557 C43.757,18.552 43.715,18.548 43.673,18.543 L51.704,11.442 L51.704,11.442 Z M56.078,9.859 C56.1,9.772 56.117,9.684 56.12,9.597 C56.123,9.527 56.119,9.457 56.105,9.389 L56.105,9.389 C56.14,9.403 56.172,9.422 56.205,9.439 C56.23,9.453 56.259,9.463 56.282,9.478 C56.337,9.513 56.386,9.552 56.428,9.596 C56.461,9.63 56.488,9.667 56.511,9.706 C56.514,9.71 56.516,9.715 56.519,9.72 C56.53,9.739 56.541,9.757 56.55,9.777 C56.561,9.8 56.567,9.826 56.574,9.85 L56.574,9.853 C56.58,9.872 56.588,9.891 56.592,9.911 C56.6,9.953 56.604,9.997 56.603,10.043 C56.603,10.054 56.599,10.065 56.598,10.076 C56.596,10.104 56.594,10.131 56.587,10.157 C56.521,10.422 56.351,10.66 56.171,10.913 L56.067,11.062 C55.898,11.306 55.756,11.419 55.619,11.419 C55.47,11.419 55.348,11.297 55.348,11.148 C55.348,11.105 55.373,10.978 55.603,10.723 C55.756,10.552 55.985,10.216 56.078,9.859 L56.078,9.859 Z M54.522,9.166 C54.619,9.211 54.712,9.254 54.808,9.297 C54.891,9.335 54.974,9.374 55.055,9.41 C55.236,9.492 55.413,9.571 55.588,9.647 C55.553,9.874 55.391,10.173 55.211,10.372 C55.044,10.558 54.821,10.841 54.821,11.149 C54.821,11.588 55.179,11.945 55.618,11.945 C56.046,11.945 56.325,11.612 56.498,11.361 L56.599,11.217 C56.789,10.949 57.005,10.646 57.098,10.277 C59.531,11.243 61.285,11.698 62.413,11.989 C63.169,12.184 63.714,12.325 63.92,12.474 C63.94,12.491 63.98,12.532 64.033,12.587 L61.742,12.587 C61.508,12.587 61.274,12.585 61.041,12.579 C59.815,12.551 58.584,12.45 57.369,12.28 C57.336,12.275 57.303,12.268 57.269,12.263 C56.897,12.209 56.527,12.151 56.159,12.084 C55.085,11.888 54.054,11.642 53.094,11.353 C52.99,11.322 52.893,11.291 52.8,11.262 C53.266,11.237 53.58,10.865 53.777,10.58 C53.817,10.521 53.859,10.463 53.901,10.404 C54.14,10.066 54.388,9.717 54.497,9.29 C54.507,9.25 54.515,9.208 54.522,9.166 L54.522,9.166 Z M53.294,8.578 C53.306,8.481 53.305,8.385 53.292,8.29 C53.287,8.251 53.286,8.212 53.276,8.175 C53.272,8.16 53.268,8.146 53.263,8.131 C53.262,8.129 53.261,8.126 53.261,8.124 C53.288,8.132 53.314,8.143 53.34,8.153 C53.351,8.157 53.363,8.161 53.375,8.166 C53.446,8.194 53.513,8.228 53.575,8.267 C53.587,8.274 53.596,8.281 53.606,8.288 C53.669,8.33 53.728,8.374 53.778,8.425 C53.815,8.464 53.844,8.505 53.872,8.547 C53.879,8.557 53.885,8.567 53.892,8.577 C53.894,8.581 53.898,8.584 53.9,8.589 C53.915,8.615 53.923,8.644 53.935,8.671 C53.946,8.696 53.959,8.72 53.968,8.746 C53.968,8.748 53.969,8.75 53.97,8.752 C53.986,8.807 53.997,8.865 54.001,8.924 C54.003,8.954 54.008,8.983 54.007,9.013 C54.006,9.064 53.999,9.115 53.986,9.164 C53.902,9.497 53.682,9.806 53.47,10.104 C53.427,10.165 53.385,10.225 53.342,10.286 C53.125,10.599 52.938,10.746 52.75,10.746 C52.536,10.746 52.362,10.572 52.362,10.358 C52.362,10.285 52.405,10.115 52.687,9.802 C52.902,9.563 53.233,9.068 53.294,8.578 L53.294,8.578 Z M50.79,7.271 C50.806,7.174 50.807,7.077 50.799,6.981 C50.794,6.926 50.79,6.87 50.777,6.816 C50.773,6.802 50.768,6.787 50.764,6.772 C50.763,6.77 50.763,6.767 50.761,6.765 C50.789,6.773 50.815,6.785 50.841,6.794 C50.852,6.798 50.864,6.802 50.875,6.807 C50.946,6.835 51.014,6.869 51.077,6.908 C51.087,6.915 51.097,6.922 51.106,6.929 C51.169,6.971 51.228,7.015 51.278,7.067 C51.329,7.119 51.368,7.176 51.402,7.235 C51.404,7.239 51.405,7.243 51.408,7.246 C51.425,7.276 51.443,7.307 51.456,7.339 C51.477,7.395 51.49,7.453 51.498,7.514 C51.504,7.559 51.509,7.605 51.508,7.653 C51.508,7.655 51.507,7.657 51.507,7.659 C51.505,7.708 51.499,7.757 51.487,7.804 C51.402,8.137 51.183,8.446 50.971,8.744 C50.928,8.805 50.885,8.865 50.843,8.925 C50.626,9.239 50.439,9.385 50.251,9.385 C50.037,9.385 49.863,9.211 49.863,8.997 C49.863,8.924 49.905,8.754 50.187,8.44 C50.394,8.215 50.712,7.745 50.79,7.271 L50.79,7.271 Z M48.371,5.885 C48.389,5.785 48.39,5.687 48.383,5.589 C48.378,5.532 48.374,5.474 48.36,5.419 C48.356,5.404 48.352,5.39 48.347,5.375 C48.346,5.373 48.345,5.371 48.345,5.368 C48.372,5.376 48.398,5.388 48.424,5.397 C48.436,5.401 48.447,5.405 48.458,5.409 C48.529,5.437 48.597,5.471 48.66,5.51 C48.671,5.516 48.68,5.524 48.69,5.53 C48.752,5.572 48.811,5.617 48.862,5.668 C48.863,5.668 48.863,5.67 48.864,5.671 C48.903,5.712 48.936,5.754 48.963,5.797 C48.966,5.8 48.968,5.804 48.97,5.807 C49.053,5.946 49.082,6.098 49.073,6.253 C49.059,6.483 48.961,6.717 48.838,6.916 C48.748,7.062 48.655,7.206 48.556,7.345 C48.513,7.406 48.47,7.466 48.428,7.526 C48.211,7.84 48.024,7.986 47.836,7.986 C47.622,7.986 47.448,7.812 47.448,7.599 C47.448,7.526 47.491,7.356 47.773,7.042 C47.975,6.817 48.291,6.354 48.371,5.885 L48.371,5.885 Z M46.134,3.931 C46.13,3.917 46.126,3.902 46.121,3.887 C46.12,3.885 46.12,3.883 46.119,3.88 C46.133,3.884 46.146,3.89 46.161,3.895 C46.17,3.898 46.178,3.903 46.187,3.906 C46.209,3.914 46.231,3.923 46.252,3.931 C46.316,3.958 46.378,3.988 46.435,4.023 C46.446,4.029 46.456,4.037 46.466,4.044 C46.528,4.085 46.586,4.13 46.636,4.18 C46.642,4.186 46.647,4.193 46.652,4.2 C46.685,4.237 46.715,4.276 46.741,4.317 C46.746,4.324 46.749,4.332 46.753,4.339 C46.769,4.365 46.783,4.392 46.796,4.419 C46.828,4.492 46.85,4.569 46.858,4.65 C46.863,4.689 46.867,4.727 46.866,4.767 C46.866,4.773 46.864,4.778 46.864,4.784 C46.861,4.829 46.856,4.874 46.845,4.918 C46.843,4.928 46.838,4.937 46.835,4.945 C46.835,4.946 46.835,4.947 46.834,4.948 L46.799,5.049 C46.697,5.332 46.513,5.6 46.329,5.858 C46.287,5.919 46.244,5.979 46.202,6.04 C45.984,6.354 45.797,6.5 45.609,6.5 C45.395,6.5 45.222,6.326 45.222,6.112 C45.222,6.039 45.264,5.87 45.546,5.556 C45.735,5.346 46.017,4.93 46.12,4.495 C46.143,4.4 46.158,4.305 46.16,4.209 C46.165,4.115 46.159,4.021 46.134,3.931 L46.134,3.931 Z M43.739,2.922 C43.763,2.827 43.779,2.731 43.784,2.635 C43.789,2.531 43.785,2.427 43.759,2.327 C43.757,2.317 43.753,2.306 43.75,2.295 C43.749,2.291 43.748,2.287 43.747,2.283 C43.746,2.281 43.745,2.279 43.744,2.276 C43.771,2.284 43.798,2.295 43.824,2.305 C43.835,2.309 43.846,2.313 43.858,2.317 C43.929,2.346 43.997,2.379 44.06,2.419 C44.07,2.425 44.08,2.433 44.09,2.439 C44.152,2.481 44.211,2.526 44.261,2.577 C44.264,2.58 44.266,2.583 44.268,2.586 C44.305,2.626 44.338,2.668 44.367,2.711 C44.367,2.712 44.369,2.714 44.37,2.715 C44.373,2.72 44.375,2.727 44.378,2.732 C44.406,2.78 44.429,2.83 44.445,2.882 C44.45,2.897 44.455,2.912 44.459,2.928 C44.472,2.979 44.48,3.032 44.483,3.086 C44.484,3.094 44.486,3.101 44.487,3.109 C44.488,3.128 44.491,3.145 44.491,3.165 C44.49,3.171 44.489,3.177 44.488,3.183 C44.486,3.227 44.481,3.272 44.469,3.315 C44.462,3.343 44.449,3.37 44.441,3.397 C44.429,3.432 44.419,3.466 44.405,3.5 C44.404,3.502 44.404,3.503 44.403,3.505 C44.298,3.767 44.125,4.014 43.955,4.255 C43.912,4.316 43.868,4.376 43.827,4.436 C43.61,4.75 43.422,4.896 43.235,4.896 C43.021,4.896 42.846,4.722 42.846,4.508 C42.846,4.435 42.889,4.265 43.172,3.951 C43.356,3.747 43.629,3.345 43.739,2.922 L43.739,2.922 Z M36.565,1.448 C36.586,1.432 36.609,1.419 36.631,1.404 C38.142,0.322 39.998,0.622 41.509,1.482 C41.525,1.491 41.54,1.5 41.556,1.509 C41.608,1.538 41.66,1.568 41.713,1.599 C41.779,1.637 41.847,1.676 41.922,1.721 C42.003,1.768 42.086,1.817 42.173,1.868 C42.173,1.868 42.467,2.045 42.474,2.049 C42.588,2.129 42.7,2.205 42.813,2.284 C42.963,2.388 43.115,2.493 43.263,2.596 C43.255,2.899 43.029,3.325 42.782,3.599 C42.472,3.943 42.322,4.24 42.322,4.507 C42.322,5.01 42.731,5.42 43.235,5.42 C43.727,5.42 44.055,5.028 44.258,4.733 C44.299,4.674 44.34,4.616 44.382,4.557 C44.573,4.288 44.766,4.011 44.893,3.694 C44.919,3.711 44.945,3.728 44.971,3.745 C45.043,3.793 45.115,3.839 45.187,3.886 C45.338,3.986 45.492,4.086 45.641,4.183 C45.639,4.486 45.409,4.924 45.157,5.203 C44.847,5.546 44.698,5.844 44.698,6.111 C44.698,6.614 45.107,7.024 45.61,7.024 C46.103,7.024 46.431,6.632 46.634,6.337 C46.675,6.279 46.716,6.22 46.758,6.161 C46.962,5.874 47.167,5.575 47.291,5.229 C47.481,5.346 47.667,5.459 47.853,5.572 C47.915,5.87 47.661,6.379 47.38,6.689 C47.07,7.033 46.92,7.33 46.92,7.598 C46.92,8.101 47.329,8.511 47.833,8.511 C48.326,8.511 48.654,8.119 48.857,7.824 C48.897,7.765 48.939,7.708 48.981,7.649 C49.211,7.324 49.446,6.987 49.561,6.583 C49.597,6.604 49.633,6.624 49.67,6.645 C49.741,6.685 49.81,6.724 49.88,6.764 C50.01,6.838 50.141,6.913 50.27,6.985 C50.323,7.285 50.073,7.783 49.796,8.091 C49.486,8.434 49.336,8.732 49.336,8.999 C49.336,9.502 49.746,9.912 50.249,9.912 C50.742,9.912 51.069,9.52 51.273,9.225 C51.313,9.166 51.355,9.108 51.396,9.049 C51.636,8.712 51.884,8.362 51.996,7.92 C52.063,7.956 52.128,7.988 52.194,8.023 C52.258,8.057 52.322,8.089 52.386,8.122 C52.513,8.187 52.642,8.255 52.767,8.318 C52.838,8.615 52.58,9.133 52.296,9.448 C51.986,9.792 51.837,10.089 51.837,10.356 C51.837,10.638 51.967,10.886 52.168,11.054 C52.12,11.037 52.073,11.02 52.031,11.005 C51.966,10.981 51.907,10.96 51.854,10.939 C51.808,10.922 51.77,10.907 51.742,10.896 L51.659,10.863 L49.686,9.749 L49.203,9.476 L48.972,9.345 L48.55,9.107 L46.154,7.753 L45.67,7.48 L45.02,7.112 L44.536,6.839 L43.456,6.229 L42.597,5.743 L39.03,3.728 L38.832,3.615 C38.556,3.454 38.28,3.317 38.004,3.198 C38.496,3.032 38.909,3.008 39.021,3.004 C39.596,2.989 40.055,2.507 40.042,1.931 C40.03,1.365 39.56,0.904 38.97,0.904 C38.227,0.92 37.209,1.138 36.272,1.69 C36.368,1.602 36.465,1.522 36.565,1.448 L36.565,1.448 Z M30.142,4.991 C30.166,4.972 30.189,4.952 30.212,4.932 C30.319,4.844 30.424,4.752 30.523,4.659 C30.56,4.624 30.595,4.589 30.631,4.554 C31.178,4.01 31.594,3.358 32.006,2.711 C32.682,1.649 33.493,0.316 34.776,1.523 C34.806,1.551 34.838,1.58 34.868,1.61 C34.908,1.649 34.948,1.689 34.987,1.731 C35.037,1.783 35.086,1.838 35.135,1.895 C35.171,1.935 35.206,1.973 35.241,2.016 C35.219,2.04 35.197,2.065 35.175,2.089 C35.142,2.124 35.108,2.16 35.072,2.194 C35.016,2.251 34.96,2.307 34.901,2.362 C34.868,2.394 34.835,2.426 34.801,2.457 C34.728,2.525 34.652,2.592 34.574,2.658 C34.553,2.677 34.533,2.695 34.512,2.713 C33.483,3.57 32.288,4.205 31.042,4.687 C30.882,4.749 30.722,4.808 30.56,4.865 C30.438,4.908 30.218,4.935 30.118,5.014 C30.126,5.005 30.134,4.998 30.142,4.991 L30.142,4.991 Z M15.063,4.276 C15.118,4.145 15.172,4.018 15.225,3.891 C15.238,3.861 15.25,3.831 15.263,3.802 C15.295,3.724 15.328,3.648 15.36,3.573 C15.378,3.533 15.394,3.493 15.411,3.454 C15.436,3.394 15.461,3.338 15.485,3.281 C15.501,3.243 15.517,3.205 15.533,3.169 L15.574,3.075 C15.576,3.072 15.577,3.068 15.578,3.065 C15.774,2.611 15.958,2.192 16.224,1.896 C16.227,1.893 16.23,1.889 16.233,1.886 C16.287,1.828 16.342,1.774 16.403,1.725 C16.42,1.712 16.437,1.699 16.455,1.687 C16.508,1.649 16.563,1.615 16.623,1.586 C16.644,1.575 16.669,1.566 16.692,1.556 C16.755,1.53 16.822,1.508 16.894,1.492 C16.91,1.489 16.926,1.487 16.942,1.484 C17.027,1.469 17.116,1.459 17.213,1.459 C17.315,1.459 17.407,1.467 17.493,1.483 C17.502,1.485 17.509,1.488 17.517,1.49 C17.593,1.505 17.665,1.525 17.731,1.552 C17.743,1.556 17.752,1.563 17.764,1.568 C17.823,1.594 17.879,1.623 17.931,1.657 C17.956,1.675 17.981,1.696 18.005,1.716 C18.037,1.741 18.069,1.765 18.099,1.793 C18.145,1.837 18.189,1.886 18.231,1.937 C18.237,1.943 18.242,1.949 18.248,1.956 C18.401,2.146 18.531,2.378 18.671,2.633 C18.676,2.642 18.681,2.65 18.686,2.659 C18.808,2.881 18.933,3.11 19.084,3.327 C19.389,3.764 19.708,4.148 20.047,4.484 C20.385,4.82 20.743,5.108 21.125,5.352 C22.252,6.071 23.642,6.452 25.145,6.452 C25.397,6.452 25.644,6.445 25.886,6.43 C25.968,6.425 26.046,6.414 26.127,6.408 C26.284,6.395 26.442,6.383 26.595,6.364 C26.685,6.353 26.77,6.335 26.858,6.322 C26.997,6.3 27.137,6.281 27.271,6.254 C27.355,6.237 27.434,6.214 27.516,6.195 C27.646,6.165 27.777,6.137 27.902,6.102 C28.214,6.053 31.798,5.454 34.474,3.417 C34.479,3.416 34.485,3.414 34.49,3.412 C34.506,3.407 34.526,3.402 34.543,3.397 C34.078,4.177 33.779,5.174 33.779,6.443 L33.779,7.609 C32.282,8.388 30.691,9.027 29.332,9.374 C27.824,9.756 26.33,9.788 25.047,9.788 C24.786,9.788 24.524,9.787 24.258,9.785 L24.256,10.047 L24.231,9.784 C24.158,9.784 24.084,9.783 24.01,9.783 L23.998,9.783 C23.897,9.783 23.797,9.782 23.695,9.782 C23.695,9.782 23.695,9.782 23.694,9.782 L23.68,9.782 L23.666,9.782 L23.652,9.782 L23.638,9.782 L23.623,9.782 L23.609,9.782 L23.595,9.782 L23.581,9.782 L23.567,9.782 L23.553,9.782 L23.539,9.782 L23.525,9.782 L23.511,9.782 L23.498,9.782 L23.484,9.782 L23.47,9.782 C23.468,9.784 23.461,9.782 23.456,9.782 C23.453,9.784 23.447,9.782 23.442,9.782 L23.428,9.782 L23.415,9.782 L23.401,9.782 L23.387,9.782 L23.374,9.782 C17.667,9.779 15.38,5.009 15.063,4.276 L15.063,4.276 L15.063,4.276 Z M13.899,7.182 C13.995,6.923 14.102,6.644 14.214,6.358 C14.232,6.312 14.249,6.267 14.268,6.221 C14.303,6.132 14.338,6.042 14.375,5.951 C14.404,5.878 14.434,5.804 14.463,5.73 C14.519,5.593 14.574,5.457 14.63,5.319 C14.675,5.211 14.719,5.102 14.764,4.994 C14.773,4.972 14.783,4.949 14.792,4.926 C15.552,6.404 18.063,10.304 23.38,10.304 L23.393,10.304 L23.407,10.304 L23.421,10.304 L23.434,10.304 C23.439,10.304 23.451,10.307 23.448,10.304 L23.461,10.304 L23.475,10.304 C23.48,10.304 23.481,10.303 23.489,10.304 L23.503,10.304 L23.517,10.304 L23.531,10.304 L23.545,10.304 L23.559,10.304 L23.573,10.304 L23.587,10.304 L23.602,10.304 L23.616,10.304 L23.632,10.304 C23.833,10.304 24.032,10.305 24.231,10.307 L24.259,10.307 L24.272,10.307 C24.467,10.308 24.662,10.309 24.855,10.31 L25.051,10.31 L25.052,10.31 C26.365,10.31 27.899,10.277 29.485,9.875 C30.795,9.541 32.324,8.937 33.784,8.197 L33.784,12.86 L29.173,16.952 L19.234,16.952 L19.231,16.952 C19.16,16.899 19.092,16.844 19.023,16.789 C18.975,16.752 18.926,16.716 18.879,16.678 C18.792,16.608 18.708,16.534 18.625,16.461 C18.586,16.427 18.546,16.395 18.507,16.36 C18.407,16.27 18.311,16.178 18.215,16.085 C18.194,16.066 18.174,16.047 18.153,16.027 C18.038,15.913 17.924,15.797 17.815,15.678 C17.799,15.661 17.785,15.644 17.769,15.627 C17.676,15.525 17.585,15.424 17.497,15.32 C17.462,15.278 17.429,15.237 17.394,15.195 C17.328,15.115 17.26,15.034 17.196,14.952 C17.157,14.902 17.119,14.851 17.08,14.801 C17.023,14.727 16.967,14.652 16.911,14.576 C16.871,14.521 16.833,14.467 16.795,14.411 C16.743,14.339 16.691,14.266 16.643,14.193 C16.604,14.135 16.567,14.078 16.529,14.019 C16.482,13.948 16.435,13.876 16.389,13.805 C16.352,13.744 16.315,13.684 16.278,13.623 C16.236,13.553 16.193,13.483 16.152,13.413 C16.116,13.351 16.081,13.289 16.046,13.227 C16.006,13.158 15.967,13.088 15.929,13.019 C15.895,12.957 15.862,12.894 15.828,12.831 C15.791,12.762 15.755,12.693 15.719,12.624 C15.687,12.562 15.656,12.498 15.624,12.436 C15.591,12.368 15.557,12.3 15.524,12.232 C15.494,12.169 15.463,12.106 15.434,12.042 C15.403,11.976 15.372,11.909 15.342,11.843 C15.314,11.78 15.285,11.716 15.257,11.654 C15.229,11.588 15.201,11.524 15.173,11.458 C15.147,11.395 15.12,11.332 15.095,11.27 C15.069,11.206 15.043,11.143 15.018,11.08 C14.993,11.018 14.968,10.955 14.944,10.894 C14.921,10.832 14.897,10.77 14.875,10.709 C14.852,10.647 14.828,10.585 14.807,10.525 C14.785,10.465 14.764,10.407 14.744,10.348 C14.723,10.287 14.701,10.226 14.681,10.166 C14.661,10.109 14.643,10.054 14.624,9.998 C14.603,9.938 14.584,9.878 14.565,9.82 C14.547,9.766 14.531,9.714 14.514,9.662 C14.495,9.603 14.477,9.544 14.459,9.486 C14.444,9.438 14.431,9.391 14.417,9.343 C14.399,9.284 14.382,9.225 14.365,9.168 C14.352,9.126 14.342,9.085 14.33,9.043 C14.313,8.983 14.296,8.923 14.281,8.866 C14.272,8.835 14.265,8.806 14.257,8.776 C14.228,8.665 14.2,8.559 14.176,8.457 C14.167,8.424 14.16,8.394 14.152,8.362 C14.136,8.294 14.12,8.228 14.106,8.165 C14.097,8.13 14.09,8.098 14.083,8.064 C14.07,8.007 14.058,7.952 14.047,7.9 C14.04,7.87 14.033,7.839 14.027,7.811 C14.016,7.761 14.006,7.714 13.998,7.669 C13.992,7.643 13.987,7.617 13.982,7.592 C13.974,7.55 13.966,7.512 13.96,7.475 C13.955,7.454 13.951,7.43 13.947,7.41 C13.942,7.38 13.937,7.355 13.932,7.329 C13.922,7.269 13.913,7.218 13.907,7.182 C13.899,7.185 13.899,7.183 13.899,7.182 L13.899,7.182 Z M12.574,13.656 C12.574,11.705 13.246,9.267 13.428,8.643 C13.454,8.551 13.47,8.498 13.472,8.492 C13.485,8.436 13.502,8.37 13.523,8.3 C13.53,8.275 13.538,8.247 13.545,8.22 C13.55,8.203 13.554,8.188 13.56,8.17 C13.56,8.17 13.56,8.171 13.561,8.172 C13.561,8.176 13.563,8.181 13.564,8.185 C13.586,8.285 13.612,8.393 13.639,8.504 C13.648,8.541 13.658,8.577 13.666,8.615 C13.69,8.712 13.717,8.812 13.745,8.917 C13.753,8.947 13.76,8.976 13.768,9.007 C13.803,9.136 13.841,9.271 13.882,9.409 C13.894,9.45 13.906,9.492 13.919,9.534 C13.954,9.651 13.991,9.771 14.03,9.893 C14.042,9.93 14.052,9.964 14.064,10.001 C14.114,10.153 14.167,10.309 14.222,10.468 C14.237,10.51 14.252,10.553 14.268,10.596 C14.316,10.729 14.366,10.864 14.418,11.001 C14.433,11.042 14.448,11.082 14.465,11.123 C14.529,11.291 14.599,11.461 14.672,11.634 C14.69,11.675 14.707,11.716 14.726,11.758 C14.788,11.902 14.852,12.047 14.919,12.194 C14.94,12.238 14.96,12.282 14.981,12.326 C15.065,12.503 15.152,12.681 15.244,12.86 C15.263,12.898 15.283,12.934 15.303,12.971 C15.381,13.123 15.464,13.273 15.548,13.425 C15.573,13.47 15.599,13.516 15.625,13.562 C15.729,13.742 15.836,13.921 15.948,14.099 C15.968,14.13 15.989,14.161 16.009,14.192 C16.108,14.345 16.209,14.498 16.315,14.649 C16.346,14.694 16.377,14.739 16.409,14.784 C16.535,14.96 16.664,15.135 16.8,15.305 C16.819,15.327 16.837,15.35 16.855,15.372 C16.977,15.523 17.103,15.673 17.232,15.819 C17.27,15.861 17.307,15.904 17.345,15.946 C17.494,16.111 17.648,16.273 17.809,16.43 C17.821,16.442 17.834,16.453 17.847,16.465 C17.996,16.611 18.153,16.752 18.312,16.89 C18.335,16.91 18.357,16.932 18.38,16.952 L12.574,16.952 L12.574,13.656 L12.574,13.656 Z M12.574,17.477 L12.574,17.477 L19.053,17.477 L19.947,17.477 L33.766,17.477 L33.768,17.578 C33.771,17.579 33.775,17.579 33.778,17.579 L33.778,18.04 L33.778,18.471 L33.78,18.533 C33.781,18.547 33.853,19.975 33.003,20.884 C32.481,21.441 31.674,21.724 30.604,21.724 L12.575,21.724 L12.574,21.724 L12.574,17.477 L12.574,17.477 Z M4.773,22.815 C4.758,22.837 4.738,22.854 4.71,22.854 L4.51,22.854 L1.446,22.854 C1.401,22.854 1.365,22.818 1.365,22.774 C1.365,22.729 1.401,22.692 1.446,22.692 L4.51,22.692 L4.709,22.692 C4.737,22.692 4.758,22.71 4.772,22.731 C4.781,22.744 4.79,22.756 4.79,22.774 C4.791,22.79 4.782,22.802 4.773,22.815 L4.773,22.815 Z M31.217,23.27 C31.213,23.271 31.21,23.271 31.206,23.272 C31.012,23.29 30.81,23.298 30.603,23.298 L5.232,23.298 C5.211,23.298 5.194,23.297 5.177,23.295 C5.141,23.291 5.112,23.279 5.089,23.241 C5.226,23.13 5.316,22.962 5.316,22.773 C5.316,22.583 5.226,22.415 5.089,22.303 C5.089,22.303 5.089,22.303 5.089,22.302 C5.111,22.266 5.141,22.254 5.177,22.249 C5.194,22.247 5.211,22.247 5.232,22.247 L30.604,22.247 C31.825,22.247 32.761,21.908 33.386,21.241 C34.403,20.156 34.306,18.513 34.305,18.506 L34.305,17.625 L34.305,17.617 L34.305,17.527 L34.305,17.361 L34.305,17.097 L34.305,17.094 L34.305,16.583 L34.305,16.232 L34.305,15.881 L34.304,13.094 L34.304,12.742 L34.304,12.391 L34.304,7.921 L34.303,7.622 L34.303,7.323 L34.303,6.438 C34.303,5.037 34.701,4.001 35.286,3.245 C35.286,3.245 35.286,3.245 35.286,3.244 C35.361,3.147 35.438,3.054 35.519,2.966 C35.605,2.872 35.695,2.784 35.787,2.7 C36.798,1.775 38.106,1.442 38.992,1.423 C39.275,1.423 39.511,1.654 39.517,1.937 C39.523,2.226 39.294,2.466 39.004,2.474 C38.834,2.479 38.063,2.527 37.274,2.928 C37.165,2.983 37.056,3.046 36.948,3.115 C36.851,3.177 36.756,3.246 36.662,3.321 C35.95,3.891 35.353,4.843 35.353,6.439 L35.353,6.711 L35.353,7.02 L35.353,7.326 L35.353,11.461 L35.353,11.812 L35.353,12.163 L35.354,14.954 L35.354,15.305 L35.354,15.656 L35.354,16.599 L35.354,16.95 L35.354,17.219 L35.354,17.301 L35.354,17.483 L35.354,17.749 L35.354,18.452 C35.365,18.667 35.426,20.589 34.164,21.948 C33.558,22.6 32.755,23.015 31.773,23.194 C31.594,23.228 31.409,23.253 31.217,23.27 L31.217,23.27 Z M74.635,18.476 C74.635,18.538 74.633,18.597 74.629,18.656 C74.627,18.676 74.624,18.693 74.622,18.713 C74.619,18.75 74.616,18.788 74.611,18.823 C74.609,18.831 74.608,18.838 74.607,18.845 C74.563,19.154 74.482,19.374 74.48,19.376 C74.48,19.376 74.48,19.376 74.48,19.377 C74.477,19.384 74.473,19.39 74.47,19.397 C74.003,20.553 72.256,21.108 71,21.455 C70.792,21.513 70.597,21.564 70.424,21.612 C69.658,21.826 68.883,22.011 68.104,22.176 C66.709,22.471 65.298,22.697 63.889,22.868 C63.827,22.877 63.767,22.883 63.704,22.89 C61.503,23.151 59.366,23.15 57.166,23.184 C56.863,23.189 34.045,23.194 33.456,23.194 L33.389,23.194 C33.824,22.962 34.212,22.667 34.548,22.305 C35.928,20.819 35.898,18.812 35.878,18.438 L35.878,17.831 C36.364,17.912 36.819,18.006 37.235,18.114 C37.235,18.114 37.335,18.133 37.512,18.164 C37.648,18.188 37.828,18.22 38.051,18.258 C38.089,18.265 38.134,18.273 38.175,18.279 C38.433,18.323 38.735,18.374 39.076,18.428 C39.251,18.456 39.432,18.486 39.626,18.516 C39.668,18.523 39.707,18.529 39.748,18.535 C40.678,18.681 41.582,18.809 42.448,18.922 C42.64,18.947 42.835,18.972 43.023,18.995 C43.063,19 43.101,19.004 43.141,19.009 C43.474,19.05 43.799,19.087 44.119,19.121 C44.32,19.143 44.52,19.165 44.715,19.184 C44.753,19.188 44.79,19.191 44.829,19.195 C45.929,19.302 46.904,19.368 47.742,19.392 C47.97,19.398 48.19,19.402 48.397,19.402 L48.523,19.402 L58.494,19.402 C58.546,19.401 63.775,19.353 68.154,18.722 C68.71,18.658 73.433,18.068 74.232,16.441 C74.441,16.448 74.542,16.578 74.589,16.687 C74.619,16.756 74.63,16.817 74.632,16.834 L74.632,18.476 L74.635,18.476 Z" id="Shape" sketch:type="MSShapeGroup"></path>
        </g>
    </g>
</svg>