<?xml version="1.0" encoding="UTF-8" standalone="no"?>
<svg width="284px" height="125px" viewBox="0 0 284 125" version="1.1" xmlns="http://www.w3.org/2000/svg" xmlns:xlink="http://www.w3.org/1999/xlink" xmlns:sketch="http://www.bohemiancoding.com/sketch/ns">
    <!-- Generator: Sketch 3.1.1 (8761) - http://www.bohemiancoding.com/sketch -->
    <title>noun_38030_cc</title>
    <desc>Created with Sketch.</desc>
    <defs></defs>
    <g id="Page-1" stroke="none" stroke-width="1" fill="none" fill-rule="evenodd" sketch:type="MSPage">
        <g id="noun_38030_cc" sketch:type="MSLayerGroup" transform="translate(1.000000, 0.000000)" fill="#000000">
            <path d="M253.530758,77.3385882 C252.917256,77.3385882 252.336545,76.9807059 252.082682,76.3824706 C251.744199,75.5809412 252.117588,74.6597647 252.917256,74.3177647 C253.712693,73.9768235 254.638235,74.3495294 254.978834,75.15 C255.317318,75.9515294 254.943928,76.8737647 254.148491,77.2125882 C253.944343,77.2994118 253.734906,77.3385882 253.530758,77.3385882 L253.530758,77.3385882 Z M252.260386,68.1469412 C252.979664,67.6524706 253.159484,66.672 252.663394,65.9572941 C252.175765,65.2404706 251.194162,65.0572941 250.480173,65.5517647 C249.760895,66.0472941 249.581076,67.0224706 250.077166,67.7414118 C250.380744,68.1829412 250.872603,68.4222353 251.371866,68.4222353 C251.679675,68.4222353 251.991715,68.3311765 252.266733,68.1469412 L252.260386,68.1469412 L252.260386,68.1469412 Z M259.152762,74.5147059 C259.419318,74.5147059 259.694336,74.4490588 259.939736,74.3050588 C260.691805,73.8688235 260.947783,72.9063529 260.50987,72.1556471 C260.074072,71.3996471 259.113625,71.1434118 258.361556,71.5796471 C257.611603,72.0158824 257.355625,72.9783529 257.787191,73.7343529 C258.080191,74.2372941 258.609072,74.5147059 259.152762,74.5147059 L259.152762,74.5147059 Z M264.405606,71.0565882 C264.730339,71.0565882 265.05613,70.9581176 265.33961,70.7516471 C266.035617,70.236 266.184762,69.2449412 265.668574,68.5482353 C265.152386,67.8504706 264.166552,67.7011765 263.46843,68.2189412 C262.770307,68.7356471 262.623278,69.7214118 263.139466,70.4234118 C263.44939,70.8374118 263.92644,71.0565882 264.405606,71.0565882 L264.405606,71.0565882 Z M195.854184,87.0776471 C196.205361,87.0776471 196.537498,86.8732941 196.682412,86.5281176 L197.729596,84.0409412 C197.924224,83.5814118 197.710556,83.0541176 197.252545,82.8635294 C196.797708,82.6676471 196.268827,82.8847059 196.075256,83.34 L195.028072,85.8282353 C194.833444,86.2877647 195.04817,86.814 195.505123,87.0045882 C195.620419,87.0543529 195.73783,87.0776471 195.854184,87.0776471 L195.854184,87.0776471 Z M200.399386,75.4051765 C200.512567,75.4528235 200.631036,75.474 200.748448,75.474 C201.099625,75.474 201.431762,75.2685882 201.576675,74.9244706 L202.625975,72.4383529 C202.818487,71.9788235 202.604819,71.4515294 202.148924,71.2598824 C201.689856,71.0650588 201.165206,71.2810588 200.96952,71.7374118 L199.92022,74.2245882 C199.729823,74.6862353 199.942433,75.2135294 200.399386,75.4051765 L200.399386,75.4051765 Z M197.952783,81.2064706 C198.065964,81.2562353 198.184433,81.2774118 198.301845,81.2774118 C198.650906,81.2774118 198.984101,81.0709412 199.130072,80.7257647 L200.177256,78.2396471 C200.369769,77.7801176 200.155043,77.2528235 199.700206,77.0601176 C199.240079,76.8674118 198.713314,77.0823529 198.520801,77.5397647 L197.473617,80.0269412 C197.278989,80.4854118 197.496888,81.0137647 197.952783,81.2064706 L197.952783,81.2064706 Z M140.543823,73.5712941 C140.786051,73.7491765 141.05578,73.8465882 141.332913,73.8709412 C141.86391,73.9185882 142.405484,73.6994118 142.74291,73.2356471 C143.256982,72.5368235 143.105722,71.5457647 142.409715,71.0332941 C141.711592,70.5187059 140.721527,70.6669412 140.207455,71.3657647 C139.69444,72.072 139.844643,73.0567059 140.543823,73.5712941 L140.543823,73.5712941 Z M135.221166,80.8157647 C135.457047,80.9957647 135.732065,81.0910588 136.009199,81.1175294 C136.538079,81.1651765 137.077538,80.9417647 137.417079,80.4822353 C137.930094,79.7812941 137.784123,78.7965882 137.083884,78.282 C136.383646,77.7631765 135.402043,77.9114118 134.881625,78.6165882 C134.365437,79.3143529 134.517755,80.3022353 135.221166,80.8157647 L135.221166,80.8157647 Z M151.193368,59.0781176 C151.435596,59.2581176 151.710614,59.3544706 151.983516,59.3788235 C152.516628,59.4264706 153.053971,59.2041176 153.391397,58.7424706 C153.904412,58.0436471 153.760556,57.06 153.058202,56.5390588 C152.360079,56.0255294 151.375303,56.1769412 150.859116,56.8747059 C150.342928,57.5809412 150.494188,58.5645882 151.193368,59.0781176 L151.193368,59.0781176 Z M145.869653,66.3268235 C146.10765,66.5025882 146.382668,66.5989412 146.660859,66.6232941 C147.186567,66.6698824 147.732372,66.4496471 148.070856,65.9922353 C148.58387,65.2881176 148.434726,64.3044706 147.731314,63.7888235 C147.031076,63.2752941 146.048415,63.4245882 145.534343,64.1244706 C145.021329,64.8243529 145.170473,65.808 145.869653,66.3268235 L145.869653,66.3268235 Z M129.89322,88.0634118 C130.135448,88.2391765 130.405177,88.3344706 130.68231,88.3588235 C131.211191,88.4064706 131.753823,88.1851765 132.093365,87.7277647 C132.606379,87.0247059 132.456177,86.0378824 131.756996,85.5232941 C131.053585,85.0108235 130.070924,85.1590588 129.55791,85.8578824 C129.043838,86.5598824 129.195097,87.5467059 129.89322,88.0634118 L129.89322,88.0634118 Z M78.8710253,58.6778824 C78.9884368,58.6778824 79.1090217,58.6556471 79.2243177,58.6048235 C80.0641805,58.2437647 80.8913502,57.8795294 81.7068845,57.5152941 C82.1606643,57.3130588 82.3637545,56.7804706 82.1606643,56.3262353 C81.957574,55.8730588 81.4265776,55.6697647 80.9727978,55.8730588 C80.1657256,56.2351765 79.3459603,56.5962353 78.5156173,56.9530588 C78.059722,57.1489412 77.8492274,57.6783529 78.0438556,58.1336471 C78.1908845,58.4745882 78.5219639,58.6778824 78.8710253,58.6778824 L78.8710253,58.6778824 Z M73.0427581,61.056 C73.1495921,61.056 73.2595993,61.0358824 73.3653755,60.9956471 C74.2158159,60.6663529 75.0567365,60.3338824 75.8870794,59.9982353 C76.3472058,59.8118824 76.5693357,59.2877647 76.3831697,58.8261176 C76.1970036,58.3655294 75.6723538,58.1442353 75.2132852,58.3305882 C74.3914043,58.662 73.5600036,58.9923529 72.7180253,59.3174118 C72.2547256,59.4974118 72.0241336,60.0172941 72.2039531,60.4810588 C72.3414621,60.8368235 72.6820614,61.056 73.0427581,61.056 L73.0427581,61.056 Z M67.1288123,63.2107059 C67.2250686,63.2107059 67.3234404,63.1937647 67.4196968,63.162 C68.2807148,62.8665882 69.1343285,62.5658824 69.9784224,62.2609412 C70.4448953,62.0925882 70.6871227,61.5769412 70.5178809,61.11 C70.348639,60.6430588 69.833509,60.4005882 69.3680939,60.5689412 C68.5324621,60.8696471 67.689426,61.1661176 66.8379278,61.4583529 C66.3682816,61.6192941 66.1165343,62.1307059 66.2783718,62.6008235 C66.406361,62.9745882 66.7543646,63.2107059 67.1288123,63.2107059 L67.1288123,63.2107059 Z M61.1355343,65.1292941 C61.221213,65.1292941 61.3068917,65.1176471 61.3925704,65.0922353 C62.2641661,64.8328235 63.1283574,64.566 63.9851444,64.2938824 C64.4579639,64.1424706 64.719231,63.6384706 64.5700866,63.1662353 C64.4198845,62.6918824 63.9142744,62.4292941 63.4414549,62.5796471 C62.5952455,62.8485882 61.740574,63.1111765 60.8784982,63.3684706 C60.4035632,63.5103529 60.1317184,64.0101176 60.2745162,64.4876471 C60.39087,64.8772941 60.7483935,65.1292941 61.1355343,65.1292941 L61.1355343,65.1292941 Z M84.6072671,56.0890588 C84.7363141,56.0890588 84.8664188,56.0615294 84.9901769,56.0032941 C85.8194621,55.6094118 86.6339386,55.2176471 87.4325487,54.8237647 C87.8778664,54.6045882 88.061917,54.0667059 87.8429603,53.6198824 C87.6229458,53.1741176 87.0856029,52.9888235 86.6402852,53.2090588 C85.8490794,53.5976471 85.043065,53.9872941 84.2232996,54.3758824 C83.7737509,54.5876471 83.582296,55.1244706 83.7938484,55.5734118 C83.9482816,55.8984706 84.2708989,56.0890588 84.6072671,56.0890588 L84.6072671,56.0890588 Z M48.9384838,68.2104706 C48.9987762,68.2104706 49.0601264,68.2041176 49.1214765,68.1914118 C50.0110542,68.0071765 50.895343,67.8165882 51.7732852,67.6164706 C52.2577401,67.5063529 52.5613177,67.0245882 52.4513105,66.5407059 C52.3413032,66.0557647 51.8579061,65.7508235 51.3766245,65.862 C50.5092599,66.0578824 49.6355487,66.2463529 48.7576065,66.4284706 C48.2710361,66.5301176 47.9579386,67.0065882 48.0594838,67.4936471 C48.147278,67.9192941 48.5217256,68.2104706 48.9384838,68.2104706 L48.9384838,68.2104706 Z M55.0703285,66.8011765 C55.1433141,66.8011765 55.2173574,66.7916471 55.290343,66.7736471 C56.1714585,66.5512941 57.0472852,66.3215294 57.9146498,66.0854118 C58.3938159,65.9541176 58.6762383,65.4607059 58.5461336,64.9810588 C58.4149711,64.5024706 57.9231119,64.2187059 57.4428881,64.35 C56.5850433,64.5829412 55.7219097,64.8105882 54.8503141,65.0297647 C54.3690325,65.1515294 54.078148,65.6407059 54.1997906,66.1214118 C54.3023935,66.5301176 54.6683791,66.8011765 55.0703285,66.8011765 L55.0703285,66.8011765 Z M101.224704,47.124 C101.384426,47.124 101.545206,47.0816471 101.691177,46.9916471 C102.494018,46.5024706 103.263011,46.0238824 103.997097,45.5590588 C104.415971,45.2943529 104.541845,44.7384706 104.276347,44.3191765 C104.010848,43.8998824 103.455523,43.7738824 103.03665,44.0385882 C102.311025,44.4981176 101.550495,44.9703529 100.756116,45.4552941 C100.333011,45.7136471 100.198675,46.2663529 100.456769,46.6909412 C100.626011,46.9694118 100.922184,47.124 101.224704,47.124 L101.224704,47.124 Z M106.539957,43.7410588 C106.710256,43.7410588 106.882671,43.6934118 107.034989,43.5917647 C107.848408,43.0528235 108.599419,42.5424706 109.285906,42.0691765 C109.694202,41.7864706 109.796805,41.2274118 109.51544,40.8176471 C109.233018,40.4078824 108.673462,40.3051765 108.265166,40.5878824 C107.588199,41.0548235 106.84565,41.5588235 106.042809,42.0914118 C105.628166,42.3656471 105.514986,42.9247059 105.790004,43.3387059 C105.962419,43.6002353 106.248014,43.7410588 106.539957,43.7410588 L106.539957,43.7410588 Z M98.498852,15.0056471 C98.6120325,15.0522353 98.7305018,15.0744706 98.8457978,15.0744706 C99.1969747,15.0744706 99.5301697,14.8669412 99.675083,14.5228235 C100.005105,13.7329412 100.397534,12.8551765 100.839679,11.9107059 C101.050173,11.4607059 100.856603,10.9249412 100.407054,10.7142353 C99.9575054,10.5035294 99.422278,10.6972941 99.2117834,11.1462353 C98.7590614,12.1129412 98.3571119,13.0150588 98.0175704,13.8271765 C97.8261155,14.2867059 98.0418989,14.814 98.498852,15.0056471 L98.498852,15.0056471 Z M97.0708736,21.5714118 C97.0856823,21.5724706 97.100491,21.5724706 97.1163574,21.5724706 C97.5923502,21.5724706 97.9890108,21.1987059 98.0133394,20.718 C98.0535343,19.9154118 98.1931588,19.0376471 98.4406751,18.0328235 C98.5591444,17.55 98.2650866,17.0629412 97.7827473,16.9443529 C97.3004079,16.8236471 96.8138375,17.1201176 96.6953682,17.6029412 C96.4203502,18.72 96.2638014,19.71 96.2183177,20.628 C96.1939892,21.1245882 96.5758412,21.5470588 97.0708736,21.5714118 L97.0708736,21.5714118 Z M90.2493682,53.2958824 C90.387935,53.2958824 90.5296751,53.2630588 90.6608375,53.1942353 C91.4784874,52.7728235 92.2781552,52.3503529 93.0608989,51.9321176 C93.4988123,51.6970588 93.6627653,51.1517647 93.429,50.7144706 C93.1941769,50.2761176 92.6494296,50.1109412 92.212574,50.346 C91.4393502,50.7610588 90.6470866,51.1792941 89.8368412,51.5975294 C89.3957545,51.8251765 89.2233394,52.3683529 89.4507581,52.8088235 C89.6094224,53.118 89.9235776,53.2958824 90.2493682,53.2958824 L90.2493682,53.2958824 Z M95.7920397,50.3068235 C95.9411841,50.3068235 96.092444,50.2687059 96.2320686,50.1914118 C97.0401986,49.7371765 97.8250578,49.2871765 98.5855884,48.8445882 C99.0139819,48.5947059 99.1599531,48.0441176 98.9103213,47.6142353 C98.6606895,47.1843529 98.1106534,47.0392941 97.6812022,47.2891765 C96.9280758,47.7275294 96.1506209,48.1732941 95.3509531,48.6232941 C94.9183285,48.8668235 94.7638953,49.4142353 95.0071805,49.8483529 C95.1721913,50.1416471 95.4768267,50.3068235 95.7920397,50.3068235 L95.7920397,50.3068235 Z M282.224661,94.8091765 L282.196101,95.0082353 C281.923199,96.7881176 281.289599,100.956706 274.560119,105.374118 C267.418112,110.064706 254.813823,114.111529 237.096314,117.401294 C204.108957,123.526588 147.470047,124.190471 108.714715,124.190471 C102.82404,124.190471 97.349065,124.173529 92.4294152,124.160824 C88.3697256,124.149176 84.6791949,124.138588 81.438213,124.138588 C48.3757545,124.138588 16.2409531,121.534941 9.80447292,120.424235 C0.76166787,118.863529 0.76166787,111.117176 0.76166787,105.460941 L0.76166787,92.5274118 C0.76166787,91.8148235 0.982740072,91.1572941 1.35824549,90.6130588 C0.162974729,83.6163529 -1.58127437,68.076 1.89347292,49.0256471 C5.3438917,30.1118824 7.61490614,24.4323529 12.0162527,23.7007059 C13.688574,23.4243529 16.1330614,23.8955294 18.2707978,27.7242353 C18.4812924,28.1011765 18.6399567,28.5024706 18.8790108,29.1112941 C26.2484368,47.8164706 44.3139495,45.6871765 50.2501083,44.9883529 C70.0249639,42.66 78.597065,39.5809412 87.0189639,35.0068235 C82.5467473,29.0392941 81.5175451,21.7471765 84.0656931,13.6736471 C86.2319892,6.80505882 90.2853321,1.79364706 90.4566895,1.584 C91.4129061,0.414 93.0291661,0.0232941176 94.4137762,0.626823529 L124.200347,13.6323529 C124.295545,12.654 124.813848,11.7254118 125.697079,11.1409412 C127.250931,10.1138824 129.341069,10.5437647 130.367097,12.0970588 L134.281874,18.0338824 L145.246632,22.8218824 C146.85443,23.3661176 148.788018,24.0257647 150.981816,24.7754118 C151.074899,23.2655294 152.176029,21.9557647 153.729881,21.6677647 C155.558751,21.33 157.319924,22.5402353 157.655235,24.372 L158.184116,27.2435294 C160.30387,27.972 162.541036,28.7417647 164.862823,29.5411765 C164.666079,27.7687059 165.883563,26.1328235 167.661661,25.8395294 C169.496877,25.5388235 171.231606,26.784 171.535184,28.6210588 L172.093682,32.0336471 C174.332964,32.8076471 176.61244,33.5943529 178.905668,34.3884706 C178.76287,32.6816471 179.935928,31.1135294 181.652675,30.7958824 C183.480487,30.4549412 185.242718,31.6683529 185.580144,33.5001176 L186.211628,36.9169412 C188.424466,37.6845882 190.622495,38.4458824 192.77504,39.1944706 C192.885047,37.6835294 194.003101,36.3811765 195.564357,36.1132941 C197.395343,35.7988235 199.14065,37.0312941 199.454805,38.8672941 L199.942433,41.6869412 C202.279029,42.5022353 204.524657,43.2847059 206.635949,44.0237647 C206.625372,42.3984706 207.78891,40.9584706 209.439018,40.6789412 C211.274235,40.3676471 213.013195,41.6043529 213.325235,43.4392941 L213.852,46.5543529 C216.585256,47.5178824 218.858386,48.3236471 220.525419,48.924 C220.694661,47.5168235 221.74396,46.3129412 223.211076,46.0207059 C225.035715,45.6564706 226.811697,46.8402353 227.175567,48.6667059 L227.789069,51.7510588 C229.408502,52.4308235 231.072361,53.1847059 232.747856,54.0677647 C232.97739,54.0910588 233.21856,54.1164706 233.474538,54.1461176 C254.954505,56.6057647 268.674733,60.2544706 274.304141,64.6485882 C281.823769,70.5271765 283.980545,84.2707059 282.224661,94.8091765 L282.224661,94.8091765 Z M243.380477,62.3244706 C247.277271,66.8001176 250.578545,72.9794118 252.524827,81.8438824 C264.381278,78.6007059 270.070978,75.4210588 272.800004,73.1107059 C272.052166,71.8401176 271.172108,70.7654118 270.153484,69.9712941 C266.577191,67.1781176 257.044643,64.4823529 243.380477,62.3244706 L243.380477,62.3244706 Z M109.181188,29.4458824 C108.992906,29.5782353 108.799336,29.7137647 108.604708,29.8503529 C111.21209,31.1643529 114.432975,32.4582353 118.239859,33.7150588 C129.364339,37.3870588 153.77748,45.0052941 177.388838,52.3725882 C196.842134,58.4438824 215.220744,64.1784706 222.887401,66.6910588 C228.937798,68.6763529 232.919213,70.4890588 235.96874,74.9890588 C236.12952,74.5358824 236.617148,74.2870588 237.080448,74.43 L239.656097,75.2304706 C240.131032,75.3765882 240.393357,75.8795294 240.25056,76.3549412 C240.131032,76.7403529 239.775625,76.9891765 239.391657,76.9891765 C239.304921,76.9891765 239.211838,76.9754118 239.127217,76.9478824 L236.732444,76.2067059 C238.011278,78.4016471 239.127217,81.1662353 240.176516,84.7461176 C242.229632,84.3289412 244.164278,83.9107059 245.983628,83.4882353 C245.610238,81.7708235 245.190307,80.1688235 244.715372,78.6822353 L242.560711,78.012 C242.085776,77.8648235 241.81922,77.3618824 241.967307,76.8875294 C242.11222,76.4142353 242.614657,76.1495294 243.09065,76.2945882 L243.97917,76.5709412 C240.470574,67.2511765 234.884534,62.7268235 229.016072,59.7367059 C228.686051,60.9257647 227.720314,61.8903529 226.433018,62.1476471 C226.20983,62.1921176 225.986643,62.2132941 225.767686,62.2132941 C224.193736,62.2132941 222.790087,61.1047059 222.466412,59.5005882 L221.896278,56.6502353 C221.846563,56.6290588 221.794733,56.61 221.74396,56.5898824 L220.814188,56.2214118 C220.105487,55.9408235 218.092567,55.2144706 215.142469,54.1694118 L215.226032,54.6638824 C215.537014,56.4988235 214.300491,58.2416471 212.465274,58.5529412 C212.274877,58.5857647 212.086596,58.6016471 211.899372,58.6016471 C210.285227,58.6016471 208.858307,57.4369412 208.581173,55.7915294 L207.872473,51.6123529 C205.825704,50.8944706 203.600173,50.1172941 201.245596,49.2956471 L201.544942,51.0427059 C201.859097,52.8776471 200.627863,54.6225882 198.794762,54.9391765 C198.602249,54.972 198.408679,54.9878824 198.220397,54.9878824 C196.609426,54.9878824 195.185679,53.8284706 194.902199,52.1862353 L193.97031,46.764 C191.900271,46.044 189.773112,45.3070588 187.617394,44.5584706 L187.905105,46.1244706 C188.242531,47.9562353 187.035625,49.7170588 185.203581,50.0548235 C184.998375,50.0929412 184.787881,50.112 184.585848,50.112 C182.992859,50.112 181.575458,48.9748235 181.278227,47.3495294 L180.294509,42.0215294 C177.966375,41.2157647 175.636126,40.41 173.330206,39.6137647 L173.618975,41.3692941 C173.920437,43.2074118 172.676509,44.9428235 170.840235,45.2445882 C170.654069,45.2742353 170.470018,45.2890588 170.289141,45.2890588 C168.66865,45.2890588 167.237498,44.1158824 166.966711,42.462 L166.088769,37.1149412 C163.852661,36.3430588 161.674729,35.5923529 159.586708,34.8723529 L159.931538,36.7401176 C160.267906,38.5718824 159.059942,40.3316471 157.228957,40.6694118 C157.022693,40.7075294 156.815372,40.7255294 156.613339,40.7255294 C155.018235,40.7255294 153.600834,39.5894118 153.303603,37.9641176 L152.268054,32.3587059 C149.607783,31.4470588 147.215126,30.6275294 145.19057,29.9371765 C144.806603,29.9149412 144.418404,29.8291765 144.043957,29.6650588 L142.8233,29.1324706 C142.246819,28.9376471 141.718996,28.7587059 141.23983,28.5977647 L143.282368,31.6916471 C144.307339,33.2470588 143.878946,35.3382353 142.327209,36.3652941 C141.756018,36.7432941 141.110783,36.9232941 140.472953,36.9232941 C139.379227,36.9232941 138.307715,36.3907059 137.658249,35.4081176 L131.208018,25.6288235 C118.86817,22.662 115.326783,25.1364706 109.181188,29.4458824 L109.181188,29.4458824 Z M195.284051,89.8432941 L195.17087,90.1154118 C209.403054,89.1889412 222.653635,87.8696471 233.514733,86.0008235 C230.567809,76.3157647 227.467509,75.2950588 220.789859,73.1032941 C217.30665,71.9618824 211.577812,70.1417647 204.531004,67.9277647 L204.024336,69.1242353 C203.881538,69.4672941 203.550458,69.6748235 203.199282,69.6748235 C203.08187,69.6748235 202.962343,69.6525882 202.848105,69.6049412 C202.390094,69.4111765 202.177484,68.8838824 202.37317,68.4264706 L202.808968,67.3898824 C202.56674,67.3125882 202.317108,67.2352941 202.069592,67.1569412 C202.069592,67.1569412 194.701224,64.8465882 184.281213,61.5758824 L162.267076,91.5818824 C165.411801,91.4908235 168.557585,91.4082353 171.695964,91.2928235 L187.906162,90.5527059 C189.672625,90.4542353 191.427451,90.3536471 193.168527,90.2445882 L193.631827,89.1455294 C193.824339,88.6881176 194.355336,88.4731765 194.809116,88.6669412 C195.262895,88.8554118 195.475505,89.3848235 195.284051,89.8432941 L195.284051,89.8432941 Z M149.75587,50.7345882 L119.224635,92.2288235 L126.754841,92.2002353 C129.698592,92.1801176 132.711097,92.1515294 135.751105,92.1176471 L163.051935,54.9116471 C158.613567,53.5182353 154.119137,52.1057647 149.75587,50.7345882 L149.75587,50.7345882 Z M92.9350253,31.6143529 C93.3115884,31.392 93.6913249,31.1664706 94.0784657,30.9367059 C95.6756859,29.9869412 97.3279097,29.0054118 99.133509,27.9624706 C99.2160144,27.9148235 99.293231,27.8671765 99.3746787,27.8195294 C99.2953466,27.8417647 99.2138989,27.8597647 99.1324513,27.8597647 C98.8648375,27.8597647 98.5993394,27.7401176 98.4226931,27.5114118 C97.7457256,26.6410588 97.2189603,25.7241176 96.856148,24.786 C96.6773863,24.3222353 96.9058628,23.8002353 97.3691625,23.6212941 C97.8324621,23.4423529 98.3528809,23.6721176 98.5316426,24.1348235 C98.8320469,24.9098824 99.2720758,25.6754118 99.8422094,26.4081176 C100.120401,26.766 100.082321,27.2678824 99.7734549,27.5844706 C101.863592,26.3382353 103.616303,25.1121176 105.312953,23.922 C109.351487,21.0896471 112.790271,18.9010588 117.405285,18.0317647 L94.2128014,7.90517647 C91.329343,12.312 85.8385018,22.9425882 92.9350253,31.6143529 L92.9350253,31.6143529 Z M8.29293141,51.57 C16.7730072,52.3810588 20.1779422,52.5144706 28.6812888,52.5144706 C31.7117762,52.5144706 34.1996318,52.0792941 36.2643827,51.4143529 C30.6243971,50.3756471 25.7660975,48.1743529 21.7423718,44.8157647 C16.254704,40.2384706 13.8874332,34.794 12.8042852,32.0802353 C11.8089314,34.6447059 10.4126859,39.8890588 8.52458123,50.2432941 C8.44313357,50.6869412 8.36909025,51.1284706 8.29293141,51.57 L8.29293141,51.57 Z M7.24363177,59.238 C9.20154874,59.5884706 11.211296,59.9622353 13.262296,60.3603529 C25.3905921,62.7109412 35.3367256,65.0085882 43.6200578,67.3983529 C44.1552852,67.302 44.6873394,67.2109412 45.2310289,67.1114118 C45.7207726,67.0256471 46.1946498,67.3475294 46.2835018,67.8345882 C46.3057148,67.9531765 46.3025415,68.0728235 46.2792708,68.1850588 C52.8596065,70.1883529 58.3314079,72.2657647 62.9813285,74.502 C70.6850072,78.2047059 75.4269531,82.4145882 78.5219639,87.4355294 L79.5839567,89.3107059 C80.0705271,90.2488235 80.510556,91.2134118 80.9093321,92.2076471 L81.4392708,92.2076471 C84.6855415,92.2076471 88.3824188,92.2192941 92.4495126,92.2298824 C92.6198123,92.2298824 92.7964585,92.2309412 92.9678159,92.2309412 L128.743433,44.1222353 C121.997029,41.9961176 117.241332,40.4904706 116.128567,40.1230588 C115.158599,39.8022353 114.229884,39.4803529 113.330787,39.1563529 C113.026152,39.3861176 112.669686,39.654 112.24235,39.9674118 C112.082628,40.0849412 111.896462,40.1421176 111.712412,40.1421176 C111.435278,40.1421176 111.162375,40.0150588 110.986787,39.7736471 C110.693787,39.3734118 110.780523,38.8101176 111.180357,38.5168235 C111.232188,38.4787059 111.276614,38.4458824 111.326329,38.4088235 C107.6633,36.9910588 104.646563,35.5267059 102.198903,33.9829412 C100.546679,34.9401176 99.0065776,35.8549412 97.5183069,36.738 C85.5306931,43.8596471 77.6101733,48.564 51.0402563,51.6938824 C50.0491336,51.8082353 49.0802238,51.8918824 48.1229495,51.9596471 C42.9705921,56.8662353 36.6081552,59.2612941 28.6812888,59.2612941 C19.797148,59.2612941 16.321343,59.1204706 7.35258123,58.2575294 C7.31555957,58.5857647 7.27748014,58.9129412 7.24363177,59.238 L7.24363177,59.238 Z M275.245549,79.7230588 C268.170181,84.6677647 255.592336,88.7802353 237.096314,92.2161176 C204.108957,98.3414118 147.470047,99.0052941 108.714715,99.0052941 C102.82404,99.0052941 97.349065,98.9883529 92.4294152,98.9767059 C88.3697256,98.964 84.6791949,98.9544706 81.438213,98.9544706 C48.6285596,98.9544706 16.7317545,96.39 9.95679061,95.2665882 L7.50172563,95.0654118 L7.50172563,105.466235 C7.50172563,112.104 7.98512274,113.269765 10.9489711,113.781176 C17.2162094,114.862235 48.7565487,117.396 81.438213,117.396 C84.6844838,117.396 88.381361,117.408706 92.4484549,117.418235 C129.507137,117.524118 198.485895,117.713647 235.865079,110.772 C260.495061,106.195765 274.581274,100.239882 275.531144,93.9938824 L275.576628,93.7027059 C276.309657,89.3138824 276.21869,84.2018824 275.245549,79.7230588 L275.245549,79.7230588 Z M179.163762,79.9697647 C178.465639,79.4551765 177.475574,79.6034118 176.961502,80.3022353 C176.449545,81.0074118 176.59869,81.9921176 177.29787,82.5067059 C177.540097,82.6845882 177.809827,82.782 178.08696,82.8063529 C178.617957,82.854 179.159531,82.6348235 179.496957,82.1710588 C180.012087,81.4732941 179.860827,80.4822353 179.163762,79.9697647 L179.163762,79.9697647 Z M173.836874,87.2184706 C173.137693,86.6996471 172.155032,86.8478824 171.635671,87.5530588 C171.120542,88.2497647 171.272859,89.2387059 171.975213,89.7511765 C172.211094,89.9311765 172.486112,90.0264706 172.763245,90.0529412 C173.293184,90.1005882 173.831585,89.8771765 174.171126,89.4176471 C174.684141,88.7177647 174.537112,87.7330588 173.836874,87.2184706 L173.836874,87.2184706 Z M189.813307,65.4755294 C189.115184,64.962 188.130408,65.1134118 187.61422,65.8111765 C187.09909,66.5163529 187.249292,67.5 187.948473,68.0135294 C188.1907,68.1945882 188.465718,68.2898824 188.738621,68.3142353 C189.271733,68.3618824 189.809076,68.1405882 190.146502,67.6778824 C190.660574,66.9790588 190.515661,65.9964706 189.813307,65.4755294 L189.813307,65.4755294 Z M184.486419,72.7252941 C183.786181,72.2107059 182.80352,72.3610588 182.289448,73.0598824 C181.777491,73.7587059 181.925578,74.7434118 182.624758,75.2622353 C182.862755,75.438 183.137773,75.5332941 183.415964,75.5576471 C183.941671,75.6052941 184.487477,75.384 184.82596,74.9265882 C185.338975,74.2224706 185.18983,73.2398824 184.486419,72.7252941 L184.486419,72.7252941 Z" id="Shape" sketch:type="MSShapeGroup"></path>
        </g>
    </g>
</svg>