<?xml version="1.0" encoding="utf-8"?>
<!-- Generator: Adobe Illustrator 16.0.0, SVG Export Plug-In . SVG Version: 6.00 Build 0)  -->
<!DOCTYPE svg PUBLIC "-//W3C//DTD SVG 1.1//EN" "http://www.w3.org/Graphics/SVG/1.1/DTD/svg11.dtd">
<svg version="1.1" id="Calque_1" xmlns="http://www.w3.org/2000/svg" xmlns:xlink="http://www.w3.org/1999/xlink" x="0px" y="0px"
	 width="100px" height="100px" viewBox="0 0 100 100" enable-background="new 0 0 100 100" xml:space="preserve">
<path fill="#FFFFFF" stroke="#FFFFFF" stroke-miterlimit="10" d="M59.567,61.615c-6.377,4.553-12.716,4.592-19.176-0.02
	c-1.645,3.188-4.753,4.391-7.762,5.756c-5.678,2.549-11.334,5.154-17.011,7.723c-7.161,3.209-14.583-1.586-14.603-9.449
	c-0.021-10.289-0.021-20.561,0-30.85c0.02-7.705,7.462-12.537,14.482-9.408c6.699,3.008,13.379,6.076,20.06,9.107
	c2.066,0.941,3.65,2.387,4.854,4.391c6.359-4.553,12.737-4.592,19.156,0.021c1.444-2.689,3.913-4.053,6.561-5.217
	c6.078-2.707,12.115-5.494,18.192-8.225c7.262-3.248,14.644,1.547,14.665,9.469c0.019,10.213,0.019,20.422,0,30.609
	c0,7.943-7.403,12.76-14.645,9.51c-6.617-2.988-13.238-6.018-19.859-9.008C62.375,65.084,60.752,63.619,59.567,61.615z
	 M35.236,61.836c-0.12-0.082-0.241-0.162-0.36-0.262c0.18-0.523,0.22-1.186,0.581-1.523c1.766-1.625,1.826-1.668,0.842-3.832
	c-0.02-0.043-0.04-0.082-0.04-0.1c-0.221-1.006-0.863-1.062-1.746-0.885c-2.327,0.502-4.674,0.963-7.041,1.324
	c-0.441,0.061-1.224-0.24-1.364-0.582c-0.301-0.682,0.321-1.002,0.923-1.123c0.722-0.16,1.424-0.301,2.146-0.441
	c2.006-0.441,4.032-0.861,6.018-1.305c-0.1-1.945-0.1-1.945-1.785-1.945c-0.381,0-0.822,0.1-1.143-0.039
	c-0.301-0.141-0.722-0.541-0.702-0.805c0.041-0.34,0.381-0.74,0.702-0.922c0.301-0.158,0.762-0.039,1.143-0.039
	c1.806,0,1.846-0.061,1.706-1.986c-2.608-0.541-5.237-1.102-7.864-1.664c-0.661-0.141-1.404-0.301-1.183-1.205
	c0.201-0.76,0.882-0.703,1.524-0.582c1.886,0.381,3.771,0.725,5.677,1.064c2.386,0.441,2.247,0.361,3.53-1.645
	c0.923-1.426,0.562-2.488-0.4-3.49c-0.702-0.742-1.524-1.465-2.427-1.889c-6.621-3.086-13.28-6.096-19.96-9.084
	c-4.593-2.064-9.227,0.943-9.247,5.998c-0.02,9.969-0.02,19.959,0.02,29.928c0,1.023,0.12,2.086,0.401,3.07
	c0.903,3.168,4.774,5.656,8.987,3.67c5.997-2.807,12.056-5.496,18.074-8.244C33.251,62.836,34.234,62.316,35.236,61.836z
	 M64.684,61.734c0.5,0.279,0.904,0.562,1.344,0.762c1.324,0.623,2.668,1.225,3.993,1.826c5.294,2.406,10.569,4.834,15.864,7.221
	c3.191,1.443,6.541,0.621,8.166-2.225c0.7-1.246,1.083-2.83,1.103-4.275c0.102-10.088,0.08-20.18,0.038-30.268
	c-0.02-4.916-4.632-7.943-9.105-5.939c-6.739,3.01-13.459,6.057-20.158,9.189c-1.023,0.48-1.887,1.422-2.688,2.285
	c-0.764,0.822-0.984,1.785-0.162,2.809c0.341,0.439,0.562,1.002,0.744,1.545c0.219,0.662,0.659,0.781,1.263,0.662
	c1.243-0.242,2.507-0.463,3.751-0.701c1.283-0.244,2.548-0.582,3.852-0.744c0.381-0.039,0.844,0.443,1.242,0.684
	c-0.279,0.342-0.52,0.781-0.881,1.021c-0.302,0.201-0.744,0.18-1.105,0.262c-2.385,0.5-4.793,1.021-7.159,1.523
	c0.06,1.967,0.06,1.967,1.865,1.967c0.2,0,0.38,0,0.582,0c0.661-0.02,1.265,0.02,1.243,0.943c-0.021,0.842-0.561,0.881-1.183,0.881
	c-0.263,0-0.542,0-0.804,0c-1.704,0-1.704,0.02-1.645,1.965c0.503,0.102,1.004,0.223,1.525,0.342
	c2.226,0.482,4.452,0.904,6.659,1.465c0.36,0.1,0.622,0.705,0.923,1.084c-0.441,0.221-0.862,0.461-1.305,0.643
	c-0.121,0.041-0.299-0.061-0.44-0.102c-2.306-0.439-4.614-0.902-6.921-1.303c-0.381-0.061-0.943-0.061-1.164,0.16
	c-1.443,1.404-1.383,3.088,0.201,4.391C65.006,60.35,65.347,60.85,64.684,61.734z M50.08,39.227
	c-6.018,0.143-10.892,4.496-11.013,10.65c-0.12,6.26,4.395,11.174,10.853,11.256c5.838,0.08,10.892-4.211,11.013-10.994
	C61.033,44.523,56.701,39.529,50.08,39.227z"/>
</svg>
