<?xml version="1.0" encoding="utf-8"?>
<!-- Generator: Adobe Illustrator 16.0.0, SVG Export Plug-In . SVG Version: 6.00 Build 0)  -->
<!DOCTYPE svg PUBLIC "-//W3C//DTD SVG 1.1//EN" "http://www.w3.org/Graphics/SVG/1.1/DTD/svg11.dtd">
<svg version="1.1" id="Calque_1" xmlns="http://www.w3.org/2000/svg" xmlns:xlink="http://www.w3.org/1999/xlink" x="0px" y="0px"
	 width="100px" height="100px" viewBox="0 0 100 100" enable-background="new 0 0 100 100" xml:space="preserve">
<g>
	<path fill="#FFFFFF" d="M87.99,7.375H66.164C61.838,2.836,55.745,0,49.001,0c-6.75,0-12.843,2.836-17.164,7.375H9.747
		C4.371,7.375,0,11.75,0,17.122v71.129C0,93.628,4.373,98,9.747,98H87.99c5.374,0,9.745-4.374,9.745-9.749V17.123
		C97.736,11.75,93.364,7.375,87.99,7.375z M49.001,5.267c3.073,0,5.968,0.774,8.524,2.11c2.436,1.28,4.55,3.085,6.196,5.268
		c1.825,2.425,3.08,5.296,3.533,8.432h-16.13l-5.06-8.432l-1.129-1.882c-0.747-1.245-2.367-1.654-3.615-0.902
		c-0.982,0.59-1.431,1.721-1.214,2.784c0.06,0.287,0.155,0.568,0.312,0.829l4.563,7.603H30.746c0.451-3.136,1.706-6.007,3.531-8.432
		c1.644-2.183,3.76-3.987,6.2-5.268C43.03,6.041,45.926,5.267,49.001,5.267z M92.469,88.253c0,2.47-2.01,4.479-4.479,4.479H9.747
		c-2.47,0-4.477-2.01-4.477-4.479v-71.13c0-2.469,2.007-4.479,4.477-4.479H28.04c-1.753,3.307-2.749,7.071-2.749,11.065
		c0,1.455,1.179,2.637,2.635,2.637h42.151c1.454,0,2.633-1.182,2.633-2.637c0-3.994-0.995-7.759-2.747-11.065h18.028
		c2.47,0,4.478,2.011,4.478,4.479V88.253L92.469,88.253z"/>
	<path fill="#FFFFFF" d="M32.472,30.747c-4.052,0-8.153,2.389-11.276,4.469c-6.847,4.563-9.715,11.098-8.524,19.424
		c2.874,20.104,5.897,35.481,16.305,35.481c3.45,0,5.988-0.916,7.763-2.797c3.142-3.336,2.822-8.748,2.482-14.48
		c-0.114-1.933-0.231-3.934-0.231-5.93c0-3.325,0.935-5.514,2.013-8.046c1.364-3.197,2.91-6.818,2.361-12.724
		C42.711,39.122,40.294,30.747,32.472,30.747z M33.963,73.157c0.27,4.562,0.524,8.873-1.059,10.552
		c-0.726,0.769-2.01,1.144-3.929,1.144c-5.532,0-8.436-12.375-11.088-30.955c-0.569-3.976-0.54-9.782,6.231-14.299
		c2.307-1.538,5.683-3.583,8.353-3.583c3.093,0,4.991,3.57,5.644,10.619c0.425,4.573-0.68,7.167-1.957,10.166
		c-1.143,2.678-2.438,5.711-2.438,10.113C33.72,69.066,33.843,71.147,33.963,73.157z"/>
	<path fill="#FFFFFF" d="M78.132,35.217c-3.123-2.079-7.226-4.468-11.276-4.468c-7.823,0-10.24,8.373-10.892,15.398
		c-0.548,5.905,0.993,9.524,2.36,12.722c1.078,2.533,2.013,4.722,2.013,8.048c0,1.996-0.118,3.996-0.23,5.93
		c-0.342,5.732-0.661,11.145,2.482,14.479c1.772,1.883,4.311,2.798,7.763,2.798c10.405,0,13.43-15.377,16.304-35.48
		C87.844,46.314,84.976,39.781,78.132,35.217z M81.437,53.897c-2.654,18.579-5.556,30.955-11.087,30.955
		c-1.921,0-3.204-0.375-3.931-1.144c-1.581-1.679-1.327-5.989-1.056-10.552c0.117-2.01,0.24-4.091,0.24-6.243
		c0-4.399-1.294-7.436-2.433-10.111c-1.28-3-2.384-5.592-1.964-10.167c0.655-7.049,2.553-10.619,5.648-10.619
		c2.666,0,6.046,2.046,8.353,3.584C81.979,44.115,82.008,49.922,81.437,53.897z"/>
</g>
</svg>
