<?xml version="1.0" encoding="utf-8"?>
<!-- Generator: Adobe Illustrator 16.0.0, SVG Export Plug-In . SVG Version: 6.00 Build 0)  -->
<!DOCTYPE svg PUBLIC "-//W3C//DTD SVG 1.1//EN" "http://www.w3.org/Graphics/SVG/1.1/DTD/svg11.dtd">
<svg version="1.1" id="Calque_1" xmlns="http://www.w3.org/2000/svg" xmlns:xlink="http://www.w3.org/1999/xlink" x="0px" y="0px"
	 width="100px" height="100px" viewBox="0 0 100 100" enable-background="new 0 0 100 100" xml:space="preserve">
<path fill="#FFFFFF" d="M78.016,14.32c-1.318,0-2.625,0.125-3.91,0.374C71.123,6.699,61.709,1,50.738,1
	c-11.189,0-20.73,5.982-23.512,14.169c-1.918-0.56-3.934-0.849-5.957-0.849c-10.877,0-19.727,8.141-19.727,18.146
	c0,9.172,7.432,16.774,17.049,17.982v45.629c0,1.615,1.309,2.922,2.922,2.922h56.502c1.613,0,2.922-1.307,2.922-2.922V50.414
	C90.303,49.094,97.5,41.551,97.5,32.47C97.5,22.461,88.76,14.32,78.016,14.32z M24.436,93.156v-9.742h50.658v9.742H24.436z
	 M78.016,44.772c-1.613,0-2.922,1.306-2.922,2.922v29.875h-5.846v-11.69c0-1.615-1.309-2.923-2.924-2.923
	c-1.613,0-2.92,1.308-2.92,2.923v11.69h-9.742V60.033c0-1.615-1.311-2.922-2.924-2.922s-2.922,1.307-2.922,2.922v17.536h-9.742
	v-11.69c0-1.615-1.311-2.923-2.922-2.923c-1.613,0-2.922,1.308-2.922,2.923v11.69h-7.795V47.682c0-0.78-0.312-1.527-0.867-2.078
	c-0.555-0.548-1.354-0.874-2.09-0.843l-0.207,0.009c-7.654,0-13.881-5.521-13.881-12.303c0-6.783,6.227-12.302,13.881-12.302
	c2.379,0,4.729,0.546,6.795,1.58c0.869,0.436,1.898,0.407,2.744-0.07c0.848-0.477,1.4-1.346,1.475-2.317
	c0.549-7.014,8.654-12.512,18.457-12.512c9.334,0,17.414,5.212,18.396,11.867c0.129,0.864,0.637,1.629,1.389,2.079
	c0.748,0.45,1.664,0.543,2.486,0.245c1.617-0.58,3.301-0.872,5.002-0.872c7.52,0,13.639,5.521,13.639,12.302
	C91.654,39.252,85.535,44.772,78.016,44.772z"/>
</svg>
