<?xml version="1.0" encoding="utf-8"?>
<!-- Generator: Adobe Illustrator 16.0.0, SVG Export Plug-In . SVG Version: 6.00 Build 0)  -->
<!DOCTYPE svg PUBLIC "-//W3C//DTD SVG 1.1//EN" "http://www.w3.org/Graphics/SVG/1.1/DTD/svg11.dtd">
<svg version="1.1" id="Calque_1" xmlns="http://www.w3.org/2000/svg" xmlns:xlink="http://www.w3.org/1999/xlink" x="0px" y="0px"
	 width="100px" height="100px" viewBox="0 0 100 100" enable-background="new 0 0 100 100" xml:space="preserve">
<path fill="#FFFFFF" d="M94.506,65.236l-5.363-6.051c-0.85-0.961-2.315-1.072-3.299-0.24l-10.708,9.016
	c-0.207-0.061-0.425-0.102-0.655-0.102H55.637c-1.309,0-2.369,1.059-2.369,2.367v9.225h-4.312V38.189
	c0.83,1.43,2.366,2.365,4.091,2.365h0.337c2.238,0,4.174-1.57,4.637-3.762c0.281-1.336,1.482-2.307,2.854-2.307
	c1.372,0,2.571,0.971,2.854,2.307c0.464,2.193,2.396,3.762,4.639,3.762H68.7c2.241,0,4.177-1.568,4.64-3.762
	c0.283-1.336,1.482-2.307,2.854-2.307c1.372,0,2.572,0.971,2.855,2.307c0.463,2.193,2.397,3.762,4.637,3.762h0.166
	c1.426,0,2.777-0.643,3.68-1.75c0.899-1.105,1.252-2.559,0.96-3.957c-1.978-9.506-7.202-18.18-14.705-24.42
	c-7.604-6.326-17.243-9.875-27.144-9.994c-0.02-0.004-0.039-0.004-0.057-0.004c-0.02,0-0.037,0-0.056,0.002
	C36.627,0.551,26.99,4.1,19.386,10.426c-7.504,6.24-12.727,14.916-14.708,24.422c-0.29,1.396,0.064,2.852,0.963,3.957
	c0.901,1.107,2.251,1.748,3.677,1.748h0.169c2.241,0,4.175-1.568,4.638-3.762c0.282-1.336,1.482-2.307,2.854-2.307
	c1.371,0,2.571,0.971,2.854,2.307c0.463,2.193,2.397,3.762,4.637,3.762h0.335c2.241,0,4.175-1.568,4.638-3.762
	c0.282-1.336,1.482-2.307,2.854-2.307c1.371,0,2.571,0.971,2.853,2.307c0.463,2.193,2.397,3.762,4.638,3.762h0.335
	c1.725,0,3.261-0.934,4.091-2.365v41.264H12.027c-1.309,0-2.37,1.061-2.37,2.371v7.486v7.752c0,1.309,1.061,2.369,2.37,2.369
	c1.31,0,2.371-1.061,2.371-2.369v-5.383h43.135v5.383c0,1.309,1.062,2.369,2.371,2.369s2.369-1.061,2.369-2.369v-5.383h3.871
	c0.561,0,1.103-0.199,1.533-0.561l26.585-22.5c0.489-0.41,0.788-1,0.835-1.639C95.144,66.34,94.93,65.715,94.506,65.236z
	 M40.124,35.814H39.79c-0.733-3.467-3.809-6.068-7.492-6.068c-3.686,0-6.761,2.602-7.492,6.068H24.47
	c-0.732-3.467-3.807-6.068-7.492-6.068c-3.686,0-6.76,2.602-7.492,6.068H9.318c3.614-17.354,18.894-30.42,37.267-30.643
	C64.959,5.395,80.237,18.461,83.85,35.814h-0.166c-0.734-3.467-3.807-6.066-7.49-6.066c-3.688,0-6.762,2.6-7.494,6.066h-0.334
	c-0.734-3.467-3.807-6.066-7.494-6.066c-3.683,0-6.758,2.6-7.49,6.066h-0.336c-0.662-3.137-3.247-5.559-6.461-5.992
	C43.37,30.256,40.787,32.676,40.124,35.814z M58.008,72.6h11.623l-8.138,6.852h-3.485V72.6z M65.275,86.938H14.398v-2.744h47.958
	c0.562,0,1.099-0.197,1.528-0.559l23.244-19.574l2.224,2.506L65.275,86.938z"/>
</svg>
