<?xml version="1.0" encoding="utf-8"?>
<!-- Generator: Adobe Illustrator 16.0.0, SVG Export Plug-In . SVG Version: 6.00 Build 0)  -->
<!DOCTYPE svg PUBLIC "-//W3C//DTD SVG 1.1//EN" "http://www.w3.org/Graphics/SVG/1.1/DTD/svg11.dtd">
<svg version="1.1" id="Calque_1" xmlns="http://www.w3.org/2000/svg" xmlns:xlink="http://www.w3.org/1999/xlink" x="0px" y="0px"
	 width="100px" height="100px" viewBox="0 0 100 100" enable-background="new 0 0 100 100" xml:space="preserve">
<g>
	<path fill="#FFFFFF" d="M75.238,29.646H52.441v-9.243c0.502-0.222,0.854-0.72,0.854-1.302c0-0.48-0.252-0.883-0.611-1.142
		c0.361-0.259,0.611-0.661,0.611-1.138c0-0.329-0.129-0.615-0.314-0.855c0.186-0.242,0.314-0.528,0.314-0.855
		c0-0.439-0.213-0.82-0.525-1.079l3.932-9.322c0.613-1.448-0.068-3.121-1.517-3.734c-1.452-0.61-3.12,0.068-3.735,1.518
		l-4.485,10.625c-0.092,0.215-0.146,0.442-0.18,0.675c-0.527,0.212-0.899,0.72-0.899,1.318c0,0.327,0.129,0.613,0.315,0.855
		c-0.186,0.24-0.315,0.526-0.315,0.855c0,0.477,0.251,0.883,0.612,1.138c-0.362,0.259-0.612,0.664-0.612,1.142
		c0,0.582,0.352,1.082,0.855,1.302v9.243H24.514c-1.574,0-2.85,1.276-2.85,2.85v9.688c0,1.574,1.277,2.852,2.85,2.852h0.556
		l4.451,52.108c0.125,1.472,1.358,2.606,2.839,2.606h34.825c1.48,0,2.712-1.135,2.838-2.606l4.45-52.108h0.763
		c1.574,0,2.853-1.277,2.853-2.852v-9.688C78.091,30.92,76.812,29.646,75.238,29.646z M27.107,34.864h45.54v4.95h-0.535H27.435
		h-0.326v-4.95H27.107z M64.818,94.534H34.727l-4.258-49.499h38.609L64.818,94.534z"/>
	<path fill="#FFFFFF" d="M44.289,70.588l6.541,0.386l-4.666,8.954c-0.726,1.395-0.186,3.115,1.211,3.845
		c0.42,0.217,0.873,0.321,1.314,0.321c1.027,0,2.021-0.557,2.529-1.533l6.699-12.858c0.445-0.854,0.427-1.88-0.049-2.72
		c-0.48-0.842-1.349-1.382-2.312-1.44l-6.243-0.367l5.416-9.055c0.809-1.351,0.369-3.101-0.983-3.91
		c-1.353-0.805-3.099-0.366-3.91,0.981l-7.826,13.087c-0.512,0.852-0.539,1.913-0.074,2.796
		C42.403,69.955,43.294,70.527,44.289,70.588z"/>
</g>
</svg>
