<?xml version="1.0" encoding="UTF-8" standalone="no"?>
<svg width="97px" height="87px" viewBox="0 0 97 87" version="1.1" xmlns="http://www.w3.org/2000/svg" xmlns:xlink="http://www.w3.org/1999/xlink" xmlns:sketch="http://www.bohemiancoding.com/sketch/ns">
    <!-- Generator: Sketch 3.1.1 (8761) - http://www.bohemiancoding.com/sketch -->
    <title>noun_35873_cc</title>
    <desc>Created with Sketch.</desc>
    <defs></defs>
    <g id="Page-1" stroke="none" stroke-width="1" fill="none" fill-rule="evenodd" sketch:type="MSPage">
        <g id="noun_35873_cc" sketch:type="MSLayerGroup" transform="translate(1.000000, 0.000000)" fill="#000000">
            <g id="Group" transform="translate(-0.020408, 0.000000)" sketch:type="MSShapeGroup">
                <path d="M76.9605918,21.3753051 L58.7998163,21.3753051 L58.7998163,10.4248983 L35.0427347,10.4248983 L35.0427347,21.373322 L17.6025306,21.373322 L-0.81955102,86.8794407 L95.8399592,86.8794407 L76.9605918,21.3753051 L76.9605918,21.3753051 Z M47.1578367,75.1615932 C36.0048163,75.1615932 26.9640204,66.1030169 26.9640204,54.9324915 C26.9640204,43.758 36.0048163,34.7014068 47.1578367,34.7014068 C58.3088776,34.7014068 67.3536327,43.7560169 67.3536327,54.9324915 C67.3516531,66.1030169 58.3088776,75.1615932 47.1578367,75.1615932 L47.1578367,75.1615932 Z" id="Shape"></path>
                <path d="M45.1465714,53.8794915 C43.994449,54.7500508 43.7667959,56.394 44.6358367,57.5481356 C45.5048776,58.7022712 47.1459592,58.930322 48.2980816,58.0597627 C48.844449,57.6453051 49.1671224,57.0523729 49.2799592,56.4217627 L58.7542857,46.1971525 L46.8094286,53.3936441 C46.2313878,53.3718305 45.643449,53.5027119 45.1465714,53.8794915 L45.1465714,53.8794915 Z" id="Shape"></path>
                <rect id="Rectangle-path" x="5.93877551" y="0" width="83.8792653" height="9.87559322"></rect>
            </g>
        </g>
    </g>
</svg>