<?xml version="1.0" encoding="UTF-8" standalone="no"?>
<svg width="82px" height="96px" viewBox="0 0 82 96" version="1.1" xmlns="http://www.w3.org/2000/svg" xmlns:xlink="http://www.w3.org/1999/xlink" xmlns:sketch="http://www.bohemiancoding.com/sketch/ns">
    <!-- Generator: Sketch 3.1.1 (8761) - http://www.bohemiancoding.com/sketch -->
    <title>Shape</title>
    <desc>Created with Sketch.</desc>
    <defs></defs>
    <g id="Page-1" stroke="none" stroke-width="1" fill="none" fill-rule="evenodd" sketch:type="MSPage">
        <g id="noun_43729_cc" sketch:type="MSLayerGroup" transform="translate(1.000000, 0.000000)" fill="#FFFFFF">
            <path d="M58,27 L46,27 L46,30.6 C61.299,33.451 72.999,46.95 72.999,62.999 L72.999,89.998 C72.999,93.298 70.299,95.998 66.999,95.998 L13.002,95.998 C9.701,95.998 7.002,93.298 7.002,89.998 L7.002,62.999 C7.002,46.949 18.701,33.45 34,30.6 L34,27 L22.001,27 C12.102,27 4.002,18.9 4.002,9.001 C1.451,9.001 -0.498,7.052 -0.498,4.502 C-0.498,1.951 1.451,0.002 4.002,0.002 L75.999,0.002 C78.549,0.002 80.498,1.951 80.498,4.502 C80.498,7.052 78.549,9.001 75.999,9.001 C75.999,18.9 67.899,27 58,27 L58,27 Z M75.999,6.001 C76.898,6.001 77.499,5.401 77.499,4.502 C77.499,3.602 76.898,3.002 75.999,3.002 L4.002,3.002 C3.102,3.002 2.502,3.602 2.502,4.502 C2.502,5.401 3.102,6.001 4.002,6.001 L75.999,6.001 L75.999,6.001 Z M58,24 C66.249,24 72.999,17.251 72.999,9.001 L7.002,9.001 C7.002,17.251 13.752,24 22.001,24 L58,24 L58,24 Z M69.999,62.999 C69.999,46.5 56.5,33 40,33 C23.501,33 10.002,46.5 10.002,62.999 L10.002,89.998 C10.002,91.648 11.352,92.998 13.002,92.998 L66.999,92.998 C68.648,92.998 69.999,91.648 69.999,89.998 L69.999,62.999 L69.999,62.999 Z M40,39 C53.199,39 64,49.799 64,62.999 C64,76.198 53.199,86.998 40,86.998 C26.801,86.998 16.002,76.198 16.002,62.999 C16.002,49.799 26.801,39 40,39 L40,39 Z M40,83.998 C51.55,83.998 61,74.549 61,62.999 C61,51.449 51.55,42 40,42 C28.451,42 19.001,51.449 19.001,62.999 C19.001,74.549 28.451,83.998 40,83.998 L40,83.998 Z M40,45 C49.9,45 58,53.1 58,62.999 C58,72.898 49.9,80.998 40,80.998 C30.101,80.998 22.001,72.898 22.001,62.999 C22.001,53.1 30.101,45 40,45 L40,45 Z M40,77.998 C48.25,77.998 55,71.248 55,62.999 C55,54.749 48.25,48 40,48 C31.75,48 25.001,54.749 25.001,62.999 C25.001,71.248 31.75,77.998 40,77.998 L40,77.998 Z M43,30.15 L43,27 L37,27 L37,30.15 C37.9,30 38.95,30 40,30 C40.9,30 41.95,30 43,30.15 L43,30.15 Z M38.5,60.449 L38.5,52.5 C38.5,51.6 39.101,51 40,51 C40.9,51 41.5,51.6 41.5,52.5 L41.5,60.449 C42.4,60.898 43,61.949 43,62.999 C43,64.648 41.65,65.999 40,65.999 C38.351,65.999 37,64.648 37,62.999 C37,61.949 37.601,60.898 38.5,60.449 L38.5,60.449 Z" id="Shape" sketch:type="MSShapeGroup"></path>
        </g>
    </g>
</svg>