<?xml version="1.0" encoding="utf-8"?>
<!-- Generator: Adobe Illustrator 16.0.0, SVG Export Plug-In . SVG Version: 6.00 Build 0)  -->
<!DOCTYPE svg PUBLIC "-//W3C//DTD SVG 1.1//EN" "http://www.w3.org/Graphics/SVG/1.1/DTD/svg11.dtd">
<svg version="1.1" id="Calque_1" xmlns="http://www.w3.org/2000/svg" xmlns:xlink="http://www.w3.org/1999/xlink" x="0px" y="0px"
	 width="100px" height="100px" viewBox="0 0 100 100" enable-background="new 0 0 100 100" xml:space="preserve">
<path fill="#FFFFFF" stroke="#FFFFFF" stroke-width="2" stroke-miterlimit="10" d="M85.436,49.064
	c-0.371-1.62-1.445-2.898-3.197-3.799c-1.307-0.673-2.572-1.004-3.788-0.988c0.239-0.888,0.264-1.862,0.068-2.897
	c-0.922-4.911-6.637-10.437-9.317-11.688c-1.741-0.81-5.127-0.933-6.989-0.933c-3.165,0-7.316,0.349-10.318,1.25
	c0.475-5.279,1.65-18.421,1.962-22.168c0.294-3.525-2.427-6.352-5.151-6.776c-2.427-0.401-4.396,1.107-5.013,3.788
	c-0.595,2.579-1.506,11.837-2.304,20.907c-2.161-6.994-5.645-16.282-9.393-18.175c-0.961-0.483-1.956-0.537-2.88-0.155
	c-5.437,2.246-2.391,12.291,0.557,22.003c0.845,2.782,1.638,5.406,2.12,7.544c-4.46-5.663-11.675-13.161-16.634-10.072
	c-0.609,0.244-1.053,0.729-1.245,1.362c-0.693,2.255,1.838,6.312,8.224,15.727c4.246,6.259,9.53,14.052,9.668,17.05
	c0.019,0.351,0.171,0.662,0.398,0.894c-0.236,0.789-0.398,1.463-0.398,1.88c0,3.786,3.408,29.777,3.553,30.882
	C35.739,97.635,39.438,99,47.001,99c4.018,0,7.884-0.395,9.354-0.544c3.031-0.305,6.422-4.443,8.642-10.548
	c2.739-7.531,6.288-14.312,10.852-20.73c0.825-1.162,1.729-2.362,2.638-3.565C82.543,58.238,86.372,53.16,85.436,49.064z
	 M46.393,5.476c0.437-1.899,1.527-1.731,1.886-1.671c1.291,0.2,2.989,1.745,2.816,3.804c-0.354,4.269-1.833,20.709-2.114,23.836
	c-1.479,1.311-3.655,4.461-5.987,8.359C43.825,29.401,45.514,9.282,46.393,5.476z M30.176,9.988c0.081-0.033,0.234-0.098,0.57,0.072
	c3.392,1.709,7.883,15.263,9.97,23.566c-0.481,5.811-0.844,10.524-0.946,11.858c-0.827,1.525-1.631,3.062-2.4,4.586
	c-0.67-3.384-1.699-8.44-2.828-13.52c-0.504-2.272-1.339-5.018-2.219-7.925C30.227,21.719,27.059,11.277,30.176,9.988z
	 M24.43,42.437c-3.243-4.777-7.628-11.247-7.855-13.166c4.055-2.035,12.854,8.643,16.672,14.435
	c1.046,5.004,1.85,9.165,2.108,10.503c-0.599,1.276-1.135,2.479-1.607,3.596C32.139,53.824,28.382,48.264,24.43,42.437z
	 M76.273,61.94c-0.925,1.226-1.843,2.447-2.687,3.627c-4.709,6.628-8.368,13.627-11.195,21.393c-2.228,6.13-5.055,8.612-6.522,8.757
	c-1.236,0.129-4.993,0.512-8.871,0.512c-6.842,0-8.81-1.233-8.896-1.891c-1.219-9.295-3.529-27.636-3.529-30.521
	c0-3.072,13.043-28.527,16.432-30.493c1.798-1.04,6.512-1.795,11.205-1.795c3.228,0,5.152,0.36,5.817,0.673
	c1.945,0.907,7.048,5.849,7.767,9.688c0.227,1.193-0.004,2.131-0.704,2.858c-0.733,0.769-1.312,0.86-1.685,0.86
	c-1.447,0-3.292-1.577-4.917-2.968c-1.714-1.463-3.332-2.845-5.034-3.035c-1.095-0.122-2.259-0.183-3.463-0.183
	c-2.045,0-3.492,0.177-3.554,0.187l-0.963,0.116l-0.218,0.946c-0.745,3.283-2.362,11.156-1.271,13.333
	c0.354,0.702,3.538,6.866,6.452,6.866l0.631-0.054c1.833-0.204,6.12-0.68,9.222-4.608c0.712-0.904,1.37-2.013,2.067-3.191
	c1.74-2.937,3.54-5.972,6.185-5.972c0.731,0,1.547,0.227,2.425,0.68c1.341,0.692,1.65,1.444,1.767,1.952
	C83.383,52.521,79.606,57.524,76.273,61.94z M72.147,48.222c-0.812,1.094-1.518,2.285-2.172,3.386
	c-0.646,1.093-1.261,2.127-1.859,2.889c-2.382,3.017-5.613,3.377-7.351,3.567l-0.25,0.049c-0.771-0.217-2.853-2.965-4.045-5.336
	c-0.403-0.985,0.312-6.024,1.273-10.503c1.156-0.079,3.202-0.155,5.403,0.089c0.855,0.095,2.282,1.312,3.538,2.386
	C68.335,46.158,70.167,47.723,72.147,48.222z"/>
</svg>
