<svg xmlns="http://www.w3.org/2000/svg" xmlns:xlink="http://www.w3.org/1999/xlink" version="1.1" id="Layer_1" x="0px" y="0px" width="100px" height="100px" viewBox="0 0 100 100" enable-background="new 0 0 100 100" xml:space="preserve">
<path d="M99.698,41.562c-1.771-0.46-4.49,6.6-10.877,6.6c-8.203,0-12.063-14.142-24.882-14.142c-10.17,0-13.267,8.107-13.94,8.107  c-0.673,0-3.771-8.107-13.939-8.107c-12.817,0-16.679,14.142-24.883,14.142c-6.387,0-9.104-7.06-10.875-6.6  c-1.656,0.431,3.052,24.444,25.488,24.444c14.557,0,23.114-11.581,24.209-11.581c1.097,0,9.653,11.581,24.21,11.581  C96.646,66.007,101.353,41.993,99.698,41.562z"/>
</svg>