<?xml version="1.0" encoding="UTF-8" standalone="no"?>
<svg width="71px" height="99px" viewBox="0 0 71 99" version="1.1" xmlns="http://www.w3.org/2000/svg" xmlns:xlink="http://www.w3.org/1999/xlink" xmlns:sketch="http://www.bohemiancoding.com/sketch/ns">
    <!-- Generator: Sketch 3.1.1 (8761) - http://www.bohemiancoding.com/sketch -->
    <title>Icone A Emporter</title>
    <desc>Created with Sketch.</desc>
    <defs></defs>
    <g id="Page-1" stroke="none" stroke-width="1" fill="none" fill-rule="evenodd" sketch:type="MSPage">
        <g id="Occasions-Restaurants" sketch:type="MSLayerGroup" transform="translate(-675.000000, -1.000000)" stroke="#FFFFFF" stroke-width="3" fill="#FFFFFF">
            <g id="A-Emporter" transform="translate(660.000000, 0.000000)" sketch:type="MSShapeGroup">
                <g id="Icone-A-Emporter" transform="translate(17.000000, 2.000000)">
                    <path d="M66.64825,14.9973333 L53.3212321,14.9973333 L53.3212321,7.49985185 C53.3212321,3.68474074 50.342125,0.580740741 46.6798571,0.580740741 L20.7006071,0.580740741 C17.0371429,0.580740741 14.0580357,3.68474074 14.0580357,7.49985185 L14.0580357,14.9973333 L0.734607143,14.9973333 C0.391232143,14.9973333 0.113660714,15.2722963 0.113660714,15.6124444 L0.113660714,95.8814815 C0.113660714,96.2204444 0.391232143,96.4965926 0.734607143,96.4965926 L66.64825,96.4965926 C66.9904286,96.4965926 67.2691964,96.2216296 67.2691964,95.8814815 L67.2691964,15.6112593 C67.2691964,15.2722963 66.9904286,14.9973333 66.64825,14.9973333 L66.64825,14.9973333 Z M66.0285,95.2663704 L1.35555357,95.2663704 L1.35555357,16.2263704 L14.6789821,16.2263704 C15.0211607,16.2263704 15.2999286,15.9514074 15.2999286,15.6112593 L15.2999286,7.49985185 C15.2999286,4.36266667 17.7238929,1.80977778 20.7018036,1.80977778 L46.6810536,1.80977778 C49.6589643,1.80977778 52.0817321,4.36266667 52.0817321,7.49985185 L52.0817321,15.6112593 C52.0817321,15.9514074 52.3593036,16.2263704 52.7026786,16.2263704 L66.0296964,16.2263704 L66.0296964,95.2663704 L66.0285,95.2663704 Z" id="Shape"></path>
                    <path d="M47.846375,7.49985185 C47.846375,6.84325926 47.3223393,6.30992593 46.6774643,6.30992593 L20.7006071,6.30992593 C20.0545357,6.30992593 19.5305,6.84325926 19.5305,7.49985185 L19.5305,15.6112593 C19.5305,15.9514074 19.806875,16.2263704 20.15025,16.2263704 L47.226625,16.2263704 L47.2290179,16.2263704 C47.5711964,16.2251852 47.8475714,15.9514074 47.8475714,15.6112593 C47.8475714,15.597037 47.8475714,15.584 47.846375,15.5697778 L47.846375,7.49985185 L47.846375,7.49985185 Z M46.6056786,14.9973333 L20.7723929,14.9973333 L20.7723929,7.54014815 L46.6056786,7.54014815 L46.6056786,14.9973333 L46.6056786,14.9973333 Z" id="Shape"></path>
                </g>
            </g>
        </g>
    </g>
</svg>