<?xml version="1.0" encoding="UTF-8" standalone="no"?>
<svg width="97px" height="71px" viewBox="0 0 97 71" version="1.1" xmlns="http://www.w3.org/2000/svg" xmlns:xlink="http://www.w3.org/1999/xlink" xmlns:sketch="http://www.bohemiancoding.com/sketch/ns">
    <!-- Generator: Sketch 3.1.1 (8761) - http://www.bohemiancoding.com/sketch -->
    <title>Icone Branche</title>
    <desc>Created with Sketch.</desc>
    <defs></defs>
    <g id="Page-1" stroke="none" stroke-width="1" fill="none" fill-rule="evenodd" sketch:type="MSPage">
        <g id="Ambiances-Restaurants" sketch:type="MSLayerGroup" transform="translate(-662.000000, -15.000000)" stroke="#FFFFFF" fill="#FFFFFF">
            <g id="Branche" transform="translate(660.000000, 0.000000)" sketch:type="MSShapeGroup">
                <g id="Icone-Branche" transform="translate(3.000000, 16.000000)">
                    <path d="M87.2798844,7.23633309 L40.3099266,7.23633309 C40.2011278,3.16125589 36.8905385,-0.111392979 32.8339008,-0.111392979 L21.7830603,-0.111392979 C17.7264226,-0.111392979 14.4158333,3.16125589 14.3070346,7.23633309 L7.63922785,7.23633309 C3.50487682,7.23633309 0.147659446,10.6348531 0.147659446,14.8200675 L0.147659446,61.5025156 C0.147659446,65.68773 3.50487682,69.08625 7.63922785,69.08625 L87.2954271,69.08625 C91.4297781,69.08625 94.7869955,65.68773 94.7869955,61.5025156 L94.7869955,14.8200675 C94.7714528,10.6348531 91.4142355,7.23633309 87.2798844,7.23633309 L87.2798844,7.23633309 Z M21.7675176,3.853547 L32.8183582,3.853547 C34.7145643,3.853547 36.2688316,5.34826644 36.3776303,7.25206698 L18.2082455,7.25206698 C18.3325869,5.34826644 19.8868542,3.853547 21.7675176,3.853547 L21.7675176,3.853547 Z M90.8546992,61.5025156 C90.8546992,63.5007195 89.2538039,65.12131 87.2798844,65.12131 L7.62368517,65.12131 C5.6497657,65.12131 4.04887038,63.5007195 4.04887038,61.5025156 L4.04887038,14.8200675 C4.04887038,12.8218636 5.6497657,11.2012731 7.62368517,11.2012731 L87.2798844,11.2012731 C89.2538039,11.2012731 90.8546992,12.8218636 90.8546992,14.8200675 L90.8546992,61.5025156 L90.8546992,61.5025156 Z" id="Shape"></path>
                    <path d="M47.4595561,60.6528856 C34.9787897,60.6528856 24.8138815,50.3629223 24.8138815,37.7286096 C24.8138815,25.0942969 34.963247,14.8043336 47.4595561,14.8043336 C59.9558653,14.8043336 70.1052307,25.0942969 70.1052307,37.7286096 C70.1052307,50.3629223 59.9403226,60.6528856 47.4595561,60.6528856 L47.4595561,60.6528856 Z M47.4595561,18.7692736 C37.1392213,18.7692736 28.7306351,27.2813074 28.7306351,37.7286096 C28.7306351,48.1759118 37.1236786,56.6879456 47.4595561,56.6879456 C57.7954337,56.6879456 66.1884771,48.1759118 66.1884771,37.7286096 C66.1884771,27.2813074 57.779891,18.7692736 47.4595561,18.7692736 L47.4595561,18.7692736 Z" id="Shape"></path>
                    <path d="M61.2769925,39.7110796 C60.1890054,39.7110796 59.3186157,38.8299818 59.3186157,37.7286096 C59.3186157,31.1046424 54.0030215,25.7236524 47.4595561,25.7236524 C46.371569,25.7236524 45.5011793,24.8425547 45.5011793,23.7411825 C45.5011793,22.6398102 46.371569,21.7587125 47.4595561,21.7587125 C56.163453,21.7587125 63.2353693,28.9176319 63.2353693,37.7286096 C63.2198266,38.8142479 62.3494369,39.7110796 61.2769925,39.7110796 L61.2769925,39.7110796 Z" id="Shape"></path>
                </g>
            </g>
        </g>
    </g>
</svg>