<?xml version="1.0" encoding="UTF-8" standalone="no"?>
<svg width="58px" height="98px" viewBox="0 0 58 98" version="1.1" xmlns="http://www.w3.org/2000/svg" xmlns:xlink="http://www.w3.org/1999/xlink" xmlns:sketch="http://www.bohemiancoding.com/sketch/ns">
    <!-- Generator: Sketch 3.1.1 (8761) - http://www.bohemiancoding.com/sketch -->
    <title>Brunch</title>
    <desc>Created with Sketch.</desc>
    <defs></defs>
    <g id="Page-1" stroke="none" stroke-width="1" fill="none" fill-rule="evenodd" sketch:type="MSPage">
        <g id="Occasions-Restaurants" sketch:type="MSLayerGroup" transform="translate(-791.000000, -1.000000)" stroke="#FFFFFF" fill="#FFFFFF">
            <g id="Brunch" transform="translate(770.000000, 0.000000)" sketch:type="MSShapeGroup">
                <g transform="translate(22.000000, 2.000000)" id="Group">
                    <g>
                        <rect id="Rectangle-path" x="13.2631579" y="91.826087" width="29.3052632" height="4.17391304"></rect>
                        <rect id="Rectangle-path" x="25.4736842" y="75.1304348" width="4.07017544" height="19.826087"></rect>
                        <path d="M27.5087719,76.8 C15.2982456,76.8 4.5122807,69.2869565 0.0350877193,57.8086957 C-0.575438596,56.5565217 -0.371929825,54.8869565 0.442105263,53.8434783 C1.25614035,52.5913043 2.68070175,51.9652174 4.10526316,51.9652174 L51.1157895,51.9652174 C52.5403509,51.9652174 53.9649123,52.8 54.7789474,53.8434783 C55.5929825,55.0956522 55.7964912,56.5565217 55.1859649,57.8086957 C50.5052632,69.4956522 39.7192982,76.8 27.5087719,76.8 L27.5087719,76.8 Z M3.90175439,56.1391304 C3.69824561,56.1391304 3.69824561,56.1391304 3.69824561,56.3478261 C7.56491228,66.573913 16.9263158,72.8347826 27.5087719,72.8347826 C37.8877193,72.8347826 47.2491228,66.3652174 51.3192982,56.3478261 C51.3192982,56.1391304 51.1157895,56.1391304 51.1157895,56.1391304 L3.90175439,56.1391304 L3.90175439,56.1391304 Z" id="Shape"></path>
                        <path d="M46.4350877,56.1391304 L8.58245614,56.1391304 L7.97192982,55.0956522 C4.91929825,49.0434783 3.29122807,41.9478261 3.29122807,34.4347826 C3.29122807,15.2347826 14.077193,-0.208695652 27.5087719,-0.208695652 C40.9403509,-0.208695652 51.7263158,15.4434783 51.7263158,34.4347826 C51.7263158,41.9478261 50.0982456,49.0434783 47.045614,55.0956522 L46.4350877,56.1391304 L46.4350877,56.1391304 Z M11.2280702,51.9652174 L43.7894737,51.9652174 C46.2315789,46.7478261 47.4526316,40.6956522 47.4526316,34.226087 C47.4526316,17.3217391 38.4982456,3.75652174 27.3052632,3.75652174 C16.3157895,3.75652174 7.15789474,17.5304348 7.15789474,34.226087 C7.36140351,40.4869565 8.78596491,46.7478261 11.2280702,51.9652174 L11.2280702,51.9652174 Z" id="Shape"></path>
                    </g>
                </g>
            </g>
        </g>
    </g>
</svg>