<?xml version="1.0" encoding="UTF-8" standalone="no"?>
<svg width="98px" height="75px" viewBox="0 0 98 75" version="1.1" xmlns="http://www.w3.org/2000/svg" xmlns:xlink="http://www.w3.org/1999/xlink" xmlns:sketch="http://www.bohemiancoding.com/sketch/ns">
    <!-- Generator: Sketch 3.1.1 (8761) - http://www.bohemiancoding.com/sketch -->
    <title>Icone Business</title>
    <desc>Created with Sketch.</desc>
    <defs></defs>
    <g id="Page-1" stroke="none" stroke-width="1" fill="none" fill-rule="evenodd" sketch:type="MSPage">
        <g id="Occasions-Restaurants" sketch:type="MSLayerGroup" transform="translate(-551.000000, -13.000000)" fill="#FFFFFF">
            <g id="Business" transform="translate(550.000000, 0.000000)" sketch:type="MSShapeGroup">
                <g id="Icone-Business" transform="translate(2.000000, 14.000000)">
                    <path d="M84.8592593,8.37704918 L62.162963,8.37704918 C61.7481481,3.70983607 57.837037,0 53.0962963,0 L42.9037037,0 C38.162963,0 34.2518519,3.65 33.837037,8.37704918 L11.1407407,8.37704918 C4.97777778,8.37704918 0,13.4032787 0,19.6262295 L0,33.747541 C0,34.2262295 0.414814815,34.645082 0.888888889,34.645082 L2.72592593,34.645082 L2.72592593,61.6909836 C2.72592593,67.9139344 7.7037037,72.9401639 13.8666667,72.9401639 L82.1333333,72.9401639 C88.2962963,72.9401639 93.2740741,67.9139344 93.2740741,61.6909836 L93.2740741,34.645082 L95.1111111,34.645082 C95.5851852,34.645082 96,34.2262295 96,33.747541 L96,19.6262295 C96,13.4032787 91.0222222,8.37704918 84.8592593,8.37704918 L84.8592593,8.37704918 Z M42.9037037,1.79508197 L53.037037,1.79508197 C56.7703704,1.79508197 59.9111111,4.66721311 60.3259259,8.37704918 L58.0740741,8.37704918 C57.837037,5.50491803 55.4666667,3.23114754 52.562963,3.23114754 L43.437037,3.23114754 C40.5333333,3.23114754 38.1037037,5.50491803 37.9259259,8.37704918 L35.6740741,8.37704918 C36.0296296,4.66721311 39.1703704,1.79508197 42.9037037,1.79508197 L42.9037037,1.79508197 Z M56.2962963,8.37704918 L39.7037037,8.37704918 C39.9407407,6.46229508 41.5407407,5.02622951 43.437037,5.02622951 L52.562963,5.02622951 C54.5185185,4.96639344 56.1185185,6.46229508 56.2962963,8.37704918 L56.2962963,8.37704918 Z M91.4962963,61.6909836 C91.4962963,66.8967213 87.2888889,71.145082 82.1333333,71.145082 L13.8666667,71.145082 C8.71111111,71.145082 4.5037037,66.8967213 4.5037037,61.6909836 L4.5037037,34.645082 L21.7481481,34.645082 L21.7481481,38.2352459 C21.7481481,40.15 23.2888889,41.7057377 25.1851852,41.7057377 L28.1481481,41.7057377 C30.0444444,41.7057377 31.5851852,40.15 31.5851852,38.2352459 L31.5851852,34.645082 L64.5925926,34.645082 L64.5925926,38.2352459 C64.5925926,40.15 66.1333333,41.7057377 68.0296296,41.7057377 L70.9925926,41.7057377 C72.8888889,41.7057377 74.4296296,40.15 74.4296296,38.2352459 L74.4296296,34.645082 L91.4962963,34.645082 L91.4962963,61.6909836 L91.4962963,61.6909836 Z M23.4666667,38.295082 L23.4666667,33.0295082 C23.4666667,32.1319672 24.1777778,31.3540984 25.1259259,31.3540984 L28.0888889,31.3540984 C28.9777778,31.3540984 29.7481481,32.0721311 29.7481481,33.0295082 L29.7481481,38.295082 C29.7481481,39.192623 29.037037,39.9704918 28.0888889,39.9704918 L25.1259259,39.9704918 C24.237037,39.9106557 23.4666667,39.192623 23.4666667,38.295082 L23.4666667,38.295082 Z M66.3703704,38.295082 L66.3703704,33.0295082 C66.3703704,32.1319672 67.0814815,31.3540984 68.0296296,31.3540984 L70.9925926,31.3540984 C71.8814815,31.3540984 72.6518519,32.0721311 72.6518519,33.0295082 L72.6518519,38.295082 C72.6518519,39.192623 71.9407407,39.9704918 70.9925926,39.9704918 L68.0296296,39.9704918 C67.1407407,39.9106557 66.3703704,39.192623 66.3703704,38.295082 L66.3703704,38.295082 Z M94.2222222,32.85 L74.4296296,32.85 C74.3703704,30.995082 72.8888889,29.4991803 70.9925926,29.4991803 L68.0296296,29.4991803 C66.1925926,29.4991803 64.7111111,30.995082 64.5925926,32.85 L31.5259259,32.85 C31.4666667,30.995082 29.9851852,29.4991803 28.0888889,29.4991803 L25.1259259,29.4991803 C23.2888889,29.4991803 21.8074074,30.995082 21.6888889,32.85 L1.77777778,32.85 L1.77777778,19.6262295 C1.77777778,14.4204918 5.98518519,10.1721311 11.1407407,10.1721311 L84.8,10.1721311 C89.9555556,10.1721311 94.162963,14.4204918 94.162963,19.6262295 L94.162963,32.85 L94.2222222,32.85 Z" id="Shape" stroke="#FFFFFF" stroke-width="2"></path>
                    <path d="M26.6074074,39.4319672 C27.0814815,39.4319672 27.4962963,39.0131148 27.4962963,38.5344262 L27.4962963,33.747541 C27.4962963,33.2688525 27.0814815,32.85 26.6074074,32.85 C26.1333333,32.85 25.7185185,33.2688525 25.7185185,33.747541 L25.7185185,38.5344262 C25.7185185,39.0729508 26.1333333,39.4319672 26.6074074,39.4319672 L26.6074074,39.4319672 Z" id="Shape"></path>
                    <path d="M69.5111111,39.4319672 C69.9851852,39.4319672 70.4,39.0131148 70.4,38.5344262 L70.4,33.747541 C70.4,33.2688525 69.9851852,32.85 69.5111111,32.85 C69.037037,32.85 68.6222222,33.2688525 68.6222222,33.747541 L68.6222222,38.5344262 C68.6222222,39.0729508 69.037037,39.4319672 69.5111111,39.4319672 L69.5111111,39.4319672 Z" id="Shape"></path>
                </g>
            </g>
        </g>
    </g>
</svg>