<?xml version="1.0" encoding="utf-8"?>
<!-- Generator: Adobe Illustrator 16.0.0, SVG Export Plug-In . SVG Version: 6.00 Build 0)  -->
<!DOCTYPE svg PUBLIC "-//W3C//DTD SVG 1.1//EN" "http://www.w3.org/Graphics/SVG/1.1/DTD/svg11.dtd">
<svg version="1.1" id="Calque_1" xmlns="http://www.w3.org/2000/svg" xmlns:xlink="http://www.w3.org/1999/xlink" x="0px" y="0px"
	 width="100px" height="100px" viewBox="0 0 100 100" enable-background="new 0 0 100 100" xml:space="preserve">
<g>
	
		<path display="none" fill="#FFFFFF" stroke="#FFFFFF" stroke-width="2.5" stroke-linecap="round" stroke-linejoin="round" stroke-miterlimit="10" d="
		M71.584,23.942c0,0-1.445,2.039-2.268,3.233c-0.824,1.192-1.269,2.32-0.229,3.127c3.631,2.812,12.157,9.459,15.528,12.438
		c4.339,3.832,6.352,7.04,11.959,6.089"/>
	
		<path fill="#FFFFFF" stroke="#FFFFFF" stroke-width="2.5" stroke-linecap="round" stroke-linejoin="round" stroke-miterlimit="10" d="
		M97.757,49.865c-0.143-0.344-3.495-8.444-4.938-11.521c-0.956-2.042-2.854-4.099-4.768-3.739c-0.985,0.179-2.209,1.01-2.443,3.946
		c-0.367,4.59-4.67,6.646-8.774,6.646c-4.608,0-7.067-1.752-11.677-6.695c-4.054-4.348-8.702-3.122-10.678-1.823l-2.033,0.949
		l-1.004-1.884c-0.299-0.562-0.998-0.777-1.564-0.478c-0.563,0.3-0.776,1.003-0.478,1.565l0.944,1.777l-4.939,2.303l-0.902-1.697
		c-0.3-0.562-1-0.779-1.566-0.478c-0.563,0.3-0.776,1.001-0.476,1.565l0.844,1.591l-4.941,2.303l-0.803-1.511
		c-0.3-0.562-0.999-0.778-1.565-0.479c-0.563,0.301-0.777,1-0.476,1.565l0.746,1.405l-4.94,2.303l-0.703-1.325
		c-0.301-0.562-0.999-0.777-1.566-0.478c-0.563,0.301-0.776,1-0.476,1.563l0.646,1.216l-11.564,5.396L5.422,56.576
		c-0.41,0.092-0.737,0.396-0.857,0.794l-2.674,8.896c-0.03,0.104-0.047,0.217-0.047,0.33v9.253c0,0.642,0.519,1.157,1.157,1.157
		h93.688c0.639,0,1.155-0.516,1.155-1.157V50.308C97.844,50.154,97.814,50.005,97.757,49.865z M87.914,38.735
		c0.115-1.449,0.484-1.841,0.551-1.853c0.361-0.052,1.449,0.713,2.261,2.445c0.867,1.854,2.497,5.688,3.635,8.404
		c-3.058-1.005-5.466,0.28-7.638,1.442c-1.55,0.828-3.023,1.63-4.652,1.564c-2.752-0.076-3.853-1.945-4.288-3.262
		C83.41,47.122,87.521,43.632,87.914,38.735z M24.881,53.315c0.019-0.095,0.003-0.187,0.001-0.278l5.432-2.533l1.121,2.104
		c0.207,0.394,0.608,0.616,1.021,0.616c0.183,0,0.369-0.046,0.542-0.138c0.563-0.301,0.779-0.999,0.478-1.564l-1.062-2l4.938-2.303
		l1.023,1.918c0.207,0.392,0.608,0.615,1.022,0.615c0.183,0,0.369-0.045,0.542-0.138c0.563-0.3,0.778-0.998,0.478-1.563
		l-0.965-1.811l4.939-2.303l0.923,1.729c0.207,0.394,0.608,0.616,1.021,0.616c0.183,0,0.369-0.045,0.542-0.137
		c0.563-0.301,0.779-1,0.478-1.564l-0.865-1.625l4.941-2.303l0.822,1.542c0.208,0.393,0.607,0.615,1.021,0.615
		c0.184,0,0.37-0.046,0.543-0.138c0.563-0.3,0.779-0.998,0.479-1.562l-0.766-1.438l2.006-0.937c0.058-0.026,0.113-0.057,0.167-0.095
		c0.159-0.11,3.958-2.644,7.761,1.436c0.385,0.414,0.746,0.785,1.112,1.162l-40.745,17.09L24.881,53.315z M23.261,61.078L57.4,46.76
		c0.039,0.033,0.064,0.08,0.109,0.108l12.182,8.255c0.607,0.412,0.924,1.412,0.665,2.1l-3.097,8.216H22.352L23.261,61.078z
		 M6.589,58.684l11.7-2.603c0.082-0.021,0.163-0.045,0.238-0.082l3.801-1.77l-2.339,11.209H4.556L6.589,58.684z M95.531,74.694
		H4.158v-6.941h91.373V74.694z M95.531,65.438H69.732l2.787-7.403c0.639-1.692-0.035-3.812-1.531-4.826L59.91,45.704l6.318-2.65
		c0.045-0.02,0.072-0.051,0.111-0.074c2.948,2.738,5.5,4.167,9.033,4.466c0.545,2.301,2.37,5.49,6.633,5.607
		c0.069,0,0.139,0.001,0.209,0.001c2.154,0,3.906-0.936,5.598-1.838c2.521-1.35,4.51-2.41,7.539-0.437
		c0.059,0.034,0.123,0.043,0.181,0.072L95.531,65.438L95.531,65.438z"/>
</g>
</svg>
