<?xml version="1.0" encoding="UTF-8" standalone="no"?>
<svg width="79px" height="100px" viewBox="0 0 79 100" version="1.1" xmlns="http://www.w3.org/2000/svg" xmlns:xlink="http://www.w3.org/1999/xlink" xmlns:sketch="http://www.bohemiancoding.com/sketch/ns">
    <!-- Generator: Sketch 3.1.1 (8761) - http://www.bohemiancoding.com/sketch -->
    <title>Icone Convivial</title>
    <desc>Created with Sketch.</desc>
    <defs></defs>
    <g id="Page-1" stroke="none" stroke-width="1" fill="none" fill-rule="evenodd" sketch:type="MSPage">
        <g id="Ambiances-Restaurants" sketch:type="MSLayerGroup" transform="translate(-130.000000, -1.000000)" stroke="#FFFFFF" fill="#FFFFFF">
            <g id="Convivial" transform="translate(110.000000, 1.000000)" sketch:type="MSShapeGroup">
                <g id="Icone-Convivial" transform="translate(21.000000, 2.000000)">
                    <path d="M51.0422713,97.0018835 L12.2199312,96.9971748 C12.0419271,96.9817929 11.876081,96.9689223 11.7214575,96.9566796 C8.91017814,96.7381942 8.49493927,96.1627864 6.091417,91.7237023 C-0.933975709,78.7470485 2.6195587,67.3465663 6.38227126,55.2765016 C8.69227126,47.8665178 11.0805182,40.2044595 11.0805182,31.7886893 C11.0805182,25.56311 8.8069919,22.4283463 6.17465182,18.7988511 C3.29665992,14.8303269 0.0346032389,10.3325405 0.0346032389,1.20041424 L0.0346032389,-0.0552491909 L17.8505951,-0.0552491909 C22.3424696,-0.0552491909 23.774919,1.68604207 26.1478907,4.5709288 C26.9914615,5.59649191 28.0251943,6.85309709 29.4164939,8.28706472 L50.9880283,8.28706472 C54.5138178,8.28706472 56.3770931,10.1639676 56.3770931,13.7137282 C56.3770931,13.8063333 56.3842632,13.9243657 56.3914332,14.0515016 C56.415749,14.4912977 56.4434939,14.9897961 56.3403077,15.4073042 C55.8617854,17.3347476 55.227081,19.2521456 54.6129514,21.1064466 C53.3899919,24.8009223 52.2349919,28.290411 52.2349919,31.7883754 C52.2349919,40.2041456 54.6232389,47.8662039 56.9329271,55.2761877 C60.6953279,67.3462524 64.2491741,78.7467346 57.2240931,91.7230744 C54.8208826,96.1621586 54.4059555,96.7378803 51.5940526,96.9560518 C51.4394291,96.9682945 51.2738947,96.981165 51.0955789,96.9965469 L51.0422713,97.0018835 L51.0422713,97.0018835 Z M12.381413,94.4905566 L50.9353441,94.4905566 C51.1011903,94.4764304 51.2564372,94.4641877 51.4026437,94.4528867 C52.4575749,94.3709547 52.6062753,94.3345405 52.8509919,94.0984757 C53.3338785,93.6326246 54.0293725,92.3797864 55.0353603,90.5217184 C61.5532389,78.4817896 58.1537045,67.575411 54.5543441,56.0289579 C52.1882308,48.4384725 49.7416883,40.5896343 49.7416883,31.7890032 C49.7416883,27.8835761 51.0157733,24.0349676 52.2477733,20.3128673 C52.8466275,18.5034563 53.4660567,16.6325178 53.9208866,14.799877 C53.9308623,14.7163754 53.9121579,14.374835 53.9018704,14.1915081 C53.8918947,14.0116343 53.8834777,13.844945 53.8834777,13.7140421 C53.8834777,11.561835 53.1256356,10.7987055 50.9883401,10.7987055 L28.3796437,10.7987055 L28.0145951,10.4307961 C26.3558219,8.76044984 25.1758826,7.32585437 24.2275668,6.17315534 C22.0026721,3.46845631 21.1700121,2.45639159 17.8509069,2.45639159 L2.55128745,2.45639159 C2.82593117,9.92382201 5.54992308,13.6791974 8.18912146,17.3177961 C10.8367368,20.9686375 13.5747571,24.7441036 13.5747571,31.7890032 C13.5747571,40.5896343 11.1279028,48.4384725 8.76210121,56.028644 C5.16274089,67.575411 1.76320648,78.4817896 8.28139676,90.5217184 C9.28769636,92.3794725 9.98319028,93.6326246 10.4660769,94.0984757 C10.7107935,94.3345405 10.8598057,94.3709547 11.9141134,94.4528867 C12.0600081,94.4641877 12.2152551,94.4764304 12.381413,94.4905566 L12.381413,94.4905566 Z" id="Shape" stroke-width="2"></path>
                    <path d="M45.4655385,44.1676472 L17.8509069,44.1676472 C17.1622713,44.1676472 16.6039433,43.6054239 16.6039433,42.9119838 C16.6039433,42.2185437 17.1622713,41.6563204 17.8509069,41.6563204 L45.4655385,41.6563204 C46.1541741,41.6563204 46.712502,42.2185437 46.712502,42.9119838 C46.712502,43.6054239 46.1541741,44.1676472 45.4655385,44.1676472 L45.4655385,44.1676472 Z" id="Shape" stroke-width="2"></path>
                    <path d="M59.4415061,69.5847864 C59.2447976,69.5847864 59.0487126,69.5380129 58.8697733,69.4450939 C58.5334049,69.2702427 58.2939879,68.9513042 58.21917,68.5777443 C57.8890364,66.9321974 57.4535344,65.1629676 56.887413,63.1686602 C56.722502,62.587288 56.9921579,61.9704434 57.5289757,61.7001618 C64.6494494,58.118068 69.0727409,50.9187217 69.0727409,42.9116699 C69.0727409,33.0945793 62.4507409,24.6872848 52.96883,22.4669579 C52.6271619,22.3869094 52.3350607,22.1659126 52.1636032,21.8579612 C51.9921457,21.5500097 51.9575425,21.1836699 52.0678988,20.8484078 L52.2561903,20.2780227 C52.7646397,18.739835 53.2899231,17.1495372 53.7129555,15.5956537 C53.891583,14.9376861 54.5599555,14.5443495 55.2164818,14.7088414 C68.0954332,17.9349547 77.0897814,29.5325761 77.0897814,42.9119838 C77.0897814,54.3837249 70.3614777,64.811068 59.9487085,69.4767994 C59.7866032,69.549 59.6138988,69.5847864 59.4415061,69.5847864 L59.4415061,69.5847864 Z M59.5587206,63.4612298 C59.8508219,64.5323107 60.1052024,65.5428058 60.325915,66.5087249 C69.043749,61.9710712 74.5955425,52.872534 74.5955425,42.9116699 C74.5955425,31.0939935 66.9151822,20.7981812 55.7738745,17.4643948 C55.4830202,18.4416149 55.1678502,19.415068 54.8529919,20.3721974 C59.3757287,21.7223495 63.4461296,24.4653463 66.4248138,28.1949806 C69.7404899,32.3471456 71.5663563,37.5732168 71.5663563,42.9116699 C71.5663563,51.5283463 66.9921822,59.3093786 59.5587206,63.4612298 L59.5587206,63.4612298 Z" id="Shape"></path>
                </g>
            </g>
        </g>
    </g>
</svg>