<?xml version="1.0" encoding="UTF-8" standalone="no"?>
<svg width="82px" height="99px" viewBox="0 0 82 99" version="1.1" xmlns="http://www.w3.org/2000/svg" xmlns:xlink="http://www.w3.org/1999/xlink" xmlns:sketch="http://www.bohemiancoding.com/sketch/ns">
    <!-- Generator: Sketch 3.1.1 (8761) - http://www.bohemiancoding.com/sketch -->
    <title>Icone Cosy</title>
    <desc>Created with Sketch.</desc>
    <defs></defs>
    <g id="Page-1" stroke="none" stroke-width="1" fill="none" fill-rule="evenodd" sketch:type="MSPage">
        <g id="Ambiances-Restaurants" sketch:type="MSLayerGroup" transform="translate(-779.000000, -2.000000)" stroke="#FFFFFF" stroke-width="3" fill="#FFFFFF">
            <g id="Cosy" transform="translate(770.000000, 1.000000)" sketch:type="MSShapeGroup">
                <g id="Icone-Cosy" transform="translate(11.000000, 3.000000)">
                    <path d="M67.6548493,37.6400556 L67.6548493,18.0637222 C67.6548493,8.1035 59.4520274,0 49.3686575,0 L48.834411,0 L28.242411,0 C18.1590411,0 9.95621918,8.1035 9.95621918,18.0637222 L9.95621918,37.8026111 C4.2590137,39.1157222 0,44.1475556 0,50.1505 C0,54.3579444 1.59419178,57.7388889 4.61375342,59.9471111 L4.61375342,80.9484444 C4.61375342,83.543 6.82446575,86.5555556 9.67413699,86.5555556 L12.0932055,86.5555556 L12.0932055,94.4722222 C12.0932055,94.7635556 12.3325479,95 12.6274521,95 L14.2301918,95 L14.7644384,95 C15.0593425,95 15.2986849,94.7635556 15.2986849,94.4722222 L15.2986849,86.5555556 L18.4389863,86.5555556 L24.5411507,86.5555556 L53.6095068,86.5555556 L60.0429041,86.5555556 L62.3113151,86.5555556 L62.3113151,94.4722222 C62.3113151,94.7635556 62.5506575,95 62.8455616,95 L64.4493699,95 L64.9836164,95 C65.2785205,95 65.517863,94.7635556 65.517863,94.4722222 L65.517863,86.5555556 L66.4795068,86.5555556 L68.4765205,86.5555556 C71.2684932,86.5555556 72.9962466,83.6453889 72.9962466,80.9495 L72.9962466,60.2817222 C76.3384932,57.8729444 78.3258904,54.1056667 78.3258904,50.1505 C78.3269589,43.8541111 73.6971781,38.6280556 67.6548493,37.6400556 L67.6548493,37.6400556 Z M11.0247123,18.0637222 C11.0247123,8.68616667 18.7488493,1.05555556 28.242411,1.05555556 L49.3686575,1.05555556 C58.8622192,1.05555556 66.5863562,8.68616667 66.5863562,18.0637222 L66.5863562,37.5081111 C66.2561918,37.4827778 65.9270959,37.4574444 65.5905205,37.4574444 C58.3867397,37.4574444 52.5249863,43.1521667 52.5249863,50.1505 C52.5249863,50.8703889 52.6061918,51.566 52.7397534,52.2394444 C48.7906027,50.6191667 44.1180822,49.6765556 39.1111233,49.6765556 C34.1383562,49.6765556 29.4946849,50.6065 25.5626301,52.2056667 C25.6694795,51.5343333 25.742137,50.8524444 25.742137,50.1505 C25.742137,43.1511111 19.9765479,37.4574444 12.8913699,37.4574444 C12.2556164,37.4574444 11.6348219,37.5186667 11.0236438,37.6062778 L11.0236438,18.0637222 L11.0247123,18.0637222 Z M52.9929863,53.2812778 C53.8445753,56.1724444 55.6823836,58.5147222 56.9699178,59.8869444 L56.9699178,66.2635556 C56.9699178,68.3947222 55.7144384,69.6666667 53.6095068,69.6666667 L24.5411507,69.6666667 C22.2449589,69.6666667 20.6411507,68.267 20.6411507,66.2625 L20.6411507,60.2806667 C23.0527397,58.539 24.6928767,56.0605556 25.3788493,53.2179444 C29.3087671,51.5364444 34.0336438,50.5537222 39.1121918,50.5537222 C44.2548493,50.5537222 49.0342192,51.5617778 52.9929863,53.2812778 L52.9929863,53.2812778 Z M14.2301918,93.9444444 L13.1616986,93.9444444 L13.1616986,86.5555556 L14.2301918,86.5555556 L14.2301918,93.9444444 L14.2301918,93.9444444 Z M64.4493699,93.9444444 L63.3808767,93.9444444 L63.3808767,86.5555556 L64.4493699,86.5555556 L64.4493699,93.9444444 L64.4493699,93.9444444 Z M72.1574795,59.5766111 C72.0143014,59.6758333 71.9288219,59.8373333 71.9288219,60.0104444 L71.9288219,80.9505556 C71.9288219,83.1471667 70.5419178,85.5 68.477589,85.5 L64.9836164,85.5 L62.8466301,85.5 L14.7644384,85.5 L12.6274521,85.5 L9.67413699,85.5 C7.46342466,85.5 5.68224658,83.011 5.68224658,80.9495 L5.68224658,59.6779444 C5.68224658,59.5058889 5.59783562,59.3454444 5.45572603,59.2462222 C2.58468493,57.2501667 1.06849315,54.1046111 1.06849315,50.1515556 C1.06849315,43.7348333 6.37249315,38.5140556 12.8924384,38.5140556 C19.3899452,38.5140556 24.6747123,43.7348333 24.6747123,50.1515556 C24.6747123,54.0053889 22.8978082,57.4412222 19.8002466,59.5776667 C19.658137,59.6758333 19.5726575,59.8373333 19.5726575,60.0104444 L19.5726575,66.2635556 C19.5726575,68.8475556 21.6626301,70.7222222 24.5411507,70.7222222 L53.6095068,70.7222222 C56.2999726,70.7222222 58.038411,68.9721111 58.038411,66.2625 L58.038411,59.6779444 C58.038411,59.5428333 57.9860548,59.413 57.8920274,59.3148333 C56.2871507,57.6396667 53.5945479,54.2228333 53.5945479,50.1505 C53.5945479,43.7337778 58.9765479,38.513 65.591589,38.513 C72.0249863,38.513 77.2595342,43.7337778 77.2595342,50.1505 C77.2584658,53.8512778 75.352274,57.3747222 72.1574795,59.5766111 L72.1574795,59.5766111 Z" id="Shape"></path>
                    <ellipse id="Oval" cx="38.553589" cy="22.5347778" rx="1.55358904" ry="1.53477778"></ellipse>
                </g>
            </g>
        </g>
    </g>
</svg>