<?xml version="1.0" encoding="UTF-8" standalone="no"?>
<svg width="94px" height="37px" viewBox="0 0 94 37" version="1.1" xmlns="http://www.w3.org/2000/svg" xmlns:xlink="http://www.w3.org/1999/xlink" xmlns:sketch="http://www.bohemiancoding.com/sketch/ns">
    <!-- Generator: Sketch 3.1.1 (8761) - http://www.bohemiancoding.com/sketch -->
    <title>Pour un Date</title>
    <desc>Created with Sketch.</desc>
    <defs></defs>
    <g id="Page-1" stroke="none" stroke-width="1" fill="none" fill-rule="evenodd" sketch:type="MSPage">
        <g id="Occasions-Restaurants" sketch:type="MSLayerGroup" transform="translate(-223.000000, -31.000000)" stroke-width="3" stroke="#FFFEFE" fill="#FFFFFF">
            <g id="Pour-un-Date" transform="translate(220.000000, 0.000000)" sketch:type="MSShapeGroup">
                <path d="M38.3759687,33 C33.20015,33 29.3754687,34.8542219 24.8020998,37.1719994 C20.1524873,39.4897768 14.6766936,42.348369 5.75368719,44.6661464 C5.67869344,44.6661464 5.67869344,44.6661464 5.60369969,44.7434057 L5.60369969,44.7434057 C5.52870594,44.7434057 5.52870594,44.7434057 5.45496209,44.8219526 L5.45496209,44.8219526 L5.37871844,44.8219526 C5.37871844,44.8992118 5.37871844,44.8992118 5.30247479,44.8992118 L5.30247479,44.8992118 C5.30247479,44.976471 5.30247479,44.976471 5.22748104,44.976471 L5.22748104,44.976471 L5.22748104,45.0550179 L5.22748104,45.0550179 L5.15248729,45.1335649 L5.15248729,45.1335649 C5.07624365,45.2108241 5.07624365,45.2867957 5.07624365,45.3653426 L5.07624365,45.3653426 C5.07624365,45.3653426 5.07624365,45.3653426 5.07624365,45.4426018 C5.07624365,45.4426018 5.07624365,45.4426018 5,45.4426018 L5,45.4426018 L5,45.5198611 L5,45.598408 L5,45.7529265 L5,45.7529265 C5,45.8301857 5,45.907445 5.07624365,45.9847042 L5.07624365,45.9847042 L5.07624365,46.0619635 C5.15248729,46.1405104 5.15248729,46.1405104 5.15248729,46.2177696 L5.15248729,46.2177696 L5.22748104,46.2950289 L5.22748104,46.2950289 C5.22748104,46.3722881 5.30247479,46.3722881 5.30247479,46.3722881 L5.30247479,46.3722881 C5.30247479,46.450835 5.37871844,46.450835 5.37871844,46.450835 L5.37871844,46.450835 C5.37871844,46.5280943 5.45496209,46.5280943 5.45496209,46.5280943 L5.45496209,46.5280943 C5.52995584,46.6053535 5.52995584,46.6053535 5.60369969,46.6053535 L5.60369969,46.6053535 C5.67994334,46.6053535 5.67994334,46.6839004 5.67994334,46.6839004 L5.75493709,46.6839004 C14.5304558,49.0029655 19.9300058,53.6385204 24.5783685,57.8864913 C29.1529873,62.0584907 32.9789184,66 38.3784685,66 C42.8018498,66 46.7777685,64.3002966 50.0012499,61.6721945 C53.1522373,64.3002966 57.2018998,66 61.5502875,66 C67.0260812,66 70.8495125,62.0584907 75.4253812,57.8864913 C80,53.6385204 85.3983001,49.0029655 94.0975752,46.6839004 C94.4737939,46.6053535 94.772519,46.4521227 94.8487626,46.1430857 C94.9237564,46.0645388 94.9237564,46.0645388 94.9237564,45.9885672 L94.9237564,45.9885672 C94.9237564,45.9885672 94.9237564,45.9885672 94.9237564,45.9113079 L94.9237564,45.9113079 C94.9237564,45.832761 95,45.7567894 95,45.6795302 L95,45.6795302 C95,45.2159747 94.6237814,44.7511316 94.0988251,44.6738723 C85.2495625,42.2788356 79.7750187,39.4975027 75.2016499,37.1797253 C70.5507874,34.8619479 66.7273561,33.0077259 61.5515374,33.0077259 C57.2031497,33.0077259 53.1522373,34.6301701 50.0024998,37.3342438 C46.7752687,34.6224442 42.7993501,33 38.3759687,33 L38.3759687,33 L38.3759687,33 Z M38.3759687,35.0859997 C42.5743688,35.0859997 46.4003,36.7084439 49.3250562,39.4125176 C49.700025,39.7215545 50.2987251,39.7215545 50.6749438,39.4125176 C53.5997,36.7084439 57.4231314,35.0859997 61.5477877,35.0859997 C66.3486376,35.0859997 69.7221065,36.7084439 74.2967253,39.0262213 C77.8964253,40.803184 82.0960753,42.966443 88.0955754,44.9751834 C77.371469,47.2942485 63.9488376,48.5291088 49.9987501,48.5291088 C36.0511624,48.5291088 22.6272811,47.2942485 11.9031747,44.9751834 C17.827681,42.966443 22.1023248,40.803184 25.6257812,39.0262213 C30.2766436,36.7084439 33.6513624,35.0859997 38.3759687,35.0859997 L38.3759687,35.0859997 L38.3759687,35.0859997 Z M13.5530372,47.3702201 C24.0509124,49.4562198 36.8010999,50.6163961 49.9987501,50.6163961 C63.1239063,50.6163961 75.871594,49.4575074 86.371969,47.3702201 C81.1974002,49.9970345 77.3727189,53.3204698 74.0729939,56.3322928 C69.4233814,60.5802638 66.0486626,63.9024114 61.5477877,63.9024114 C57.4231314,63.9024114 53.5997,62.2799672 50.6749438,59.5771812 C50.2987251,59.1895973 49.700025,59.1895973 49.3250562,59.5771812 C46.4003,62.2812549 42.5756187,63.9024114 38.3759687,63.9024114 C33.8750937,63.9024114 30.500375,60.5802638 25.8507624,56.3322928 C22.6272811,53.3204698 18.8025998,49.9970345 13.5530372,47.3702201 L13.5530372,47.3702201 L13.5530372,47.3702201 Z"></path>
            </g>
        </g>
    </g>
</svg>