<?xml version="1.0" encoding="UTF-8" standalone="no"?>
<svg width="94px" height="99px" viewBox="0 0 94 99" version="1.1" xmlns="http://www.w3.org/2000/svg" xmlns:xlink="http://www.w3.org/1999/xlink" xmlns:sketch="http://www.bohemiancoding.com/sketch/ns">
    <!-- Generator: Sketch 3.1.1 (8761) - http://www.bohemiancoding.com/sketch -->
    <title>Icone En Famille</title>
    <desc>Created with Sketch.</desc>
    <defs></defs>
    <g id="Page-1" stroke="none" stroke-width="1" fill="none" fill-rule="evenodd" sketch:type="MSPage">
        <g id="Occasions-Restaurants" sketch:type="MSLayerGroup" transform="translate(-333.000000, -1.000000)" stroke="#FFFFFF" stroke-width="2" fill="#FFFFFF">
            <g id="En-Famille" transform="translate(330.000000, 0.000000)" sketch:type="MSShapeGroup">
                <path d="M49.9993155,2 C49.8350273,2 49.6707391,2 49.5885951,2.08056478 C47.2064168,3.04734219 45.7278233,5.5448505 45.7278233,8.44518272 C45.7278233,11.345515 47.2064168,13.923588 49.5885951,14.8098007 C49.6707391,14.8903654 49.8350273,14.8903654 49.9993155,14.8903654 L49.9993155,14.8903654 C50.1636036,14.8903654 50.2457477,14.8903654 50.4100359,14.8098007 C52.7922142,13.923588 54.1886635,11.345515 54.1886635,8.44518272 C54.1886635,5.5448505 52.7922142,3.04734219 50.4100359,2.08056478 C50.2457477,2 50.1636036,2 49.9993155,2 L49.9993155,2 L49.9993155,2 Z M49.9993155,4.41694352 C51.0671885,5.14202658 52.0529175,6.59219269 52.0529175,8.44518272 C52.0529175,10.3787375 51.0671885,11.7483389 49.9993155,12.4734219 C48.9314424,11.7483389 47.9457135,10.3787375 47.9457135,8.44518272 C47.9457135,6.59219269 48.9314424,5.14202658 49.9993155,4.41694352 L49.9993155,4.41694352 L49.9993155,4.41694352 Z M46.3028319,14.9709302 C43.6742213,14.9709302 41.4563312,17.1461794 41.4563312,19.7242525 L41.4563312,36.5622924 L25.3560916,36.5622924 C18.3738448,36.5622924 12.7880474,42.0406977 12.7880474,48.8887043 L12.7880474,79.7450166 L10.4880132,79.7450166 C6.95718686,79.7450166 4,82.6440061 4,86.1901993 L4,92.6353821 C4,96.1802326 6.95718686,99 10.4880132,99 L89.5106177,99 C93.0428131,99 96,96.1788898 96,92.6353821 L96,86.1901993 C96,82.6440061 93.0428131,79.7450166 89.5106177,79.7450166 L87.2105835,79.7450166 L87.2105835,48.8887043 C87.2105835,42.0406977 81.6247861,36.5622924 74.6425393,36.5622924 L58.5422997,36.5622924 L58.5422997,19.7242525 C58.5422997,17.1461794 56.3244096,14.9709302 53.695799,14.9709302 L46.3028319,14.9709302 L46.3028319,14.9709302 Z M46.3028319,17.1461794 L53.695799,17.1461794 C55.1743925,17.1461794 56.3244096,18.2740864 56.3244096,19.7242525 L56.3244096,36.5622924 L43.6742213,36.5622924 L43.6742213,19.7242525 C43.6742213,18.2740864 44.8242385,17.1461794 46.3028319,17.1461794 L46.3028319,17.1461794 L46.3028319,17.1461794 Z M25.3560916,38.7375415 L42.3599161,38.7375415 L42.7706365,38.7375415 L57.2279945,38.7375415 L57.6387149,38.7375415 L74.6425393,38.7375415 C80.474769,38.7375415 85.0748374,43.2491694 85.0748374,48.8887043 L85.0748374,55.5755814 C82.0341374,55.3325443 79.9805354,53.4003322 77.516213,51.1445183 C75.1340347,48.8081395 72.3425051,46.2300664 68.2353011,46.0689369 C68.151788,46.0689369 68.071013,45.9883721 67.9874998,45.9883721 C67.9053557,45.9883721 67.9053557,46.0689369 67.8232117,46.0689369 C67.8232117,46.0689369 67.7410676,45.9883721 67.6589235,45.9883721 C67.5767794,45.9883721 67.5767794,46.0689369 67.4960044,46.0689369 C63.3888004,46.2300664 60.5959017,48.8081395 58.1302103,51.1445183 C55.5851129,53.5614618 53.3672227,55.6561462 50.0814595,55.6561462 L49.9993155,55.6561462 L49.9171714,55.6561462 C46.6314082,55.6561462 44.412149,53.5614618 41.8670516,51.1445183 C39.4013601,48.8081395 36.6084614,46.2300664 32.5012575,46.0689369 C32.4191134,46.0689369 32.4191134,45.9883721 32.3369693,45.9883721 C32.2548252,45.9883721 32.1740502,46.0689369 32.1740502,46.0689369 C32.0905371,46.0689369 32.0905371,45.9883721 32.0097621,45.9883721 C31.9262489,45.9883721 31.8454739,46.0689369 31.7619607,46.0689369 C27.6547568,46.2300664 24.8618581,48.8081395 22.4810488,51.1445183 C20.0153574,53.4003322 17.9617554,55.333887 14.9224244,55.5755814 L14.9224244,48.8887043 C14.9237935,43.2491694 19.523862,38.7375415 25.3560916,38.7375415 L25.3560916,38.7375415 L25.3560916,38.7375415 Z M32.1740502,48.1636213 C35.5419575,48.244186 37.8419917,50.3388704 40.304945,52.6752492 C42.8514115,55.0921927 45.6443102,57.7494878 49.9171714,57.7494878 L49.9993155,57.7494878 L50.0828286,57.7494878 C54.3529517,57.7494878 57.1458504,55.0921927 59.6936859,52.6752492 C62.1580083,50.3388704 64.4566735,48.244186 67.8245807,48.1636213 C71.2760011,48.244186 73.4938913,50.3388704 76.0389887,52.6752492 C78.421167,54.9310631 81.1332907,57.5091362 85.0762065,57.7494878 L85.0762065,68.4646041 C82.0355065,68.2229097 79.9819045,66.2893549 77.5175821,64.033541 C75.1354038,61.6971622 72.3438742,59.1983112 68.2366702,58.9579596 L67.9888689,58.9579596 L67.8245807,58.9579596 L67.6602926,58.9579596 L67.4973735,58.9579596 C63.3901695,59.1996539 60.5972708,61.6971622 58.1315793,64.033541 C55.5864819,66.4504845 53.3685918,68.5438261 50.0828286,68.5438261 L49.9993155,68.5438261 L49.9171714,68.5438261 C46.6314082,68.5438261 44.412149,66.4491417 41.8670516,64.033541 C39.4013601,61.6971622 36.6084614,59.1983112 32.5012575,58.9579596 L32.3369693,58.9579596 L32.1740502,58.9579596 L32.0097621,58.9579596 L31.7619607,58.9579596 C27.6547568,59.1996539 24.8618581,61.6971622 22.4810488,64.033541 C20.0153574,66.2893549 17.9617554,68.2229097 14.9224244,68.4646041 L14.9224244,57.7494878 C18.8653403,57.5077935 21.5760949,54.9297204 23.9596423,52.6752492 C26.5061087,50.3388704 28.7239989,48.244186 32.1740502,48.1636213 L32.1740502,48.1636213 L32.1740502,48.1636213 Z M32.1740502,61.1345515 C35.5419575,61.1345515 37.8419917,63.2292359 40.304945,65.5656146 C42.8514115,67.9825581 45.6443102,70.7217608 49.9171714,70.7217608 L49.9993155,70.7217608 L50.0828286,70.7217608 C54.3529517,70.7217608 57.1458504,67.9825581 59.6936859,65.5656146 C62.1580083,63.2292359 64.4566735,61.1345515 67.8245807,61.1345515 C71.2760011,61.1345515 73.4938913,63.2292359 76.0389887,65.5656146 C78.421167,67.9019934 81.1332907,70.4800664 85.0762065,70.641196 L85.0762065,79.7450166 L14.9237935,79.7450166 L14.9237935,70.641196 C18.8667093,70.4800664 21.577464,67.9019934 23.9610113,65.5656146 C26.5061087,63.2278931 28.7239989,61.1345515 32.1740502,61.1345515 L32.1740502,61.1345515 L32.1740502,61.1345515 Z M10.4880132,81.918923 L89.5106177,81.918923 C91.892796,81.918923 93.7821099,83.7732558 93.7821099,86.1901993 L93.7821099,92.6353821 C93.7821099,94.9717608 91.892796,96.9053156 89.5106177,96.9053156 L10.4880132,96.9053156 C8.10720398,96.9053156 6.21789015,94.9731035 6.21789015,92.6353821 L6.21789015,86.1901993 C6.21789015,83.7732558 8.10583491,81.918923 10.4880132,81.918923 L10.4880132,81.918923 L10.4880132,81.918923 Z" id="Icone-En-Famille"></path>
            </g>
        </g>
    </g>
</svg>