<?xml version="1.0" encoding="UTF-8" standalone="no"?>
<svg width="30px" height="100px" viewBox="0 0 30 100" version="1.1" xmlns="http://www.w3.org/2000/svg" xmlns:xlink="http://www.w3.org/1999/xlink" xmlns:sketch="http://www.bohemiancoding.com/sketch/ns">
    <!-- Generator: Sketch 3.1.1 (8761) - http://www.bohemiancoding.com/sketch -->
    <title>Icone Entre Amis</title>
    <desc>Created with Sketch.</desc>
    <defs></defs>
    <g id="Page-1" stroke="none" stroke-width="1" fill="none" fill-rule="evenodd" sketch:type="MSPage">
        <g id="Occasions-Restaurants" sketch:type="MSLayerGroup" transform="translate(-37.000000, -2.000000)" stroke="#FFFFFF" fill="#FFFFFF">
            <g id="Entre-Amis" sketch:type="MSShapeGroup">
                <g id="Icone-Entre-Amis" transform="translate(38.000000, 4.000000)">
                    <path d="M13.7947292,0.957873107 C14.0993832,0.957873107 15.5251635,0.767325931 19.256343,1.11075398 C20.2500687,2.45233904 20.5214877,3.21452774 19.3737733,3.84599221 C18.2271667,4.47745669 20.6799077,6.31867417 19.5333011,7.10855868 C19.5333011,7.10855868 22.2220104,32.7360459 22.4513317,35.3416678 C22.6817609,37.9461818 26.587978,39.4184911 26.587978,44.0370444 L26.587978,87.2546948 C26.587978,94.7314557 23.8316909,95.1291676 22.740476,95.1291676 C22.6108596,95.1291676 22.5045077,95.1236284 22.4291751,95.1236284 L13.8479052,95.1236284 L4.99189286,95.1236284 C4.91656026,95.1236284 4.81353185,95.1291676 4.68945461,95.1291676 C3.64476865,95.1291676 1.10894025,94.7314557 1.10894025,87.2546948 L1.10894025,44.0370444 C1.10894025,39.4195989 4.87889396,37.9195938 5.10821527,35.3150798 C5.33753658,32.7105658 8.0417555,7.05538272 8.0417555,7.05538272 C6.89514895,6.26549821 9.27477298,4.37110478 8.12816643,3.7396403 C6.98155988,3.10817583 7.21863602,2.45233904 8.21346953,1.11075398 C11.9446491,0.766218099 13.3637824,0.957873107 13.6662207,0.957873107 L13.7315828,0.957873107 L13.293989,0.957873107 L13.7947292,0.957873107 Z M13.7947292,-0.149959309 L13.7027791,-0.149959309 L13.664005,-0.149959309 C13.3039595,-0.149959309 11.8416207,-0.336075154 8.10933328,0.00735289433 C7.79581671,0.0361565371 7.50888811,0.0915481579 7.3205566,0.345241781 C6.68909212,1.19716491 6.07424513,2.15543995 6.30135078,3.19347892 C6.41878102,3.73188548 6.73783675,4.15950879 7.25076316,4.52398565 C7.20201853,4.63809239 7.14108775,4.75219913 7.09345096,4.85301188 C6.835326,5.3969576 6.29138029,6.53913282 6.88517846,7.44866323 C6.49522145,11.1499313 4.21530234,32.8069472 4.00259852,35.2209141 C3.93612857,35.9709166 3.36781054,36.688792 2.64771947,37.5994302 C1.46787795,39.0916805 0,40.9484076 0,44.0370444 L0,87.2546948 C0,93.2148332 1.57755336,96.237 4.68834678,96.237 C4.77032638,96.237 4.84344332,96.2347843 4.9076976,96.2336765 L4.99078503,96.2314608 L13.8479052,96.2314608 L22.4291751,96.2314608 L22.5133703,96.2336765 C22.5798403,96.2358922 22.6562807,96.237 22.740476,96.237 C25.0004541,96.237 27.6958104,94.6782798 27.6958104,87.2546948 L27.6958104,44.0370444 C27.6958104,40.9406528 26.1747565,39.08171 24.9539252,37.5872441 C24.2393733,36.7131643 23.6212028,35.9587304 23.5569485,35.2175906 C23.3442447,32.8036237 21.0776195,11.1466078 20.6898782,7.44312407 C21.2892155,6.52362316 20.7076035,5.36483046 20.4328611,4.81645341 C20.3841164,4.71896416 20.3220778,4.59599476 20.2700097,4.48410369 C20.764103,4.12627382 21.0709725,3.68203302 21.1861871,3.15692045 C21.4110771,2.12774414 20.8194946,1.14731245 20.1481481,0.239997702 C19.9609245,-0.0136959216 19.6739959,0.038372202 19.3593715,0.00956855916 C15.6259762,-0.336075154 14.1569904,-0.149959309 13.7947292,-0.149959309 L13.7947292,-0.149959309 L13.7947292,-0.149959309 Z" id="Shape" stroke-width="2"></path>
                    <path d="M11.0894025,22.4520376 C10.9786192,22.4520376 10.867836,22.4199105 10.7736702,22.3523327 C10.5775839,22.2171772 10.491173,21.9712384 10.5576429,21.7430249 L11.5114866,18.4738114 L9.02329502,16.3323714 C8.8482575,16.1805983 8.78511105,15.937983 8.86487499,15.71974 C8.94463892,15.5014971 9.15291142,15.3585867 9.38444839,15.3585867 L12.3922134,15.3585867 L13.3216848,12.4981634 C13.4701343,12.0417364 14.2267839,12.0417364 14.3752334,12.4981634 L15.3047048,15.3585867 L18.3124698,15.3585867 C18.5440068,15.3585867 18.7511715,15.5026049 18.8320432,15.7186322 C18.9118072,15.9346595 18.8508764,16.1783827 18.6758389,16.3301557 L16.1887551,18.4915367 L17.1370596,21.5879283 C17.2057452,21.8128183 17.1237656,22.0576493 16.9332185,22.1972362 C16.7415635,22.3368231 16.486762,22.3412544 16.2917835,22.2060988 L13.8600914,20.5255171 L11.4195365,22.3423622 C11.3220473,22.4154792 11.2057249,22.4520376 11.0894025,22.4520376 L11.0894025,22.4520376 Z M10.8766987,16.4675269 L12.5041045,17.8678271 C12.6680637,18.0096296 12.7356414,18.2345196 12.6747107,18.4427921 L12.0831282,20.4690176 L13.5166633,19.4010672 C13.7072105,19.2603724 13.9664433,19.2537254 14.1625296,19.3899888 L15.6104666,20.3892537 L15.0233154,18.4738114 C14.9590611,18.2644311 15.0244232,18.0362176 15.1894902,17.8944151 L16.8290822,16.4686348 L14.9014538,16.4686348 C14.6610542,16.4686348 14.4494582,16.3135382 14.3741256,16.0853247 L13.8479052,14.4623503 L13.320577,16.0842169 C13.2463522,16.3124304 13.0336484,16.4675269 12.7932487,16.4675269 L10.8766987,16.4675269 L10.8766987,16.4675269 Z" id="Shape"></path>
                    <path d="M13.8479052,47.8324783 C18.8852192,47.8324783 23.2644807,52.1330837 23.2644807,57.4185522 L23.2644807,71.3838876 C23.2644807,76.669356 18.8852192,80.9699615 13.8479052,80.9699615 C8.8105912,80.9699615 4.43132966,76.669356 4.43132966,71.3838876 L4.43132966,57.4185522 C4.43132966,52.1330837 8.8105912,47.8324783 13.8479052,47.8324783 L13.8479052,47.8324783 Z M13.8479052,46.3790021 L13.7315828,46.3790021 C8.04729467,46.3790021 3.32349725,51.4861096 3.32349725,57.4185522 L3.32349725,71.3838876 C3.32349725,77.317438 7.93097226,81.8296394 13.6152604,81.8296394 L13.8479052,81.8296394 C19.5321933,81.8296394 24.3723131,77.317438 24.3723131,71.3838876 L24.3723131,57.4185522 C24.3723131,51.4850017 19.5321933,46.3790021 13.8479052,46.3790021 L13.8479052,46.3790021 L13.8479052,46.3790021 Z" id="Shape"></path>
                    <path d="M18.3301951,71.4270931 C18.2149806,71.4270931 18.1008738,71.3916424 18.0033846,71.3207411 L13.8467974,68.2852803 L9.69131797,71.2985845 C9.4974473,71.4392792 9.23378318,71.4381714 9.03991251,71.2974767 C8.84604184,71.1556741 8.76517007,70.905304 8.84050268,70.6759827 L10.4258109,65.8524803 L6.2747628,62.8923521 C6.07867646,62.7527652 5.99558903,62.5012873 6.06870597,62.271966 C6.14182291,62.0426447 6.35563457,61.8864403 6.5960342,61.8864403 L11.7341609,61.8864403 L13.3216848,56.9997915 C13.4701343,56.5433646 14.2267839,56.5433646 14.3752334,56.9997915 L15.9638651,61.8864403 L21.1019919,61.8864403 C21.3434993,61.8864403 21.5562031,62.0426447 21.6304279,62.271966 C21.7046527,62.5012873 21.6193496,62.7527652 21.4232633,62.8923521 L17.273323,65.8502647 L18.8586312,70.700355 C18.932856,70.9285685 18.8519842,71.1800464 18.6570057,71.3207411 C18.5584086,71.3916424 18.4443019,71.4270931 18.3301951,71.4270931 L18.3301951,71.4270931 Z M13.8479052,67.0467237 C13.9631198,67.0467237 14.0772265,67.0821743 14.1747158,67.1530756 L17.2699995,69.4141616 L16.0923737,65.808167 C16.0181489,65.5777379 16.1012363,65.3251521 16.2984305,65.1844574 L19.369342,62.9953805 L15.5606141,62.9953805 C15.3202145,62.9953805 15.1086185,62.840284 15.0332859,62.6120705 L13.8479052,58.9639784 L12.6625245,62.6120705 C12.5882997,62.840284 12.3755959,62.9953805 12.1351963,62.9953805 L8.3253606,62.9953805 L11.3984877,65.1877809 C11.5956819,65.3284756 11.6787693,65.5810614 11.6034367,65.8114905 L10.4258109,69.3953284 L13.5222025,67.1508599 C13.6196917,67.0810665 13.7337985,67.0467237 13.8479052,67.0467237 L13.8479052,67.0467237 Z" id="Shape"></path>
                </g>
            </g>
        </g>
    </g>
</svg>