<?xml version="1.0" encoding="utf-8"?>
<!-- Generator: Adobe Illustrator 16.0.0, SVG Export Plug-In . SVG Version: 6.00 Build 0)  -->
<!DOCTYPE svg PUBLIC "-//W3C//DTD SVG 1.1//EN" "http://www.w3.org/Graphics/SVG/1.1/DTD/svg11.dtd">
<svg version="1.1" id="Calque_1" xmlns="http://www.w3.org/2000/svg" xmlns:xlink="http://www.w3.org/1999/xlink" x="0px" y="0px"
	 width="100px" height="100px" viewBox="0 0 100 100" enable-background="new 0 0 100 100" xml:space="preserve">
<g>
	<path fill="none" stroke="#FFFFFF" stroke-width="5" stroke-linecap="round" stroke-linejoin="round" stroke-miterlimit="10" d="
		M8.529,22.373c-0.113,1.23-0.171,2.473-0.171,3.734c0,19.934,14.406,36.092,32.181,36.092s32.182-16.158,32.182-36.092
		c0-1.262-0.06-2.506-0.172-3.734H8.529z"/>
	
		<line fill="none" stroke="#FFFFFF" stroke-width="5" stroke-linecap="round" stroke-linejoin="round" stroke-miterlimit="10" x1="40.539" y1="63.82" x2="40.539" y2="96.916"/>
	
		<line fill="none" stroke="#FFFFFF" stroke-width="5" stroke-linecap="round" stroke-linejoin="round" stroke-miterlimit="10" x1="25.14" y1="96.916" x2="55.933" y2="96.916"/>
	<path fill="none" stroke="#FFFFFF" stroke-width="5" stroke-linecap="round" stroke-linejoin="round" stroke-miterlimit="10" d="
		M9.852,34.457c1.084,0.258,1.888,1.188,2.834,1.797c1.557,1,3.254,1.508,5.074,1.584c3.405,0.133,6.769-0.955,10.011-1.893
		c3.147-0.908,6.57-1.551,9.911-0.93c3.176,0.594,6.15,2.6,9.062,3.955c4.896,2.279,9.41-1.365,14.206-2.111
		c3.545-0.549,6.375-0.217,9.134,1.963"/>
	
		<line fill="none" stroke="#FFFFFF" stroke-width="5" stroke-linecap="round" stroke-linejoin="round" stroke-miterlimit="10" x1="8.358" y1="2.916" x2="37.684" y2="35.016"/>
	<path fill="none" stroke="#FFFFFF" stroke-width="5" stroke-linecap="round" stroke-linejoin="round" stroke-miterlimit="10" d="
		M53.82,21.814c0-10.434,8.463-18.898,18.9-18.898c10.434,0,18.897,8.465,18.897,18.898s-8.464,18.896-18.897,18.896"/>
	
		<line fill="none" stroke="#FFFFFF" stroke-width="5" stroke-linecap="round" stroke-linejoin="round" stroke-miterlimit="10" x1="72.721" y1="3.973" x2="72.721" y2="21.506"/>
	
		<line fill="none" stroke="#FFFFFF" stroke-width="5" stroke-linecap="round" stroke-linejoin="round" stroke-miterlimit="10" x1="90.461" y1="21.506" x2="73.303" y2="21.506"/>
	
		<line fill="none" stroke="#FFFFFF" stroke-width="5" stroke-linecap="round" stroke-linejoin="round" stroke-miterlimit="10" x1="60.138" y1="9.562" x2="86.233" y2="33.623"/>
	
		<line fill="none" stroke="#FFFFFF" stroke-width="5" stroke-linecap="round" stroke-linejoin="round" stroke-miterlimit="10" x1="85.421" y1="9.562" x2="73.303" y2="20.912"/>
</g>
</svg>
