<?xml version="1.0" encoding="UTF-8" standalone="no"?>
<svg width="91px" height="101px" viewBox="0 0 91 101" version="1.1" xmlns="http://www.w3.org/2000/svg" xmlns:xlink="http://www.w3.org/1999/xlink" xmlns:sketch="http://www.bohemiancoding.com/sketch/ns">
    <!-- Generator: Sketch 3.1.1 (8761) - http://www.bohemiancoding.com/sketch -->
    <title>Icone Festif</title>
    <desc>Created with Sketch.</desc>
    <defs></defs>
    <g id="Page-1" stroke="none" stroke-width="1" fill="none" fill-rule="evenodd" sketch:type="MSPage">
        <g id="Ambiances-Restaurants" sketch:type="MSLayerGroup" transform="translate(-769.000000, 1.000000)" stroke="#FFFCFC" fill="#FFFFFF">
            <g id="Festif" transform="translate(770.000000, 0.000000)" sketch:type="MSShapeGroup">
                <path d="M31.632767,73.5277234 L31.632767,71.9641362 L31.632767,13.8547005 C31.632767,11.9177193 31.957989,11.474314 33.8396304,11.0775829 C51.4713081,7.39031749 69.1262159,3.72638921 86.7578936,0.0624609375 C88.2446227,-0.240921659 89.1970585,0.575877639 89.1970585,2.18613911 C89.2202886,5.99009012 89.1970585,9.81737826 89.1970585,13.6213293 L89.1970585,68.9303102 C89.1970585,77.9851139 84.5742603,84.2394628 75.8861872,86.7832092 C70.1018819,88.463482 64.5266478,88.090088 59.4392468,84.5661825 C54.1427744,80.9022542 52.4469741,74.5078826 55.2345911,68.6736019 C57.998978,62.8859955 62.8308475,59.6654725 68.9171446,58.3352565 C74.9337514,57.0283776 80.5089854,58.1018853 85.4337755,62.3259045 L85.4337755,22.7928185 C68.7545337,26.2700498 52.0985219,29.723944 35.3031294,33.2011753 L35.3031294,34.6247398 L35.3031294,80.1321292 C35.3031294,89.0469101 30.819712,95.2545847 22.2942499,97.8916796 C16.417024,99.6886381 10.7256393,99.3619183 5.52208752,95.7680014 C0.225615172,92.080736 -1.44695504,85.7097015 1.31743184,79.8754208 C4.03535844,74.1578258 8.79753752,70.9606399 14.7909141,69.6070868 C20.7610606,68.2535337 26.3362946,69.1870186 31.144934,73.2710151 C31.2610847,73.3643636 31.3540053,73.3877007 31.632767,73.5277234 L31.632767,73.5277234 Z M35.3495897,29.2805387 C35.7909624,29.2105273 36.0929542,29.1871902 36.394946,29.1171788 C52.4702042,25.7799702 68.5454624,22.4194246 84.6439507,19.1055531 C85.3640851,18.9655304 85.4570057,18.6154735 85.4570057,17.9853712 C85.4570057,13.9013747 85.4570057,9.81737826 85.4802358,5.73338177 L85.4802358,4.19313167 C82.7390791,4.75322262 80.1837635,5.28997644 77.6052177,5.82673026 C63.8762039,8.69719636 50.1239599,11.5443253 36.3717159,14.3914543 C35.5354308,14.5548142 35.3263595,14.8815339 35.3495897,15.6983332 C35.3960499,18.1020568 35.3728198,20.5291176 35.3728198,22.9328413 C35.3495897,25.0331823 35.3495897,27.1101862 35.3495897,29.2805387 L35.3495897,29.2805387 Z M73.2147209,61.6491279 C72.6571975,61.6958022 71.8209124,61.7424764 71.0310876,61.859162 C66.0133769,62.6526242 61.8087212,64.8463138 59.1372549,69.3037042 C56.2799475,74.0878144 57.7899067,79.4786897 62.6682365,82.1624589 C66.0830673,84.0527658 69.7301996,84.3328113 73.4702525,83.4693377 C78.0233603,82.4191672 81.8331035,80.1788034 84.1561177,75.9547842 C86.7114333,71.3106968 85.2943947,66.2932154 80.764517,63.562772 C78.5111932,62.232556 76.0487982,61.7191393 73.2147209,61.6491279 L73.2147209,61.6491279 Z M15.5807389,95.1378991 C21.481195,95.0912249 26.9402783,92.3374444 29.7046652,88.1367623 C33.1891865,82.8859097 31.4933861,76.864932 25.8020014,74.2278371 C22.5497815,72.7109241 19.1581808,72.5242272 15.6968896,73.3176893 C11.2367024,74.3678599 7.49664957,76.5615494 5.15040525,80.668883 C2.45570879,85.3596447 3.94243787,90.6104973 8.61169638,93.3176036 C10.84179,94.6011453 13.304185,95.0678878 15.5807389,95.1378991 L15.5807389,95.1378991 Z" id="Icone-Festif"></path>
            </g>
        </g>
    </g>
</svg>