<?xml version="1.0" encoding="UTF-8" standalone="no"?>
<svg width="99px" height="78px" viewBox="0 0 99 78" version="1.1" xmlns="http://www.w3.org/2000/svg" xmlns:xlink="http://www.w3.org/1999/xlink" xmlns:sketch="http://www.bohemiancoding.com/sketch/ns">
    <!-- Generator: Sketch 3.1.1 (8761) - http://www.bohemiancoding.com/sketch -->
    <title>Icone Groupe</title>
    <desc>Created with Sketch.</desc>
    <defs></defs>
    <g id="Page-1" stroke="none" stroke-width="1" fill="none" fill-rule="evenodd" sketch:type="MSPage">
        <g id="Occasions-Restaurants" sketch:type="MSLayerGroup" transform="translate(-441.000000, -14.000000)" stroke="#FFFFFF" stroke-width="3" fill="#FFFFFF">
            <g id="Groupe" transform="translate(440.000000, 0.000000)" sketch:type="MSShapeGroup">
                <path d="M96.1147987,31.2000115 L80.4821946,16.7300104 C79.8552016,16.256144 79.0909879,16 78.3067188,16 L22.6573927,16 C21.8720681,16 21.1089099,16.256144 20.4776947,16.7300104 L4.47353918,31.5063171 C4.47353918,31.5063171 3,32.4519153 3,34.4722511 L3,41.860938 C3,43.8951483 4.64137065,45.5558152 6.65323719,45.5558152 L6.65323719,86.3061901 C6.65323719,88.3404004 8.29460784,90 10.3064744,90 L13.9607671,90 C15.9726336,90 17.6140043,88.3404004 17.6140043,86.3061901 L17.6140043,45.5558152 L21.2672415,45.5558152 L21.2672415,62.1945021 C21.2672415,64.2287124 22.9086121,65.8893793 24.9204787,65.8893793 C26.9323452,65.8893793 28.5737158,64.2287124 28.5737158,62.1945021 L28.5737158,45.5558152 L72.4231175,45.5558152 L72.4231175,62.1945021 C72.4231175,64.2287124 74.0644882,65.8893793 76.0763547,65.8893793 C78.0882212,65.8893793 79.7306474,64.2287124 79.7306474,62.1945021 L79.7306474,45.5558152 L83.3849402,45.5558152 L83.3849402,86.1941271 C83.3849402,88.2283374 85.0263108,89.8890043 87.0381774,89.8890043 L90.6914145,89.8890043 C92.7043366,89.8890043 94.3457073,88.2283374 94.3457073,86.1941271 L94.3457073,45.5558152 C96.3586293,45.5558152 98,43.8951483 98,41.860938 L98,34.4722511 C97.9989445,32.5095477 96.1147987,31.2000115 96.1147987,31.2000115 L96.1147987,31.2000115 Z M26.7497361,62.1945021 C26.7497361,63.2116072 25.9295786,64.0408734 24.9225897,64.0408734 C23.9166565,64.0408734 23.0954434,63.2116072 23.0954434,62.1945021 L23.0954434,45.5696896 L26.7497361,45.5696896 L26.7497361,62.1945021 L26.7497361,62.1945021 Z M77.9024455,62.1945021 C77.9024455,63.2116072 77.082288,64.0408734 76.0763547,64.0408734 C75.0704214,64.0408734 74.2502639,63.2116072 74.2502639,62.1945021 L74.2502639,45.5696896 L77.9035011,45.5696896 L77.9035011,62.1945021 L77.9024455,62.1945021 Z M96.1728536,41.860938 C96.1728536,42.8780432 95.3526961,43.7073093 94.3457073,43.7073093 C93.3366074,43.7073093 92.5196164,44.5333737 92.5196164,45.5547479 L92.5196164,86.1941271 C92.5196164,87.2112323 91.6994589,88.0404984 90.6924701,88.0404984 L87.0392329,88.0404984 C86.0332996,88.0404984 85.2131421,87.2112323 85.2131421,86.1941271 L85.2131421,45.5558152 C85.2131421,44.534441 84.3961512,43.7083766 83.3870513,43.7083766 L17.6150598,43.7083766 C16.6049044,43.7083766 15.7879135,44.534441 15.7879135,45.5558152 L15.7879135,86.3061901 C15.7879135,87.3232953 14.9677559,88.1525614 13.9618226,88.1525614 L10.3075299,88.1525614 C9.30159665,88.1525614 8.4814391,87.3232953 8.4814391,86.3061901 L8.4814391,45.5558152 C8.4814391,44.534441 7.66444817,43.7083766 6.65429273,43.7083766 C5.64835946,43.7083766 4.82714637,42.8791104 4.82714637,41.8620053 L4.82714637,34.4733183 C4.82714637,33.5501327 5.42247308,33.091208 5.45202831,33.0666609 C5.54069399,33.0079612 5.62724859,32.9439252 5.70535883,32.8713511 L21.629293,18.1686858 C21.9332896,17.9595016 22.2890079,17.8474386 22.6573927,17.8474386 L78.3067188,17.8474386 C78.6708814,17.8474386 79.0308219,17.9584343 79.3305963,18.165484 L94.8798124,32.562911 C94.9452562,32.6216107 95.0085888,32.6717722 95.0793102,32.7219338 C95.0909212,32.7294046 96.1717981,33.5544018 96.1717981,34.4722511 L96.1717981,41.860938 L96.1728536,41.860938 Z" id="Icone-Groupe"></path>
            </g>
        </g>
    </g>
</svg>