<?xml version="1.0" encoding="UTF-8" standalone="no"?>
<svg width="61px" height="102px" viewBox="0 0 61 102" version="1.1" xmlns="http://www.w3.org/2000/svg" xmlns:xlink="http://www.w3.org/1999/xlink" xmlns:sketch="http://www.bohemiancoding.com/sketch/ns">
    <!-- Generator: Sketch 3.1.1 (8761) - http://www.bohemiancoding.com/sketch -->
    <title>Icone Inclassable</title>
    <desc>Created with Sketch.</desc>
    <defs></defs>
    <g id="Page-1" stroke="none" stroke-width="1" fill="none" fill-rule="evenodd" sketch:type="MSPage">
        <g id="Ambiances-Restaurants" sketch:type="MSLayerGroup" transform="translate(-460.000000, 0.000000)" stroke="#FFFCFC" fill="#FFFCFC">
            <g id="Inclassable" transform="translate(440.000000, 1.000000)" sketch:type="MSShapeGroup">
                <g id="Icone-Inclassable" transform="translate(21.000000, 0.000000)">
                    <path d="M29.3633644,3.55833306 C43.5931384,3.55833306 55.1695819,15.1347766 55.1695819,29.3645506 C55.1695819,35.9462806 52.691796,42.2125051 48.194063,47.0103242 C46.8395242,48.4550074 45.352141,49.8913879 43.9157606,51.2803239 C39.0930332,55.9381819 34.1078085,60.7549787 34.1078085,65.8445811 C34.1078085,68.4647004 31.9834837,70.5890252 29.3633644,70.5890252 C26.7432452,70.5890252 24.6189204,68.4647004 24.6189204,65.8445811 C24.6189204,56.7269457 31.366706,50.2080795 37.3221694,44.4566272 C38.738386,43.0878551 40.0775053,41.793808 41.2719191,40.5211108 C44.1138411,37.4882249 45.6806938,33.5266141 45.6806938,29.3657367 C45.6806938,20.3678985 38.3612027,13.0484073 29.3633644,13.0484073 C20.3667123,13.0484073 13.0472212,20.3678985 13.0472212,29.3657367 C13.0472212,31.9858559 10.9228964,34.1101808 8.30277715,34.1101808 C5.6826579,34.1101808 3.55833306,31.9858559 3.55833306,29.3657367 C3.55833306,15.1347766 15.1335905,3.55833306 29.3633644,3.55833306 L29.3633644,3.55833306 Z M29.3633644,0 C13.172949,0 0,13.172949 0,29.3645506 C0,33.9429391 3.72438861,37.6673277 8.30277715,37.6673277 C12.8811657,37.6673277 16.6055543,33.9429391 16.6055543,29.3645506 C16.6055543,22.3297261 22.32854,16.6055543 29.3633644,16.6055543 C36.3981889,16.6055543 42.1223607,22.3297261 42.1223607,29.3645506 C42.1223607,32.6180531 40.8982941,35.7161751 38.6755221,38.087211 C37.5439722,39.2922998 36.23925,40.5543219 34.8574307,41.8898829 C28.7062589,47.8311131 21.0605873,55.2170264 21.0605873,65.8445811 C21.0605873,70.4229697 24.7849759,74.1473583 29.3633644,74.1473583 C33.941753,74.1473583 37.6661416,70.4229697 37.6661416,65.8445811 C37.6661416,62.2648981 42.2990912,57.7885151 46.3864298,53.8399515 C47.8690686,52.4071294 49.3813602,50.9458406 50.7892739,49.444224 C55.907343,43.984555 58.7267289,36.8536555 58.7267289,29.3645506 C58.7267289,13.172949 45.5537799,0 29.3633644,0 L29.3633644,0 L29.3633644,0 Z" id="Shape"></path>
                    <path d="M29.2586742,99.5173484 C23.6009247,99.5173484 19,94.9152377 19,89.2586742 C19,83.6021108 23.6021108,79 29.2586742,79 C34.9152377,79 39.5173484,83.6021108 39.5173484,89.2586742 C39.5173484,94.9152377 34.9164238,99.5173484 29.2586742,99.5173484 L29.2586742,99.5173484 Z M29.2586742,82.557147 C25.5639384,82.557147 22.5583331,85.5627523 22.5583331,89.2574881 C22.5583331,92.9522239 25.5639384,95.9578293 29.2586742,95.9578293 C32.9534101,95.9578293 35.9590154,92.9522239 35.9590154,89.2574881 C35.9590154,85.5627523 32.9545962,82.557147 29.2586742,82.557147 L29.2586742,82.557147 Z" id="Shape"></path>
                </g>
            </g>
        </g>
    </g>
</svg>