<?xml version="1.0" encoding="utf-8"?>
<!-- Generator: Adobe Illustrator 16.0.0, SVG Export Plug-In . SVG Version: 6.00 Build 0)  -->
<!DOCTYPE svg PUBLIC "-//W3C//DTD SVG 1.1//EN" "http://www.w3.org/Graphics/SVG/1.1/DTD/svg11.dtd">
<svg version="1.1" id="Calque_1" xmlns="http://www.w3.org/2000/svg" xmlns:xlink="http://www.w3.org/1999/xlink" x="0px" y="0px"
	 width="100px" height="100px" viewBox="0 0 100 100" enable-background="new 0 0 100 100" xml:space="preserve">
<g>
	<path fill="#FFFFFF" stroke="#FFFFFF" stroke-miterlimit="10" d="M49.603,23.204c-14.255,0-25.854,11.6-25.854,25.854
		c0,8.22,3.927,15.943,10.537,20.816c1.098,4.468,3.506,8.837,6.526,11.814c0.365,0.357,0.856,0.561,1.369,0.561h14.844
		c0.51,0,1-0.203,1.366-0.561c3.022-2.978,5.428-7.344,6.528-11.814C71.531,65,75.456,57.278,75.456,49.059
		C75.456,34.804,63.86,23.204,49.603,23.204z M62.076,67.115c-0.407,0.284-0.693,0.709-0.796,1.196
		c-0.785,3.675-2.703,7.448-5.083,10.038H43.01c-2.383-2.59-4.304-6.363-5.083-10.038c-0.101-0.487-0.388-0.912-0.796-1.196
		c-5.938-4.111-9.482-10.859-9.482-18.057c0-12.107,9.848-21.956,21.954-21.956s21.954,9.849,21.954,21.956
		C71.557,56.256,68.014,63.004,62.076,67.115z"/>
	<path fill="#FFFFFF" stroke="#FFFFFF" stroke-miterlimit="10" d="M58.317,46.851c-0.15-0.028-0.303-0.031-0.45-0.022
		c-0.092-0.001-0.179,0.025-0.269,0.037c-0.026,0.005-0.05,0.007-0.073,0.014c-0.395,0.062-0.778,0.209-1.083,0.514l-6.126,6.124
		l-6.128-6.124c-0.419-0.421-0.981-0.586-1.53-0.54c-0.199-0.031-0.408-0.039-0.617,0c-1.06,0.187-1.766,1.194-1.58,2.256
		l4.256,24.189c0.167,0.945,0.989,1.609,1.92,1.609c0.11,0,0.224-0.008,0.338-0.028c1.062-0.188,1.769-1.196,1.583-2.258
		L45.279,53.99l3.659,3.664c0.38,0.381,0.88,0.569,1.381,0.569c0.496,0,0.995-0.188,1.376-0.569l3.329-3.33l-3.222,18.297
		c-0.186,1.062,0.521,2.072,1.584,2.258c0.114,0.021,0.227,0.028,0.341,0.028c0.928,0,1.751-0.664,1.917-1.609l4.257-24.189
		C60.09,48.047,59.38,47.037,58.317,46.851z"/>
	<path fill="#FFFFFF" stroke="#FFFFFF" stroke-miterlimit="10" d="M55.964,84.873H42.807c-1.512,0-2.737,1.225-2.737,2.738
		c0,1.513,1.226,2.739,2.737,2.739h13.157c1.512,0,2.739-1.227,2.739-2.739C58.703,86.098,57.479,84.873,55.964,84.873z"/>
	<path fill="#FFFFFF" stroke="#FFFFFF" stroke-miterlimit="10" d="M54.226,92.881h-9.106c-1.512,0-2.74,1.225-2.74,2.737
		c0,1.514,1.229,2.739,2.74,2.739h9.106c1.512,0,2.737-1.226,2.737-2.739C56.963,94.105,55.737,92.881,54.226,92.881z"/>
	<path fill="#FFFFFF" stroke="#FFFFFF" stroke-miterlimit="10" d="M96.553,47.04H81.528c-1.075,0-1.948,0.872-1.948,1.949
		s0.873,1.949,1.948,1.949h15.024c1.075,0,1.947-0.872,1.947-1.949S97.628,47.04,96.553,47.04z"/>
	<path fill="#FFFFFF" stroke="#FFFFFF" stroke-miterlimit="10" d="M18.474,47.04H3.45c-1.075,0-1.95,0.872-1.95,1.949
		s0.875,1.949,1.95,1.949h15.023c1.076,0,1.947-0.872,1.947-1.949S19.55,47.04,18.474,47.04z"/>
	<path fill="#FFFFFF" stroke="#FFFFFF" stroke-miterlimit="10" d="M49.098,20.457c1.074,0,1.948-0.87,1.948-1.947V3.484
		c0-1.076-0.874-1.949-1.948-1.949c-1.076,0-1.949,0.873-1.949,1.949V18.51C47.148,19.585,48.021,20.457,49.098,20.457z"/>
	<path fill="#FFFFFF" stroke="#FFFFFF" stroke-miterlimit="10" d="M25.824,29.251c0.38,0.379,0.881,0.569,1.381,0.569
		c0.497,0,0.995-0.19,1.376-0.569c0.761-0.762,0.761-1.997,0-2.756L17.956,15.871c-0.761-0.761-1.994-0.761-2.756,0
		s-0.762,1.996,0,2.757L25.824,29.251z"/>
	<path fill="#FFFFFF" stroke="#FFFFFF" stroke-miterlimit="10" d="M73.225,29.82c0.498,0,0.996-0.19,1.377-0.569l10.624-10.623
		c0.761-0.763,0.761-1.996,0-2.757c-0.763-0.761-1.996-0.761-2.757,0L71.845,26.495c-0.76,0.761-0.76,1.994,0,2.756
		C72.224,29.63,72.724,29.82,73.225,29.82z"/>
</g>
</svg>
