<?xml version="1.0" encoding="UTF-8" standalone="no"?>
<svg width="78px" height="101px" viewBox="0 0 78 101" version="1.1" xmlns="http://www.w3.org/2000/svg" xmlns:xlink="http://www.w3.org/1999/xlink" xmlns:sketch="http://www.bohemiancoding.com/sketch/ns">
    <!-- Generator: Sketch 3.1.1 (8761) - http://www.bohemiancoding.com/sketch -->
    <title>Icone En Couple</title>
    <desc>Created with Sketch.</desc>
    <defs></defs>
    <g id="Page-1" stroke="none" stroke-width="1" fill="none" fill-rule="evenodd" sketch:type="MSPage">
        <g id="Occasions-Restaurants" sketch:type="MSLayerGroup" transform="translate(-121.000000, 0.000000)" stroke="#FFFCFC" fill="#FEFEFE">
            <g id="En-Couple" transform="translate(110.000000, 0.000000)" sketch:type="MSShapeGroup">
                <g id="Icone-En-Couple" transform="translate(13.000000, 1.000000)">
                    <path d="M37.803169,98.2491702 C29.5922535,98.2491702 21.2102113,94.4188298 14.2024648,87.4639574 C5.07359155,78.4052128 -0.121478873,65.8195106 -0.0496478873,52.9345957 C0.0528169014,34.5616809 19.418662,26.1931064 37.3679577,26.1931064 C48.8091549,26.1931064 59.8669014,30.3914681 66.9475352,37.4224468 C72.1183099,42.5570213 74.8288732,48.8540426 74.7866197,55.6327234 C74.6482394,77.5388511 56.6746479,98.2491702 37.803169,98.2491702 L37.803169,98.2491702 Z M37.3679577,29.1779362 C20.8658451,29.1779362 3.06443662,36.6175957 2.97359155,52.9512766 C2.90704225,64.8697447 7.90669014,76.9852553 16.3457746,85.3600851 C22.7820423,91.746766 30.4024648,95.2643404 37.803169,95.2643404 C55.131338,95.2643404 71.634507,75.9969149 71.7623239,55.6160426 C71.8003521,49.6495106 69.3940141,44.0854043 64.803169,39.5273617 C58.2771127,33.0468511 48.0211268,29.1779362 37.3679577,29.1779362 L37.3679577,29.1779362 Z" id="Shape" stroke-width="2"></path>
                    <path d="M33.0876761,53.9802766 L12.8028169,48.6424043 L6.92957746,38.3096596 C6.65704225,37.8311277 6.83028169,37.2243617 7.31514085,36.955383 C7.80105634,36.6853617 8.41584507,36.857383 8.68732394,37.3359149 L14.1454225,46.9357447 L33.0306338,51.9055957 L55.8158451,44.5764468 L60.3084507,34.290617 C60.5292254,33.7849787 61.1239437,33.5524894 61.6330986,33.770383 C62.1433099,33.987234 62.3799296,34.5731489 62.1591549,35.0767021 L57.3073944,46.188234 L33.0876761,53.9802766 L33.0876761,53.9802766 Z" id="Shape" stroke-width="2"></path>
                    <path d="M35.031338,46.2226383 C27.5492958,46.2226383 21.7827465,43.218 21.6190141,39.2333617 C21.5292254,37.0888298 23.0207746,35.065234 25.8190141,33.5368511 C28.3996479,32.125234 31.8517606,31.2672128 35.5373239,31.1191702 C43.5591549,30.790766 49.9088028,33.9027872 50.0799296,38.0865532 C50.1697183,40.2300426 48.678169,42.2536383 45.8799296,43.7820213 C43.2992958,45.1925957 39.8471831,46.0516596 36.1616197,46.1997021 C35.781338,46.2153404 35.4042254,46.2226383 35.031338,46.2226383 L35.031338,46.2226383 Z M36.665493,33.0854255 C36.3200704,33.0854255 35.9704225,33.0927234 35.618662,33.1062766 C32.240493,33.2418085 29.106338,34.0132979 26.7940141,35.2768723 C24.7288732,36.4059574 23.5764085,37.818617 23.631338,39.1520426 C23.7538732,42.109766 29.4380282,44.4638511 36.0771127,44.2125957 C39.4552817,44.0760213 42.5894366,43.3055745 44.9017606,42.042 C46.9669014,40.9129149 48.1204225,39.5012979 48.0644366,38.1678723 C47.9503521,35.3644468 42.8366197,33.0854255 36.665493,33.0854255 L36.665493,33.0854255 Z" id="Shape"></path>
                    <path d="M34.7165493,45.7607872 L17.631338,3.68751064 L5.42007042,9.44553191 L4.11760563,6.75261702 L17.7834507,0.308595745 L19.8390845,1.10093617 L37.5232394,44.6515106 L34.7165493,45.7607872 Z" id="Shape"></path>
                    <path d="M40.1672535,45.8723404 L37.4397887,44.5847872 L54.6760563,9.00140426 L56.5014085,8.22470213 L70.3415493,12.6055106 L69.4172535,15.4475106 L56.8341549,11.4639149 L40.1672535,45.8723404 Z" id="Shape"></path>
                </g>
            </g>
        </g>
    </g>
</svg>