<?xml version="1.0" encoding="UTF-8" standalone="no"?>
<svg width="57px" height="100px" viewBox="0 0 57 100" version="1.1" xmlns="http://www.w3.org/2000/svg" xmlns:xlink="http://www.w3.org/1999/xlink" xmlns:sketch="http://www.bohemiancoding.com/sketch/ns">
    <!-- Generator: Sketch 3.1.1 (8761) - http://www.bohemiancoding.com/sketch -->
    <title>Icone Romantique</title>
    <desc>Created with Sketch.</desc>
    <defs></defs>
    <g id="Page-1" stroke="none" stroke-width="1" fill="none" fill-rule="evenodd" sketch:type="MSPage">
        <g id="Ambiances-Restaurants" sketch:type="MSLayerGroup" transform="translate(-571.000000, 0.000000)" fill="#FFFFFF">
            <g id="Romantique" transform="translate(550.000000, 0.000000)" sketch:type="MSShapeGroup">
                <g id="Icone-Romantique" transform="translate(21.000000, 1.000000)">
                    <path d="M26.5662703,50.0432836 C21.6246486,50.0432836 16.9751351,47.5044776 13.8088649,43.0791045 C9.24259459,36.6985075 8.54335135,27.7179104 11.8912432,18.441791 C17.4836757,2.93731343 27.9405405,1.73283582 31.0114595,1.73283582 C31.8332973,1.73283582 32.304,1.80895522 32.304,1.80895522 C33.1137297,1.94029851 33.8038919,2.49402985 34.0838919,3.25373134 C34.3654054,4.01492537 34.2246486,4.86567164 33.6903784,5.48059701 C33.4603243,5.76119403 31.3414054,8.56119403 33.9128649,12.7895522 C37.2819459,18.3223881 38.7576216,36.7313433 34.2791351,45.0970149 C32.2131892,48.9552239 29.392,49.9029851 27.3896216,50.0179104 C27.1141622,50.0343284 26.8387027,50.0432836 26.5662703,50.0432836 L26.5662703,50.0432836 Z M28.3522162,6.56567164 C24.9286486,7.44477612 19.6131892,10.3925373 16.1684324,19.9432836 C13.323027,27.8283582 13.8149189,35.3208955 17.5184865,40.4970149 C19.9461622,43.8895522 23.4771892,45.7507463 27.1232432,45.5492537 C27.5772973,45.5223881 28.9591351,45.4432836 30.2637838,43.0074627 C34.0021622,36.0253731 32.4281081,19.0492537 30.0201081,15.0940299 C27.9556757,11.7 27.8618378,8.74925373 28.3522162,6.56567164 L28.3522162,6.56567164 Z" id="Shape"></path>
                    <path d="M18.5582703,50.9865672 C12.0229189,50.9865672 7.15848649,49.0970149 4.04367568,45.3313433 C-4.25945946,35.2955224 3.30810811,15.5373134 5.82659459,9.72089552 C6.88756757,7.21044776 6.64540541,3.52686567 6.46681081,2.30895522 C6.36237838,1.58955224 6.61664865,0.86119403 7.15243243,0.36119403 C7.68821622,-0.137313433 8.43740541,-0.353731343 9.15783784,-0.210447761 C15.3783784,1.0119403 22.7673514,5.18208955 23.0776216,5.35820896 C24.1643243,5.97462687 24.5366486,7.34328358 23.9115676,8.41492537 C23.2864865,9.48656716 21.8970811,9.85522388 20.8118919,9.23880597 C20.7528649,9.20746269 15.9368649,6.48955224 11.1662703,4.94925373 C11.1617297,6.84925373 10.9377297,9.26268657 10.068973,11.3208955 L10.0008649,11.4776119 C8.38897297,15.2029851 0.69427027,34.2044776 7.55956757,42.5 C10.8363243,46.4597015 17.3081081,47.4985075 26.7993514,45.5895522 C28.0328649,45.3432836 29.227027,46.1238806 29.4782703,47.3358209 C29.7295135,48.5477612 28.9364324,49.7298507 27.7074595,49.9776119 C24.3656216,50.6507463 21.3128649,50.9865672 18.5582703,50.9865672 L18.5582703,50.9865672 Z" id="Shape"></path>
                    <path d="M29.4722162,98.2701493 C28.6912432,98.2701493 27.9314595,97.8731343 27.5107027,97.161194 C10.3610811,68.2164179 15.892973,48.9164179 16.1366486,48.1089552 C16.4953514,46.9238806 17.7561081,46.2462687 18.9608649,46.6014925 C20.1595676,46.9537313 20.8436757,48.1955224 20.491027,49.3776119 L20.491027,49.3776119 C20.4380541,49.558209 15.3587027,67.7761194 31.4307027,94.9014925 C32.0633514,95.9701493 31.6985946,97.3402985 30.6164324,97.9641791 C30.2562162,98.1716418 29.8611892,98.2701493 29.4722162,98.2701493 L29.4722162,98.2701493 Z" id="Shape"></path>
                    <path d="M28.0313514,80.0432836 L28.0313514,80.0432836 C23.3772973,80.0432836 20.0869189,79.0343284 19.9507027,78.9925373 C18.8564324,78.6507463 18.192,77.5597015 18.4023784,76.4477612 C22.2860541,55.8686567 36.6492973,52.7940299 44.8631351,52.7940299 C50.7264865,52.7940299 55.2291892,54.2671642 55.4168649,54.3298507 C55.988973,54.519403 56.4581622,54.9253731 56.7260541,55.458209 C56.9939459,55.9910448 57.0363243,56.6044776 56.8441081,57.1671642 C50.0438919,77.0701493 35.8728649,80.0432836 28.0313514,80.0432836 L28.0313514,80.0432836 Z M23.3167568,75.1626866 C24.4972973,75.3671642 26.1303784,75.5656716 28.0298378,75.5656716 C35.7336216,75.5656716 45.912,72.4462687 51.7042162,57.9985075 C50.0469189,57.6507463 47.6177297,57.2716418 44.8631351,57.2716418 C33.427027,57.2716418 26.1878919,63.2880597 23.3167568,75.1626866 L23.3167568,75.1626866 Z" id="Shape"></path>
                    <path d="M20.6363243,79.0955224 C19.8992432,79.0955224 19.1757838,78.7432836 18.7398919,78.0910448 C18.0482162,77.0597015 18.3357838,75.6701493 19.3831351,74.9880597 L37.1941622,63.3865672 C38.236973,62.7059701 39.6460541,62.9865672 40.3407568,64.0208955 C41.0309189,65.0522388 40.7433514,66.441791 39.6975135,67.1238806 L21.884973,78.7253731 C21.5005405,78.9761194 21.0661622,79.0955224 20.6363243,79.0955224 L20.6363243,79.0955224 Z" id="Shape"></path>
                </g>
            </g>
        </g>
    </g>
</svg>