<?xml version="1.0" encoding="utf-8"?>
<!-- Generator: Adobe Illustrator 16.0.0, SVG Export Plug-In . SVG Version: 6.00 Build 0)  -->
<!DOCTYPE svg PUBLIC "-//W3C//DTD SVG 1.1//EN" "http://www.w3.org/Graphics/SVG/1.1/DTD/svg11.dtd">
<svg version="1.1" id="Calque_1" xmlns="http://www.w3.org/2000/svg" xmlns:xlink="http://www.w3.org/1999/xlink" x="0px" y="0px"
	 width="100px" height="100px" viewBox="0 0 100 100" enable-background="new 0 0 100 100" xml:space="preserve">
<g>
	<path fill="none" stroke="#FFFFFF" stroke-width="5" stroke-linecap="round" stroke-linejoin="round" stroke-miterlimit="10" d="
		M49.5,18.33c-22.377,0-40.523,17.291-40.523,38.624h81.047C90.023,35.621,71.88,18.33,49.5,18.33z"/>
	
		<ellipse fill="none" stroke="#FFFFFF" stroke-width="5" stroke-linecap="round" stroke-linejoin="round" stroke-miterlimit="10" cx="49.5" cy="10.415" rx="8.305" ry="7.915"/>
	<path fill="none" stroke="#FFFFFF" stroke-width="5" stroke-linecap="round" stroke-linejoin="round" stroke-miterlimit="10" d="
		M85.47,76.451c0,0-12.489,14.786-23.532,14.41c-11.036-0.371-26.028-3.009-29.97,5.642H6.731c0,0,12.885-22.434,23.792-24.188
		c10.91-1.748,32.129-1.558,33.126-1.628c2.103-0.15,6.169,5.216-1.444,6.644c-7.363,1.377-18.145,2.879-18.145,2.879
		s15.25,3.812,21.293,0.81c6.046-3.009,10.918-4.243,13.674-7.573C81,71.063,88.889,71.312,85.47,76.451z"/>
	
		<line fill="none" stroke="#FFFFFF" stroke-width="5" stroke-linecap="round" stroke-linejoin="round" stroke-miterlimit="10" x1="2.5" y1="63.526" x2="96.5" y2="63.526"/>
</g>
</svg>
