<?xml version="1.0" encoding="utf-8"?>
<!-- Generator: Adobe Illustrator 16.0.0, SVG Export Plug-In . SVG Version: 6.00 Build 0)  -->
<!DOCTYPE svg PUBLIC "-//W3C//DTD SVG 1.1//EN" "http://www.w3.org/Graphics/SVG/1.1/DTD/svg11.dtd">
<svg version="1.1" id="Calque_1" xmlns="http://www.w3.org/2000/svg" xmlns:xlink="http://www.w3.org/1999/xlink" x="0px" y="0px"
	 width="100px" height="100px" viewBox="0 0 100 100" enable-background="new 0 0 100 100" xml:space="preserve">
<path fill="none" stroke="#FFFFFF" stroke-width="5" stroke-miterlimit="10" d="M96.716,42.058
	c-1.662-0.432-4.221,6.207-10.223,6.207c-7.71,0-11.341-13.294-23.392-13.294c-9.561,0-12.471,7.622-13.103,7.622
	s-3.542-7.622-13.101-7.622c-12.05,0-15.683,13.294-23.395,13.294c-6.001,0-8.558-6.639-10.221-6.207
	c-1.556,0.407,2.866,22.978,23.96,22.978c13.685,0,21.726-10.884,22.756-10.884c1.032,0,9.073,10.884,22.757,10.884
	C93.851,65.037,98.273,42.465,96.716,42.058z"/>
</svg>
