<?xml version="1.0" encoding="utf-8"?>
<!-- Generator: Adobe Illustrator 16.0.0, SVG Export Plug-In . SVG Version: 6.00 Build 0)  -->
<!DOCTYPE svg PUBLIC "-//W3C//DTD SVG 1.1//EN" "http://www.w3.org/Graphics/SVG/1.1/DTD/svg11.dtd">
<svg version="1.1" id="Calque_1" xmlns="http://www.w3.org/2000/svg" xmlns:xlink="http://www.w3.org/1999/xlink" x="0px" y="0px"
	 width="100px" height="100px" viewBox="0 0 100 100" enable-background="new 0 0 100 100" xml:space="preserve">
<g>
	<path fill="#FFFFFF" stroke="#FFFFFF" stroke-width="2" stroke-miterlimit="10" d="M85.867,94.86H74.105V71.704
		c7.521-0.849,13.342-7.275,13.342-15.033V29.993c0-0.971-0.851-1.82-1.821-1.82H58.949c-0.968,0-1.814,0.85-1.814,1.82v26.678
		c0,7.758,5.818,14.185,13.335,15.033V94.86H58.949c-0.968,0-1.814,0.85-1.814,1.82c0,0.97,0.847,1.819,1.814,1.819h26.918
		c0.971,0,1.821-0.85,1.821-1.819C87.688,95.71,86.838,94.86,85.867,94.86z M83.807,31.812v16.368H60.769V31.812H83.807z
		 M60.769,56.671v-4.852h23.038v4.852c0,6.304-5.212,11.517-11.516,11.517C65.984,68.188,60.769,62.975,60.769,56.671z"/>
	<path fill="#FFFFFF" stroke="#FFFFFF" stroke-width="2" stroke-miterlimit="10" d="M37.611,29.509V3.319
		c0-0.97-0.849-1.819-1.817-1.819h-0.122h-9.581c-0.968,0-1.816,0.85-1.816,1.819v9.697V29.39
		c-6.911,2.664-11.398,9.213-11.398,16.729v14.55v21.825v14.066c0,0.968,0.849,1.817,1.821,1.817h32.371
		c0.973,0,1.819-0.85,1.819-1.817V82.616V60.791v-14.55C48.766,38.725,44.278,32.298,37.611,29.509z M27.91,5.14h5.94v6.062h-5.94
		V5.14z M45.129,80.798H16.393V62.61h28.736V80.798z M16.393,94.86V84.436h28.736V94.86H16.393z M45.129,58.972H16.393V46.119
		c0-6.304,4.123-11.884,10.186-13.698c0.728-0.245,1.332-0.972,1.332-1.699V14.837h6.062v15.885c0,0.85,0.485,1.454,1.212,1.699
		c5.943,1.938,9.944,7.395,9.944,13.698V58.972z"/>
</g>
</svg>
